<svg width="1919" height="744" viewBox="0 0 1919 744" fill="none" xmlns="http://www.w3.org/2000/svg">
<g clip-path="url(#clip0_73_906)">
<rect width="1920" height="744" transform="translate(-1)" fill="#252525"/>
<g filter="url(#filter0_b_73_906)">
<mask id="path-1-outside-1_73_906" maskUnits="userSpaceOnUse" x="-453" y="86" width="2333" height="608" fill="black">
<rect fill="white" x="-453" y="86" width="2333" height="608"/>
<path d="M-451.781 390V91.8182H-370.83V208.295H-263.67V91.8182H-182.719V390H-263.67V273.523H-370.83V390H-451.781ZM32.1818 91.8182H113.134V282.841C113.134 305.554 107.698 325.21 96.8267 341.808C86.0526 358.308 71.0076 371.072 51.6918 380.099C32.376 389.029 9.95407 393.494 -15.5739 393.494C-41.2959 393.494 -63.8149 389.029 -83.1307 380.099C-102.446 371.072 -117.491 358.308 -128.266 341.808C-138.943 325.21 -144.281 305.554 -144.281 282.841V91.8182H-63.3295V275.852C-63.3295 285.073 -61.2912 293.324 -57.2145 300.604C-53.1378 307.786 -47.508 313.416 -40.3253 317.493C-33.0455 321.57 -24.795 323.608 -15.5739 323.608C-6.25568 323.608 1.9948 321.57 9.17756 317.493C16.3603 313.416 21.9901 307.786 26.0668 300.604C30.1435 293.324 32.1818 285.073 32.1818 275.852V91.8182ZM151.607 390V91.8182H280.897C303.61 91.8182 322.683 94.8757 338.117 100.991C353.647 107.106 365.343 115.745 373.205 126.907C381.165 138.069 385.144 151.222 385.144 166.364C385.144 177.332 382.718 187.33 377.865 196.357C373.108 205.384 366.411 212.955 357.772 219.07C349.133 225.088 339.039 229.261 327.488 231.591V234.503C340.301 234.988 351.948 238.24 362.431 244.258C372.914 250.179 381.262 258.381 387.474 268.864C393.686 279.25 396.792 291.48 396.792 305.554C396.792 321.861 392.521 336.372 383.98 349.087C375.535 361.803 363.499 371.8 347.872 379.08C332.244 386.36 313.608 390 291.963 390H151.607ZM232.559 325.355H270.414C284.003 325.355 294.195 322.831 300.99 317.784C307.784 312.64 311.181 305.069 311.181 295.071C311.181 288.082 309.58 282.161 306.377 277.308C303.173 272.455 298.611 268.767 292.691 266.243C286.867 263.719 279.829 262.457 271.579 262.457H232.559V325.355ZM232.559 212.372H265.755C272.841 212.372 279.102 211.256 284.537 209.023C289.973 206.791 294.195 203.588 297.204 199.414C300.31 195.143 301.863 189.95 301.863 183.835C301.863 174.614 298.563 167.577 291.963 162.724C285.362 157.773 277.015 155.298 266.92 155.298H232.559V212.372ZM426.057 390V331.761L537.293 239.744C544.67 233.629 550.979 227.902 556.22 222.564C561.559 217.128 565.636 211.547 568.45 205.82C571.362 200.094 572.818 193.736 572.818 186.747C572.818 179.079 571.168 172.527 567.868 167.092C564.665 161.656 560.2 157.482 554.473 154.57C548.746 151.561 542.146 150.057 534.672 150.057C527.198 150.057 520.598 151.561 514.871 154.57C509.241 157.579 504.873 161.996 501.767 167.82C498.661 173.643 497.108 180.729 497.108 189.077H420.233C420.233 168.111 424.941 150.057 434.356 134.915C443.771 119.773 457.069 108.125 474.249 99.9716C491.43 91.8182 511.571 87.7415 534.672 87.7415C558.55 87.7415 579.225 91.5755 596.696 99.2436C614.265 106.815 627.805 117.492 637.318 131.275C646.927 145.058 651.732 161.219 651.732 179.759C651.732 191.212 649.354 202.617 644.597 213.974C639.841 225.233 631.3 237.706 618.972 251.392C606.645 265.078 589.125 281.385 566.412 300.312L538.458 323.608V325.355H654.935V390H426.057ZM772.213 390V91.8182H853.165V208.295H960.324V91.8182H1041.28V390H960.324V273.523H853.165V390H772.213ZM1256.18 91.8182H1337.13V282.841C1337.13 305.554 1331.69 325.21 1320.82 341.808C1310.05 358.308 1295 371.072 1275.69 380.099C1256.37 389.029 1233.95 393.494 1208.42 393.494C1182.7 393.494 1160.18 389.029 1140.86 380.099C1121.55 371.072 1106.5 358.308 1095.73 341.808C1085.05 325.21 1079.71 305.554 1079.71 282.841V91.8182H1160.66V275.852C1160.66 285.073 1162.7 293.324 1166.78 300.604C1170.86 307.786 1176.49 313.416 1183.67 317.493C1190.95 321.57 1199.2 323.608 1208.42 323.608C1217.74 323.608 1225.99 321.57 1233.17 317.493C1240.35 313.416 1245.98 307.786 1250.06 300.604C1254.14 293.324 1256.18 285.073 1256.18 275.852V91.8182ZM1375.6 390V91.8182H1504.89C1527.6 91.8182 1546.68 94.8757 1562.11 100.991C1577.64 107.106 1589.34 115.745 1597.2 126.907C1605.16 138.069 1609.14 151.222 1609.14 166.364C1609.14 177.332 1606.71 187.33 1601.86 196.357C1597.1 205.384 1590.41 212.955 1581.77 219.07C1573.13 225.088 1563.03 229.261 1551.48 231.591V234.503C1564.29 234.988 1575.94 238.24 1586.43 244.258C1596.91 250.179 1605.26 258.381 1611.47 268.864C1617.68 279.25 1620.79 291.48 1620.79 305.554C1620.79 321.861 1616.52 336.372 1607.97 349.087C1599.53 361.803 1587.49 371.8 1571.87 379.08C1556.24 386.36 1537.6 390 1515.96 390H1375.6ZM1456.55 325.355H1494.41C1508 325.355 1518.19 322.831 1524.98 317.784C1531.78 312.64 1535.18 305.069 1535.18 295.071C1535.18 288.082 1533.57 282.161 1530.37 277.308C1527.17 272.455 1522.61 268.767 1516.68 266.243C1510.86 263.719 1503.82 262.457 1495.57 262.457H1456.55V325.355ZM1456.55 212.372H1489.75C1496.83 212.372 1503.1 211.256 1508.53 209.023C1513.97 206.791 1518.19 203.588 1521.2 199.414C1524.3 195.143 1525.86 189.95 1525.86 183.835C1525.86 174.614 1522.56 167.577 1515.96 162.724C1509.36 157.773 1501.01 155.298 1490.91 155.298H1456.55V212.372ZM1650.05 390V331.761L1761.29 239.744C1768.66 233.629 1774.97 227.902 1780.21 222.564C1785.55 217.128 1789.63 211.547 1792.44 205.82C1795.36 200.094 1796.81 193.736 1796.81 186.747C1796.81 179.079 1795.16 172.527 1791.86 167.092C1788.66 161.656 1784.19 157.482 1778.47 154.57C1772.74 151.561 1766.14 150.057 1758.67 150.057C1751.19 150.057 1744.59 151.561 1738.87 154.57C1733.24 157.579 1728.87 161.996 1725.76 167.82C1722.66 173.643 1721.1 180.729 1721.1 189.077H1644.23C1644.23 168.111 1648.93 150.057 1658.35 134.915C1667.77 119.773 1681.06 108.125 1698.24 99.9716C1715.42 91.8182 1735.56 87.7415 1758.67 87.7415C1782.54 87.7415 1803.22 91.5755 1820.69 99.2436C1838.26 106.815 1851.8 117.492 1861.31 131.275C1870.92 145.058 1875.73 161.219 1875.73 179.759C1875.73 191.212 1873.35 202.617 1868.59 213.974C1863.84 225.233 1855.29 237.706 1842.97 251.392C1830.64 265.078 1813.12 281.385 1790.41 300.312L1762.45 323.608V325.355H1878.93V390H1650.05ZM-451.781 689V390.818H-370.83V507.295H-263.67V390.818H-182.719V689H-263.67V572.523H-370.83V689H-451.781ZM32.1818 390.818H113.134V581.841C113.134 604.554 107.698 624.21 96.8267 640.808C86.0526 657.308 71.0076 670.072 51.6918 679.099C32.376 688.029 9.95407 692.494 -15.5739 692.494C-41.2959 692.494 -63.8149 688.029 -83.1307 679.099C-102.446 670.072 -117.491 657.308 -128.266 640.808C-138.943 624.21 -144.281 604.554 -144.281 581.841V390.818H-63.3295V574.852C-63.3295 584.073 -61.2912 592.324 -57.2145 599.604C-53.1378 606.786 -47.508 612.416 -40.3253 616.493C-33.0455 620.57 -24.795 622.608 -15.5739 622.608C-6.25568 622.608 1.9948 620.57 9.17756 616.493C16.3603 612.416 21.9901 606.786 26.0668 599.604C30.1435 592.324 32.1818 584.073 32.1818 574.852V390.818ZM151.607 689V390.818H280.897C303.61 390.818 322.683 393.876 338.117 399.991C353.647 406.106 365.343 414.745 373.205 425.907C381.165 437.069 385.144 450.222 385.144 465.364C385.144 476.332 382.718 486.33 377.865 495.357C373.108 504.384 366.411 511.955 357.772 518.07C349.133 524.088 339.039 528.261 327.488 530.591V533.503C340.301 533.988 351.948 537.24 362.431 543.258C372.914 549.179 381.262 557.381 387.474 567.864C393.686 578.25 396.792 590.48 396.792 604.554C396.792 620.861 392.521 635.372 383.98 648.087C375.535 660.803 363.499 670.8 347.872 678.08C332.244 685.36 313.608 689 291.963 689H151.607ZM232.559 624.355H270.414C284.003 624.355 294.195 621.831 300.99 616.784C307.784 611.64 311.181 604.069 311.181 594.071C311.181 587.082 309.58 581.161 306.377 576.308C303.173 571.455 298.611 567.767 292.691 565.243C286.867 562.719 279.829 561.457 271.579 561.457H232.559V624.355ZM232.559 511.372H265.755C272.841 511.372 279.102 510.256 284.537 508.023C289.973 505.791 294.195 502.588 297.204 498.414C300.31 494.143 301.863 488.95 301.863 482.835C301.863 473.614 298.563 466.577 291.963 461.724C285.362 456.773 277.015 454.298 266.92 454.298H232.559V511.372ZM426.057 689V630.761L537.293 538.744C544.67 532.629 550.979 526.902 556.22 521.564C561.559 516.128 565.636 510.547 568.45 504.82C571.362 499.094 572.818 492.736 572.818 485.747C572.818 478.079 571.168 471.527 567.868 466.092C564.665 460.656 560.2 456.482 554.473 453.57C548.746 450.561 542.146 449.057 534.672 449.057C527.198 449.057 520.598 450.561 514.871 453.57C509.241 456.579 504.873 460.996 501.767 466.82C498.661 472.643 497.108 479.729 497.108 488.077H420.233C420.233 467.111 424.941 449.057 434.356 433.915C443.771 418.773 457.069 407.125 474.249 398.972C491.43 390.818 511.571 386.741 534.672 386.741C558.55 386.741 579.225 390.576 596.696 398.244C614.265 405.815 627.805 416.492 637.318 430.275C646.927 444.058 651.732 460.219 651.732 478.759C651.732 490.212 649.354 501.617 644.597 512.974C639.841 524.233 631.3 536.706 618.972 550.392C606.645 564.078 589.125 580.385 566.412 599.312L538.458 622.608V624.355H654.935V689H426.057ZM690.533 689V390.818H771.485V507.295H878.644V390.818H959.596V689H878.644V572.523H771.485V689H690.533ZM1174.5 390.818H1255.45V581.841C1255.45 604.554 1250.01 624.21 1239.14 640.808C1228.37 657.308 1213.32 670.072 1194.01 679.099C1174.69 688.029 1152.27 692.494 1126.74 692.494C1101.02 692.494 1078.5 688.029 1059.18 679.099C1039.87 670.072 1024.82 657.308 1014.05 640.808C1003.37 624.21 998.033 604.554 998.033 581.841V390.818H1078.98V574.852C1078.98 584.073 1081.02 592.324 1085.1 599.604C1089.18 606.786 1094.81 612.416 1101.99 616.493C1109.27 620.57 1117.52 622.608 1126.74 622.608C1136.06 622.608 1144.31 620.57 1151.49 616.493C1158.67 612.416 1164.3 606.786 1168.38 599.604C1172.46 592.324 1174.5 584.073 1174.5 574.852V390.818ZM1293.92 689V390.818H1423.21C1445.92 390.818 1465 393.876 1480.43 399.991C1495.96 406.106 1507.66 414.745 1515.52 425.907C1523.48 437.069 1527.46 450.222 1527.46 465.364C1527.46 476.332 1525.03 486.33 1520.18 495.357C1515.42 504.384 1508.73 511.955 1500.09 518.07C1491.45 524.088 1481.35 528.261 1469.8 530.591V533.503C1482.62 533.988 1494.26 537.24 1504.75 543.258C1515.23 549.179 1523.58 557.381 1529.79 567.864C1536 578.25 1539.11 590.48 1539.11 604.554C1539.11 620.861 1534.84 635.372 1526.29 648.087C1517.85 660.803 1505.81 670.8 1490.19 678.08C1474.56 685.36 1455.92 689 1434.28 689H1293.92ZM1374.87 624.355H1412.73C1426.32 624.355 1436.51 621.831 1443.3 616.784C1450.1 611.64 1453.5 604.069 1453.5 594.071C1453.5 587.082 1451.89 581.161 1448.69 576.308C1445.49 571.455 1440.93 567.767 1435 565.243C1429.18 562.719 1422.14 561.457 1413.89 561.457H1374.87V624.355ZM1374.87 511.372H1408.07C1415.16 511.372 1421.42 510.256 1426.85 508.023C1432.29 505.791 1436.51 502.588 1439.52 498.414C1442.62 494.143 1444.18 488.95 1444.18 482.835C1444.18 473.614 1440.88 466.577 1434.28 461.724C1427.68 456.773 1419.33 454.298 1409.23 454.298H1374.87V511.372ZM1568.37 689V630.761L1679.61 538.744C1686.98 532.629 1693.29 526.902 1698.53 521.564C1703.87 516.128 1707.95 510.547 1710.76 504.82C1713.68 499.094 1715.13 492.736 1715.13 485.747C1715.13 478.079 1713.48 471.527 1710.18 466.092C1706.98 460.656 1702.51 456.482 1696.79 453.57C1691.06 450.561 1684.46 449.057 1676.99 449.057C1669.51 449.057 1662.91 450.561 1657.19 453.57C1651.56 456.579 1647.19 460.996 1644.08 466.82C1640.98 472.643 1639.42 479.729 1639.42 488.077H1562.55C1562.55 467.111 1567.26 449.057 1576.67 433.915C1586.09 418.773 1599.38 407.125 1616.56 398.972C1633.74 390.818 1653.89 386.741 1676.99 386.741C1700.86 386.741 1721.54 390.576 1739.01 398.244C1756.58 405.815 1770.12 416.492 1779.63 430.275C1789.24 444.058 1794.05 460.219 1794.05 478.759C1794.05 490.212 1791.67 501.617 1786.91 512.974C1782.16 524.233 1773.61 536.706 1761.29 550.392C1748.96 564.078 1731.44 580.385 1708.73 599.312L1680.77 622.608V624.355H1797.25V689H1568.37Z"/>
</mask>
<path d="M-451.781 390V91.8182H-370.83V208.295H-263.67V91.8182H-182.719V390H-263.67V273.523H-370.83V390H-451.781ZM32.1818 91.8182H113.134V282.841C113.134 305.554 107.698 325.21 96.8267 341.808C86.0526 358.308 71.0076 371.072 51.6918 380.099C32.376 389.029 9.95407 393.494 -15.5739 393.494C-41.2959 393.494 -63.8149 389.029 -83.1307 380.099C-102.446 371.072 -117.491 358.308 -128.266 341.808C-138.943 325.21 -144.281 305.554 -144.281 282.841V91.8182H-63.3295V275.852C-63.3295 285.073 -61.2912 293.324 -57.2145 300.604C-53.1378 307.786 -47.508 313.416 -40.3253 317.493C-33.0455 321.57 -24.795 323.608 -15.5739 323.608C-6.25568 323.608 1.9948 321.57 9.17756 317.493C16.3603 313.416 21.9901 307.786 26.0668 300.604C30.1435 293.324 32.1818 285.073 32.1818 275.852V91.8182ZM151.607 390V91.8182H280.897C303.61 91.8182 322.683 94.8757 338.117 100.991C353.647 107.106 365.343 115.745 373.205 126.907C381.165 138.069 385.144 151.222 385.144 166.364C385.144 177.332 382.718 187.33 377.865 196.357C373.108 205.384 366.411 212.955 357.772 219.07C349.133 225.088 339.039 229.261 327.488 231.591V234.503C340.301 234.988 351.948 238.24 362.431 244.258C372.914 250.179 381.262 258.381 387.474 268.864C393.686 279.25 396.792 291.48 396.792 305.554C396.792 321.861 392.521 336.372 383.98 349.087C375.535 361.803 363.499 371.8 347.872 379.08C332.244 386.36 313.608 390 291.963 390H151.607ZM232.559 325.355H270.414C284.003 325.355 294.195 322.831 300.99 317.784C307.784 312.64 311.181 305.069 311.181 295.071C311.181 288.082 309.58 282.161 306.377 277.308C303.173 272.455 298.611 268.767 292.691 266.243C286.867 263.719 279.829 262.457 271.579 262.457H232.559V325.355ZM232.559 212.372H265.755C272.841 212.372 279.102 211.256 284.537 209.023C289.973 206.791 294.195 203.588 297.204 199.414C300.31 195.143 301.863 189.95 301.863 183.835C301.863 174.614 298.563 167.577 291.963 162.724C285.362 157.773 277.015 155.298 266.92 155.298H232.559V212.372ZM426.057 390V331.761L537.293 239.744C544.67 233.629 550.979 227.902 556.22 222.564C561.559 217.128 565.636 211.547 568.45 205.82C571.362 200.094 572.818 193.736 572.818 186.747C572.818 179.079 571.168 172.527 567.868 167.092C564.665 161.656 560.2 157.482 554.473 154.57C548.746 151.561 542.146 150.057 534.672 150.057C527.198 150.057 520.598 151.561 514.871 154.57C509.241 157.579 504.873 161.996 501.767 167.82C498.661 173.643 497.108 180.729 497.108 189.077H420.233C420.233 168.111 424.941 150.057 434.356 134.915C443.771 119.773 457.069 108.125 474.249 99.9716C491.43 91.8182 511.571 87.7415 534.672 87.7415C558.55 87.7415 579.225 91.5755 596.696 99.2436C614.265 106.815 627.805 117.492 637.318 131.275C646.927 145.058 651.732 161.219 651.732 179.759C651.732 191.212 649.354 202.617 644.597 213.974C639.841 225.233 631.3 237.706 618.972 251.392C606.645 265.078 589.125 281.385 566.412 300.312L538.458 323.608V325.355H654.935V390H426.057ZM772.213 390V91.8182H853.165V208.295H960.324V91.8182H1041.28V390H960.324V273.523H853.165V390H772.213ZM1256.18 91.8182H1337.13V282.841C1337.13 305.554 1331.69 325.21 1320.82 341.808C1310.05 358.308 1295 371.072 1275.69 380.099C1256.37 389.029 1233.95 393.494 1208.42 393.494C1182.7 393.494 1160.18 389.029 1140.86 380.099C1121.55 371.072 1106.5 358.308 1095.73 341.808C1085.05 325.21 1079.71 305.554 1079.71 282.841V91.8182H1160.66V275.852C1160.66 285.073 1162.7 293.324 1166.78 300.604C1170.86 307.786 1176.49 313.416 1183.67 317.493C1190.95 321.57 1199.2 323.608 1208.42 323.608C1217.74 323.608 1225.99 321.57 1233.17 317.493C1240.35 313.416 1245.98 307.786 1250.06 300.604C1254.14 293.324 1256.18 285.073 1256.18 275.852V91.8182ZM1375.6 390V91.8182H1504.89C1527.6 91.8182 1546.68 94.8757 1562.11 100.991C1577.64 107.106 1589.34 115.745 1597.2 126.907C1605.16 138.069 1609.14 151.222 1609.14 166.364C1609.14 177.332 1606.71 187.33 1601.86 196.357C1597.1 205.384 1590.41 212.955 1581.77 219.07C1573.13 225.088 1563.03 229.261 1551.48 231.591V234.503C1564.29 234.988 1575.94 238.24 1586.43 244.258C1596.91 250.179 1605.26 258.381 1611.47 268.864C1617.68 279.25 1620.79 291.48 1620.79 305.554C1620.79 321.861 1616.52 336.372 1607.97 349.087C1599.53 361.803 1587.49 371.8 1571.87 379.08C1556.24 386.36 1537.6 390 1515.96 390H1375.6ZM1456.55 325.355H1494.41C1508 325.355 1518.19 322.831 1524.98 317.784C1531.78 312.64 1535.18 305.069 1535.18 295.071C1535.18 288.082 1533.57 282.161 1530.37 277.308C1527.17 272.455 1522.61 268.767 1516.68 266.243C1510.86 263.719 1503.82 262.457 1495.57 262.457H1456.55V325.355ZM1456.55 212.372H1489.75C1496.83 212.372 1503.1 211.256 1508.53 209.023C1513.97 206.791 1518.19 203.588 1521.2 199.414C1524.3 195.143 1525.86 189.95 1525.86 183.835C1525.86 174.614 1522.56 167.577 1515.96 162.724C1509.36 157.773 1501.01 155.298 1490.91 155.298H1456.55V212.372ZM1650.05 390V331.761L1761.29 239.744C1768.66 233.629 1774.97 227.902 1780.21 222.564C1785.55 217.128 1789.63 211.547 1792.44 205.82C1795.36 200.094 1796.81 193.736 1796.81 186.747C1796.81 179.079 1795.16 172.527 1791.86 167.092C1788.66 161.656 1784.19 157.482 1778.47 154.57C1772.74 151.561 1766.14 150.057 1758.67 150.057C1751.19 150.057 1744.59 151.561 1738.87 154.57C1733.24 157.579 1728.87 161.996 1725.76 167.82C1722.66 173.643 1721.1 180.729 1721.1 189.077H1644.23C1644.23 168.111 1648.93 150.057 1658.35 134.915C1667.77 119.773 1681.06 108.125 1698.24 99.9716C1715.42 91.8182 1735.56 87.7415 1758.67 87.7415C1782.54 87.7415 1803.22 91.5755 1820.69 99.2436C1838.26 106.815 1851.8 117.492 1861.31 131.275C1870.92 145.058 1875.73 161.219 1875.73 179.759C1875.73 191.212 1873.35 202.617 1868.59 213.974C1863.84 225.233 1855.29 237.706 1842.97 251.392C1830.64 265.078 1813.12 281.385 1790.41 300.312L1762.45 323.608V325.355H1878.93V390H1650.05ZM-451.781 689V390.818H-370.83V507.295H-263.67V390.818H-182.719V689H-263.67V572.523H-370.83V689H-451.781ZM32.1818 390.818H113.134V581.841C113.134 604.554 107.698 624.21 96.8267 640.808C86.0526 657.308 71.0076 670.072 51.6918 679.099C32.376 688.029 9.95407 692.494 -15.5739 692.494C-41.2959 692.494 -63.8149 688.029 -83.1307 679.099C-102.446 670.072 -117.491 657.308 -128.266 640.808C-138.943 624.21 -144.281 604.554 -144.281 581.841V390.818H-63.3295V574.852C-63.3295 584.073 -61.2912 592.324 -57.2145 599.604C-53.1378 606.786 -47.508 612.416 -40.3253 616.493C-33.0455 620.57 -24.795 622.608 -15.5739 622.608C-6.25568 622.608 1.9948 620.57 9.17756 616.493C16.3603 612.416 21.9901 606.786 26.0668 599.604C30.1435 592.324 32.1818 584.073 32.1818 574.852V390.818ZM151.607 689V390.818H280.897C303.61 390.818 322.683 393.876 338.117 399.991C353.647 406.106 365.343 414.745 373.205 425.907C381.165 437.069 385.144 450.222 385.144 465.364C385.144 476.332 382.718 486.33 377.865 495.357C373.108 504.384 366.411 511.955 357.772 518.07C349.133 524.088 339.039 528.261 327.488 530.591V533.503C340.301 533.988 351.948 537.24 362.431 543.258C372.914 549.179 381.262 557.381 387.474 567.864C393.686 578.25 396.792 590.48 396.792 604.554C396.792 620.861 392.521 635.372 383.98 648.087C375.535 660.803 363.499 670.8 347.872 678.08C332.244 685.36 313.608 689 291.963 689H151.607ZM232.559 624.355H270.414C284.003 624.355 294.195 621.831 300.99 616.784C307.784 611.64 311.181 604.069 311.181 594.071C311.181 587.082 309.58 581.161 306.377 576.308C303.173 571.455 298.611 567.767 292.691 565.243C286.867 562.719 279.829 561.457 271.579 561.457H232.559V624.355ZM232.559 511.372H265.755C272.841 511.372 279.102 510.256 284.537 508.023C289.973 505.791 294.195 502.588 297.204 498.414C300.31 494.143 301.863 488.95 301.863 482.835C301.863 473.614 298.563 466.577 291.963 461.724C285.362 456.773 277.015 454.298 266.92 454.298H232.559V511.372ZM426.057 689V630.761L537.293 538.744C544.67 532.629 550.979 526.902 556.22 521.564C561.559 516.128 565.636 510.547 568.45 504.82C571.362 499.094 572.818 492.736 572.818 485.747C572.818 478.079 571.168 471.527 567.868 466.092C564.665 460.656 560.2 456.482 554.473 453.57C548.746 450.561 542.146 449.057 534.672 449.057C527.198 449.057 520.598 450.561 514.871 453.57C509.241 456.579 504.873 460.996 501.767 466.82C498.661 472.643 497.108 479.729 497.108 488.077H420.233C420.233 467.111 424.941 449.057 434.356 433.915C443.771 418.773 457.069 407.125 474.249 398.972C491.43 390.818 511.571 386.741 534.672 386.741C558.55 386.741 579.225 390.576 596.696 398.244C614.265 405.815 627.805 416.492 637.318 430.275C646.927 444.058 651.732 460.219 651.732 478.759C651.732 490.212 649.354 501.617 644.597 512.974C639.841 524.233 631.3 536.706 618.972 550.392C606.645 564.078 589.125 580.385 566.412 599.312L538.458 622.608V624.355H654.935V689H426.057ZM690.533 689V390.818H771.485V507.295H878.644V390.818H959.596V689H878.644V572.523H771.485V689H690.533ZM1174.5 390.818H1255.45V581.841C1255.45 604.554 1250.01 624.21 1239.14 640.808C1228.37 657.308 1213.32 670.072 1194.01 679.099C1174.69 688.029 1152.27 692.494 1126.74 692.494C1101.02 692.494 1078.5 688.029 1059.18 679.099C1039.87 670.072 1024.82 657.308 1014.05 640.808C1003.37 624.21 998.033 604.554 998.033 581.841V390.818H1078.98V574.852C1078.98 584.073 1081.02 592.324 1085.1 599.604C1089.18 606.786 1094.81 612.416 1101.99 616.493C1109.27 620.57 1117.52 622.608 1126.74 622.608C1136.06 622.608 1144.31 620.57 1151.49 616.493C1158.67 612.416 1164.3 606.786 1168.38 599.604C1172.46 592.324 1174.5 584.073 1174.5 574.852V390.818ZM1293.92 689V390.818H1423.21C1445.92 390.818 1465 393.876 1480.43 399.991C1495.96 406.106 1507.66 414.745 1515.52 425.907C1523.48 437.069 1527.46 450.222 1527.46 465.364C1527.46 476.332 1525.03 486.33 1520.18 495.357C1515.42 504.384 1508.73 511.955 1500.09 518.07C1491.45 524.088 1481.35 528.261 1469.8 530.591V533.503C1482.62 533.988 1494.26 537.24 1504.75 543.258C1515.23 549.179 1523.58 557.381 1529.79 567.864C1536 578.25 1539.11 590.48 1539.11 604.554C1539.11 620.861 1534.84 635.372 1526.29 648.087C1517.85 660.803 1505.81 670.8 1490.19 678.08C1474.56 685.36 1455.92 689 1434.28 689H1293.92ZM1374.87 624.355H1412.73C1426.32 624.355 1436.51 621.831 1443.3 616.784C1450.1 611.64 1453.5 604.069 1453.5 594.071C1453.5 587.082 1451.89 581.161 1448.69 576.308C1445.49 571.455 1440.93 567.767 1435 565.243C1429.18 562.719 1422.14 561.457 1413.89 561.457H1374.87V624.355ZM1374.87 511.372H1408.07C1415.16 511.372 1421.42 510.256 1426.85 508.023C1432.29 505.791 1436.51 502.588 1439.52 498.414C1442.62 494.143 1444.18 488.95 1444.18 482.835C1444.18 473.614 1440.88 466.577 1434.28 461.724C1427.68 456.773 1419.33 454.298 1409.23 454.298H1374.87V511.372ZM1568.37 689V630.761L1679.61 538.744C1686.98 532.629 1693.29 526.902 1698.53 521.564C1703.87 516.128 1707.95 510.547 1710.76 504.82C1713.68 499.094 1715.13 492.736 1715.13 485.747C1715.13 478.079 1713.48 471.527 1710.18 466.092C1706.98 460.656 1702.51 456.482 1696.79 453.57C1691.06 450.561 1684.46 449.057 1676.99 449.057C1669.51 449.057 1662.91 450.561 1657.19 453.57C1651.56 456.579 1647.19 460.996 1644.08 466.82C1640.98 472.643 1639.42 479.729 1639.42 488.077H1562.55C1562.55 467.111 1567.26 449.057 1576.67 433.915C1586.09 418.773 1599.38 407.125 1616.56 398.972C1633.74 390.818 1653.89 386.741 1676.99 386.741C1700.86 386.741 1721.54 390.576 1739.01 398.244C1756.58 405.815 1770.12 416.492 1779.63 430.275C1789.24 444.058 1794.05 460.219 1794.05 478.759C1794.05 490.212 1791.67 501.617 1786.91 512.974C1782.16 524.233 1773.61 536.706 1761.29 550.392C1748.96 564.078 1731.44 580.385 1708.73 599.312L1680.77 622.608V624.355H1797.25V689H1568.37Z" fill="url(#paint0_linear_73_906)"/>
<path d="M-451.781 390H-452.781V391H-451.781V390ZM-451.781 91.8182V90.8182H-452.781V91.8182H-451.781ZM-370.83 91.8182H-369.83V90.8182H-370.83V91.8182ZM-370.83 208.295H-371.83V209.295H-370.83V208.295ZM-263.67 208.295V209.295H-262.67V208.295H-263.67ZM-263.67 91.8182V90.8182H-264.67V91.8182H-263.67ZM-182.719 91.8182H-181.719V90.8182H-182.719V91.8182ZM-182.719 390V391H-181.719V390H-182.719ZM-263.67 390H-264.67V391H-263.67V390ZM-263.67 273.523H-262.67V272.523H-263.67V273.523ZM-370.83 273.523V272.523H-371.83V273.523H-370.83ZM-370.83 390V391H-369.83V390H-370.83ZM-450.781 390V91.8182H-452.781V390H-450.781ZM-451.781 92.8182H-370.83V90.8182H-451.781V92.8182ZM-371.83 91.8182V208.295H-369.83V91.8182H-371.83ZM-370.83 209.295H-263.67V207.295H-370.83V209.295ZM-262.67 208.295V91.8182H-264.67V208.295H-262.67ZM-263.67 92.8182H-182.719V90.8182H-263.67V92.8182ZM-183.719 91.8182V390H-181.719V91.8182H-183.719ZM-182.719 389H-263.67V391H-182.719V389ZM-262.67 390V273.523H-264.67V390H-262.67ZM-263.67 272.523H-370.83V274.523H-263.67V272.523ZM-371.83 273.523V390H-369.83V273.523H-371.83ZM-370.83 389H-451.781V391H-370.83V389ZM32.1818 91.8182V90.8182H31.1818V91.8182H32.1818ZM113.134 91.8182H114.134V90.8182H113.134V91.8182ZM96.8267 341.808L95.9902 341.26L95.9894 341.261L96.8267 341.808ZM51.6918 380.099L52.1114 381.007L52.1152 381.005L51.6918 380.099ZM-83.1307 380.099L-83.5541 381.005L-83.5503 381.007L-83.1307 380.099ZM-128.266 341.808L-129.107 342.349L-129.103 342.354L-128.266 341.808ZM-144.281 91.8182V90.8182H-145.281V91.8182H-144.281ZM-63.3295 91.8182H-62.3295V90.8182H-63.3295V91.8182ZM-57.2145 300.604L-58.087 301.092L-58.0842 301.097L-57.2145 300.604ZM-40.3253 317.493L-40.8189 318.363L-40.8139 318.365L-40.3253 317.493ZM9.17755 317.493L9.67117 318.363L9.17755 317.493ZM26.0668 300.604L26.9365 301.097L26.9393 301.092L26.0668 300.604ZM32.1818 92.8182H113.134V90.8182H32.1818V92.8182ZM112.134 91.8182V282.841H114.134V91.8182H112.134ZM112.134 282.841C112.134 305.388 106.74 324.847 95.9902 341.26L97.6633 342.355C108.656 325.572 114.134 305.72 114.134 282.841H112.134ZM95.9894 341.261C85.3254 357.593 70.4298 370.239 51.2684 379.193L52.1152 381.005C71.5853 371.906 86.7797 359.024 97.664 342.354L95.9894 341.261ZM51.2722 379.192C32.1115 388.05 9.83765 392.494 -15.5739 392.494V394.494C10.0705 394.494 32.6404 390.009 52.1114 381.007L51.2722 379.192ZM-15.5739 392.494C-41.1807 392.494 -63.5513 388.049 -82.711 379.192L-83.5503 381.007C-64.0784 390.009 -41.4111 394.494 -15.5739 394.494V392.494ZM-82.7073 379.193C-101.869 370.239 -116.764 357.593 -127.428 341.261L-129.103 342.354C-118.219 359.024 -103.024 371.906 -83.5541 381.005L-82.7073 379.193ZM-127.425 341.267C-137.983 324.853 -143.281 305.392 -143.281 282.841H-145.281C-145.281 305.716 -139.902 325.566 -129.107 342.349L-127.425 341.267ZM-143.281 282.841V91.8182H-145.281V282.841H-143.281ZM-144.281 92.8182H-63.3295V90.8182H-144.281V92.8182ZM-64.3295 91.8182V275.852H-62.3295V91.8182H-64.3295ZM-64.3295 275.852C-64.3295 285.226 -62.2559 293.648 -58.087 301.092L-56.342 300.115C-60.3265 293 -62.3295 284.921 -62.3295 275.852H-64.3295ZM-58.0842 301.097C-53.9183 308.437 -48.1587 314.197 -40.8189 318.363L-39.8317 316.623C-46.8574 312.636 -52.3572 307.136 -56.3448 300.11L-58.0842 301.097ZM-40.8139 318.365C-33.3695 322.534 -24.9477 324.608 -15.5739 324.608V322.608C-24.6423 322.608 -32.7214 320.605 -39.8367 316.62L-40.8139 318.365ZM-15.5739 324.608C-6.10522 324.608 2.3194 322.535 9.67117 318.363L8.68396 316.623C1.67017 320.604 -6.40613 322.608 -15.5739 322.608V324.608ZM9.67117 318.363C17.0109 314.197 22.7706 308.437 26.9365 301.097L25.1971 300.11C21.2095 307.136 15.7097 312.636 8.68396 316.623L9.67117 318.363ZM26.9393 301.092C31.1081 293.648 33.1818 285.226 33.1818 275.852H31.1818C31.1818 284.921 29.1788 293 25.1943 300.115L26.9393 301.092ZM33.1818 275.852V91.8182H31.1818V275.852H33.1818ZM151.607 390H150.607V391H151.607V390ZM151.607 91.8182V90.8182H150.607V91.8182H151.607ZM338.117 100.991L337.748 101.92L337.75 101.921L338.117 100.991ZM373.205 126.907L372.388 127.483L372.391 127.488L373.205 126.907ZM377.865 196.357L376.984 195.883L376.98 195.89L377.865 196.357ZM357.772 219.07L358.344 219.89L358.35 219.886L357.772 219.07ZM327.488 231.591L327.29 230.611L326.488 230.772V231.591H327.488ZM327.488 234.503H326.488V235.466L327.45 235.502L327.488 234.503ZM362.431 244.258L361.933 245.125L361.94 245.129L362.431 244.258ZM387.474 268.864L386.614 269.373L386.616 269.377L387.474 268.864ZM383.98 349.087L383.149 348.53L383.147 348.534L383.98 349.087ZM347.872 379.08L347.449 378.174L347.872 379.08ZM232.559 325.355H231.559V326.355H232.559V325.355ZM300.99 317.784L301.586 318.587L301.593 318.581L300.99 317.784ZM292.691 266.243L292.293 267.16L292.298 267.163L292.691 266.243ZM232.559 262.457V261.457H231.559V262.457H232.559ZM232.559 212.372H231.559V213.372H232.559V212.372ZM284.537 209.023L284.917 209.948L284.537 209.023ZM297.204 199.414L296.395 198.826L296.393 198.829L297.204 199.414ZM291.963 162.724L291.362 163.524L291.37 163.529L291.963 162.724ZM232.559 155.298V154.298H231.559V155.298H232.559ZM152.607 390V91.8182H150.607V390H152.607ZM151.607 92.8182H280.897V90.8182H151.607V92.8182ZM280.897 92.8182C303.528 92.8182 322.467 95.8655 337.748 101.92L338.485 100.061C322.9 93.8859 303.693 90.8182 280.897 90.8182V92.8182ZM337.75 101.921C353.14 107.981 364.661 116.513 372.388 127.483L374.023 126.331C366.025 114.977 354.154 106.231 338.483 100.06L337.75 101.921ZM372.391 127.488C380.217 138.463 384.144 151.407 384.144 166.364H386.144C386.144 151.036 382.112 137.676 374.02 126.326L372.391 127.488ZM384.144 166.364C384.144 177.179 381.753 187.012 376.984 195.883L378.745 196.83C383.682 187.647 386.144 177.485 386.144 166.364H384.144ZM376.98 195.89C372.3 204.773 365.71 212.226 357.194 218.253L358.35 219.886C367.112 213.683 373.917 205.994 378.749 196.823L376.98 195.89ZM357.201 218.249C348.687 224.18 338.723 228.305 327.29 230.611L327.686 232.571C339.355 230.218 349.58 225.995 358.344 219.89L357.201 218.249ZM326.488 231.591V234.503H328.488V231.591H326.488ZM327.45 235.502C340.111 235.982 351.599 239.193 361.933 245.125L362.929 243.391C352.297 237.287 340.49 233.995 327.526 233.504L327.45 235.502ZM361.94 245.129C372.268 250.962 380.49 259.039 386.614 269.373L388.334 268.354C382.034 257.722 373.56 249.395 362.923 243.387L361.94 245.129ZM386.616 269.377C392.721 279.584 395.792 291.631 395.792 305.554H397.792C397.792 291.329 394.651 278.915 388.332 268.35L386.616 269.377ZM395.792 305.554C395.792 321.676 391.573 335.99 383.149 348.53L384.81 349.645C393.469 336.754 397.792 322.046 397.792 305.554H395.792ZM383.147 348.534C374.816 361.077 362.932 370.961 347.449 378.174L348.294 379.987C364.066 372.639 376.253 362.528 384.813 349.641L383.147 348.534ZM347.449 378.174C331.984 385.378 313.498 389 291.963 389V391C313.718 391 332.505 387.342 348.294 379.987L347.449 378.174ZM291.963 389H151.607V391H291.963V389ZM232.559 326.355H270.414V324.355H232.559V326.355ZM270.414 326.355C284.098 326.355 294.543 323.819 301.586 318.587L300.393 316.981C293.848 321.844 283.909 324.355 270.414 324.355V326.355ZM301.593 318.581C308.682 313.214 312.181 305.321 312.181 295.071H310.181C310.181 304.817 306.886 312.066 300.386 316.987L301.593 318.581ZM312.181 295.071C312.181 287.927 310.542 281.805 307.211 276.757L305.542 277.859C308.617 282.518 310.181 288.238 310.181 295.071H312.181ZM307.211 276.757C303.889 271.723 299.164 267.915 293.083 265.323L292.298 267.163C298.059 269.618 302.458 273.187 305.542 277.859L307.211 276.757ZM293.088 265.325C287.107 262.734 279.927 261.457 271.579 261.457V263.457C279.732 263.457 286.626 264.705 292.293 267.16L293.088 265.325ZM271.579 261.457H232.559V263.457H271.579V261.457ZM231.559 262.457V325.355H233.559V262.457H231.559ZM232.559 213.372H265.755V211.372H232.559V213.372ZM265.755 213.372C272.945 213.372 279.339 212.24 284.917 209.948L284.157 208.098C278.864 210.272 272.737 211.372 265.755 211.372V213.372ZM284.917 209.948C290.5 207.655 294.882 204.345 298.015 199.999L296.393 198.829C293.508 202.831 289.445 205.927 284.157 208.098L284.917 209.948ZM298.013 200.002C301.262 195.534 302.863 190.127 302.863 183.835H300.863C300.863 189.774 299.358 194.752 296.395 198.826L298.013 200.002ZM302.863 183.835C302.863 174.342 299.446 166.985 292.555 161.918L291.37 163.529C297.679 168.168 300.863 174.886 300.863 183.835H302.863ZM292.563 161.924C285.753 156.817 277.182 154.298 266.92 154.298V156.298C276.848 156.298 284.971 158.73 291.363 163.524L292.563 161.924ZM266.92 154.298H232.559V156.298H266.92V154.298ZM231.559 155.298V212.372H233.559V155.298H231.559ZM426.057 390H425.057V391H426.057V390ZM426.057 331.761L425.42 330.991L425.057 331.291V331.761H426.057ZM537.293 239.744L537.93 240.515L537.931 240.514L537.293 239.744ZM556.22 222.564L555.507 221.863L555.507 221.863L556.22 222.564ZM568.45 205.82L567.559 205.367L567.553 205.379L568.45 205.82ZM567.868 167.092L567.006 167.599L567.013 167.611L567.868 167.092ZM554.473 154.57L554.008 155.456L554.02 155.462L554.473 154.57ZM514.871 154.57L514.406 153.685L514.4 153.688L514.871 154.57ZM501.767 167.82L500.885 167.349V167.349L501.767 167.82ZM497.108 189.077V190.077H498.108V189.077H497.108ZM420.233 189.077H419.233V190.077H420.233V189.077ZM434.356 134.915L433.507 134.387L434.356 134.915ZM474.249 99.9716L474.678 100.875L474.249 99.9716ZM596.696 99.2436L596.294 100.159L596.3 100.162L596.696 99.2436ZM637.318 131.275L636.495 131.843L636.497 131.847L637.318 131.275ZM644.598 213.974L645.519 214.363L645.52 214.36L644.598 213.974ZM618.973 251.392L619.716 252.061L618.973 251.392ZM566.412 300.312L567.052 301.081L566.412 300.312ZM538.458 323.608L537.817 322.84L537.458 323.14V323.608H538.458ZM538.458 325.355H537.458V326.355H538.458V325.355ZM654.935 325.355H655.935V324.355H654.935V325.355ZM654.935 390V391H655.935V390H654.935ZM427.057 390V331.761H425.057V390H427.057ZM426.694 332.532L537.93 240.515L536.655 238.974L425.42 330.991L426.694 332.532ZM537.931 240.514C545.327 234.383 551.663 228.633 556.934 223.265L555.507 221.863C550.295 227.172 544.012 232.875 536.655 238.974L537.931 240.514ZM556.934 223.265C562.333 217.767 566.478 212.101 569.348 206.261L567.553 205.379C564.793 210.994 560.785 216.489 555.507 221.863L556.934 223.265ZM569.342 206.274C572.331 200.394 573.818 193.879 573.818 186.747H571.818C571.818 193.592 570.393 199.793 567.559 205.367L569.342 206.274ZM573.818 186.747C573.818 178.934 572.136 172.194 568.723 166.573L567.013 167.611C570.201 172.86 571.818 179.224 571.818 186.747H573.818ZM568.73 166.584C565.428 160.981 560.82 156.676 554.926 153.679L554.02 155.462C559.58 158.289 563.902 162.331 567.007 167.599L568.73 166.584ZM554.938 153.685C549.047 150.59 542.283 149.057 534.672 149.057V151.057C542.009 151.057 548.446 152.533 554.008 155.456L554.938 153.685ZM534.672 149.057C527.061 149.057 520.297 150.59 514.406 153.685L515.336 155.456C520.899 152.533 527.335 151.057 534.672 151.057V149.057ZM514.4 153.688C508.589 156.794 504.081 161.357 500.885 167.349L502.65 168.29C505.666 162.635 509.893 158.365 515.342 155.452L514.4 153.688ZM500.885 167.349C497.684 173.351 496.108 180.608 496.108 189.077H498.108C498.108 180.851 499.639 173.936 502.65 168.29L500.885 167.349ZM497.108 188.077H420.233V190.077H497.108V188.077ZM421.233 189.077C421.233 168.264 425.905 150.4 435.205 135.443L433.507 134.387C423.977 149.713 419.233 167.957 419.233 189.077H421.233ZM435.205 135.443C444.512 120.475 457.659 108.952 474.678 100.875L473.821 99.0682C456.479 107.298 443.03 119.071 433.507 134.387L435.205 135.443ZM474.678 100.875C491.699 92.7974 511.688 88.7415 534.672 88.7415V86.7415C511.454 86.7415 491.161 90.839 473.821 99.0682L474.678 100.875ZM534.672 88.7415C558.445 88.7415 578.977 92.5589 596.294 100.159L597.098 98.3279C579.472 90.5921 558.655 86.7415 534.672 86.7415V88.7415ZM596.3 100.162C613.722 107.669 627.104 118.235 636.495 131.843L638.141 130.707C628.507 116.748 614.808 105.96 597.092 98.3252L596.3 100.162ZM636.497 131.847C645.978 145.445 650.732 161.402 650.732 179.759H652.732C652.732 161.037 647.876 144.671 638.138 130.703L636.497 131.847ZM650.732 179.759C650.732 191.07 648.384 202.344 643.675 213.587L645.52 214.36C650.323 202.89 652.732 191.354 652.732 179.759H650.732ZM643.676 213.585C638.98 224.703 630.516 237.082 618.229 250.723L619.716 252.061C632.083 238.33 640.703 225.763 645.519 214.363L643.676 213.585ZM618.229 250.723C605.947 264.359 588.467 280.631 565.772 299.544L567.052 301.081C589.783 282.139 607.343 265.797 619.716 252.061L618.229 250.723ZM565.772 299.544L537.817 322.84L539.098 324.376L567.052 301.081L565.772 299.544ZM537.458 323.608V325.355H539.458V323.608H537.458ZM538.458 326.355H654.935V324.355H538.458V326.355ZM653.935 325.355V390H655.935V325.355H653.935ZM654.935 389H426.057V391H654.935V389ZM772.213 390H771.213V391H772.213V390ZM772.213 91.8182V90.8182H771.213V91.8182H772.213ZM853.165 91.8182H854.165V90.8182H853.165V91.8182ZM853.165 208.295H852.165V209.295H853.165V208.295ZM960.324 208.295V209.295H961.324V208.295H960.324ZM960.324 91.8182V90.8182H959.324V91.8182H960.324ZM1041.28 91.8182H1042.28V90.8182H1041.28V91.8182ZM1041.28 390V391H1042.28V390H1041.28ZM960.324 390H959.324V391H960.324V390ZM960.324 273.523H961.324V272.523H960.324V273.523ZM853.165 273.523V272.523H852.165V273.523H853.165ZM853.165 390V391H854.165V390H853.165ZM773.213 390V91.8182H771.213V390H773.213ZM772.213 92.8182H853.165V90.8182H772.213V92.8182ZM852.165 91.8182V208.295H854.165V91.8182H852.165ZM853.165 209.295H960.324V207.295H853.165V209.295ZM961.324 208.295V91.8182H959.324V208.295H961.324ZM960.324 92.8182H1041.28V90.8182H960.324V92.8182ZM1040.28 91.8182V390H1042.28V91.8182H1040.28ZM1041.28 389H960.324V391H1041.28V389ZM961.324 390V273.523H959.324V390H961.324ZM960.324 272.523H853.165V274.523H960.324V272.523ZM852.165 273.523V390H854.165V273.523H852.165ZM853.165 389H772.213V391H853.165V389ZM1256.18 91.8182V90.8182H1255.18V91.8182H1256.18ZM1337.13 91.8182H1338.13V90.8182H1337.13V91.8182ZM1320.82 341.808L1319.98 341.26L1319.98 341.261L1320.82 341.808ZM1275.69 380.099L1276.11 381.007L1276.11 381.005L1275.69 380.099ZM1140.86 380.099L1140.44 381.005L1140.44 381.007L1140.86 380.099ZM1095.73 341.808L1094.89 342.349L1094.89 342.354L1095.73 341.808ZM1079.71 91.8182V90.8182H1078.71V91.8182H1079.71ZM1160.66 91.8182H1161.66V90.8182H1160.66V91.8182ZM1166.78 300.604L1165.91 301.092L1165.91 301.097L1166.78 300.604ZM1183.67 317.493L1183.18 318.363L1183.18 318.365L1183.67 317.493ZM1233.17 317.493L1233.67 318.363L1233.17 317.493ZM1250.06 300.604L1250.93 301.097L1250.93 301.092L1250.06 300.604ZM1256.18 92.8182H1337.13V90.8182H1256.18V92.8182ZM1336.13 91.8182V282.841H1338.13V91.8182H1336.13ZM1336.13 282.841C1336.13 305.388 1330.73 324.847 1319.98 341.26L1321.66 342.355C1332.65 325.572 1338.13 305.72 1338.13 282.841H1336.13ZM1319.98 341.261C1309.32 357.593 1294.42 370.239 1275.26 379.193L1276.11 381.005C1295.58 371.906 1310.77 359.024 1321.66 342.354L1319.98 341.261ZM1275.27 379.192C1256.11 388.05 1233.83 392.494 1208.42 392.494V394.494C1234.06 394.494 1256.63 390.009 1276.11 381.007L1275.27 379.192ZM1208.42 392.494C1182.81 392.494 1160.44 388.049 1141.28 379.192L1140.44 381.007C1159.92 390.009 1182.58 394.494 1208.42 394.494V392.494ZM1141.29 379.193C1122.13 370.239 1107.23 357.593 1096.57 341.261L1094.89 342.354C1105.78 359.024 1120.97 371.906 1140.44 381.005L1141.29 379.193ZM1096.57 341.267C1086.01 324.853 1080.71 305.392 1080.71 282.841H1078.71C1078.71 305.716 1084.09 325.566 1094.89 342.349L1096.57 341.267ZM1080.71 282.841V91.8182H1078.71V282.841H1080.71ZM1079.71 92.8182H1160.66V90.8182H1079.71V92.8182ZM1159.66 91.8182V275.852H1161.66V91.8182H1159.66ZM1159.66 275.852C1159.66 285.226 1161.74 293.648 1165.91 301.092L1167.65 300.115C1163.67 293 1161.66 284.921 1161.66 275.852H1159.66ZM1165.91 301.097C1170.08 308.437 1175.84 314.197 1183.18 318.363L1184.16 316.623C1177.14 312.636 1171.64 307.136 1167.65 300.11L1165.91 301.097ZM1183.18 318.365C1190.62 322.534 1199.05 324.608 1208.42 324.608V322.608C1199.35 322.608 1191.27 320.605 1184.16 316.62L1183.18 318.365ZM1208.42 324.608C1217.89 324.608 1226.31 322.535 1233.67 318.363L1232.68 316.623C1225.66 320.604 1217.59 322.608 1208.42 322.608V324.608ZM1233.67 318.363C1241.01 314.197 1246.76 308.437 1250.93 301.097L1249.19 300.11C1245.2 307.136 1239.7 312.636 1232.68 316.623L1233.67 318.363ZM1250.93 301.092C1255.1 293.648 1257.18 285.226 1257.18 275.852H1255.18C1255.18 284.921 1253.17 293 1249.19 300.115L1250.93 301.092ZM1257.18 275.852V91.8182H1255.18V275.852H1257.18ZM1375.6 390H1374.6V391H1375.6V390ZM1375.6 91.8182V90.8182H1374.6V91.8182H1375.6ZM1562.11 100.991L1561.74 101.92L1561.74 101.921L1562.11 100.991ZM1597.2 126.907L1596.38 127.483L1596.39 127.488L1597.2 126.907ZM1601.86 196.357L1600.98 195.883L1600.97 195.89L1601.86 196.357ZM1581.77 219.07L1582.34 219.89L1582.34 219.886L1581.77 219.07ZM1551.48 231.591L1551.28 230.611L1550.48 230.772V231.591H1551.48ZM1551.48 234.503H1550.48V235.466L1551.44 235.502L1551.48 234.503ZM1586.43 244.258L1585.93 245.125L1585.93 245.129L1586.43 244.258ZM1611.47 268.864L1610.61 269.373L1610.61 269.377L1611.47 268.864ZM1607.97 349.087L1607.14 348.53L1607.14 348.534L1607.97 349.087ZM1571.87 379.08L1571.44 378.174L1571.87 379.08ZM1456.55 325.355H1455.55V326.355H1456.55V325.355ZM1524.98 317.784L1525.58 318.587L1525.59 318.581L1524.98 317.784ZM1516.68 266.243L1516.29 267.16L1516.29 267.163L1516.68 266.243ZM1456.55 262.457V261.457H1455.55V262.457H1456.55ZM1456.55 212.372H1455.55V213.372H1456.55V212.372ZM1508.53 209.023L1508.91 209.948L1508.53 209.023ZM1521.2 199.414L1520.39 198.826L1520.39 198.829L1521.2 199.414ZM1515.96 162.724L1515.36 163.524L1515.36 163.529L1515.96 162.724ZM1456.55 155.298V154.298H1455.55V155.298H1456.55ZM1376.6 390V91.8182H1374.6V390H1376.6ZM1375.6 92.8182H1504.89V90.8182H1375.6V92.8182ZM1504.89 92.8182C1527.52 92.8182 1546.46 95.8655 1561.74 101.92L1562.48 100.061C1546.89 93.8859 1527.69 90.8182 1504.89 90.8182V92.8182ZM1561.74 101.921C1577.13 107.981 1588.66 116.513 1596.38 127.483L1598.02 126.331C1590.02 114.977 1578.15 106.231 1562.48 100.06L1561.74 101.921ZM1596.39 127.488C1604.21 138.463 1608.14 151.407 1608.14 166.364H1610.14C1610.14 151.036 1606.11 137.676 1598.01 126.326L1596.39 127.488ZM1608.14 166.364C1608.14 177.179 1605.75 187.012 1600.98 195.883L1602.74 196.83C1607.68 187.647 1610.14 177.485 1610.14 166.364H1608.14ZM1600.97 195.89C1596.29 204.773 1589.7 212.226 1581.19 218.253L1582.34 219.886C1591.11 213.683 1597.91 205.994 1602.74 196.823L1600.97 195.89ZM1581.19 218.249C1572.68 224.18 1562.72 228.305 1551.28 230.611L1551.68 232.571C1563.35 230.218 1573.57 225.995 1582.34 219.89L1581.19 218.249ZM1550.48 231.591V234.503H1552.48V231.591H1550.48ZM1551.44 235.502C1564.11 235.982 1575.59 239.193 1585.93 245.125L1586.92 243.391C1576.29 237.287 1564.48 233.995 1551.52 233.504L1551.44 235.502ZM1585.93 245.129C1596.26 250.962 1604.48 259.039 1610.61 269.373L1612.33 268.354C1606.03 257.722 1597.55 249.395 1586.92 243.387L1585.93 245.129ZM1610.61 269.377C1616.71 279.584 1619.79 291.631 1619.79 305.554H1621.79C1621.79 291.329 1618.65 278.915 1612.33 268.35L1610.61 269.377ZM1619.79 305.554C1619.79 321.676 1615.57 335.99 1607.14 348.53L1608.8 349.645C1617.46 336.754 1621.79 322.046 1621.79 305.554H1619.79ZM1607.14 348.534C1598.81 361.077 1586.93 370.961 1571.44 378.174L1572.29 379.987C1588.06 372.639 1600.25 362.528 1608.81 349.641L1607.14 348.534ZM1571.44 378.174C1555.98 385.378 1537.49 389 1515.96 389V391C1537.71 391 1556.5 387.342 1572.29 379.987L1571.44 378.174ZM1515.96 389H1375.6V391H1515.96V389ZM1456.55 326.355H1494.41V324.355H1456.55V326.355ZM1494.41 326.355C1508.09 326.355 1518.54 323.819 1525.58 318.587L1524.39 316.981C1517.84 321.844 1507.9 324.355 1494.41 324.355V326.355ZM1525.59 318.581C1532.68 313.214 1536.18 305.321 1536.18 295.071H1534.18C1534.18 304.817 1530.88 312.066 1524.38 316.987L1525.59 318.581ZM1536.18 295.071C1536.18 287.927 1534.54 281.805 1531.21 276.757L1529.54 277.859C1532.61 282.518 1534.18 288.238 1534.18 295.071H1536.18ZM1531.21 276.757C1527.88 271.723 1523.16 267.915 1517.08 265.323L1516.29 267.163C1522.05 269.618 1526.45 273.187 1529.54 277.859L1531.21 276.757ZM1517.08 265.325C1511.1 262.734 1503.92 261.457 1495.57 261.457V263.457C1503.73 263.457 1510.62 264.705 1516.29 267.16L1517.08 265.325ZM1495.57 261.457H1456.55V263.457H1495.57V261.457ZM1455.55 262.457V325.355H1457.55V262.457H1455.55ZM1456.55 213.372H1489.75V211.372H1456.55V213.372ZM1489.75 213.372C1496.94 213.372 1503.33 212.24 1508.91 209.948L1508.15 208.098C1502.86 210.272 1496.73 211.372 1489.75 211.372V213.372ZM1508.91 209.948C1514.49 207.655 1518.88 204.345 1522.01 199.999L1520.39 198.829C1517.5 202.831 1513.44 205.927 1508.15 208.098L1508.91 209.948ZM1522.01 200.002C1525.26 195.534 1526.86 190.127 1526.86 183.835H1524.86C1524.86 189.774 1523.35 194.752 1520.39 198.826L1522.01 200.002ZM1526.86 183.835C1526.86 174.342 1523.44 166.985 1516.55 161.918L1515.36 163.529C1521.67 168.168 1524.86 174.886 1524.86 183.835H1526.86ZM1516.56 161.924C1509.75 156.817 1501.18 154.298 1490.91 154.298V156.298C1500.84 156.298 1508.97 158.73 1515.36 163.524L1516.56 161.924ZM1490.91 154.298H1456.55V156.298H1490.91V154.298ZM1455.55 155.298V212.372H1457.55V155.298H1455.55ZM1650.05 390H1649.05V391H1650.05V390ZM1650.05 331.761L1649.41 330.991L1649.05 331.291V331.761H1650.05ZM1761.29 239.744L1761.92 240.515L1761.93 240.514L1761.29 239.744ZM1780.21 222.564L1779.5 221.863V221.863L1780.21 222.564ZM1792.44 205.82L1791.55 205.367L1791.55 205.379L1792.44 205.82ZM1791.86 167.092L1791 167.599L1791.01 167.611L1791.86 167.092ZM1778.47 154.57L1778 155.456L1778.01 155.462L1778.47 154.57ZM1738.86 154.57L1738.4 153.685L1738.39 153.688L1738.86 154.57ZM1725.76 167.82L1724.88 167.349V167.349L1725.76 167.82ZM1721.1 189.077V190.077H1722.1V189.077H1721.1ZM1644.23 189.077H1643.23V190.077H1644.23V189.077ZM1658.35 134.915L1657.5 134.387L1658.35 134.915ZM1698.24 99.9716L1698.67 100.875L1698.24 99.9716ZM1820.69 99.2436L1820.29 100.159L1820.29 100.162L1820.69 99.2436ZM1861.31 131.275L1860.49 131.843L1860.49 131.847L1861.31 131.275ZM1868.59 213.974L1869.51 214.363L1869.51 214.36L1868.59 213.974ZM1842.97 251.392L1843.71 252.061L1842.97 251.392ZM1790.41 300.312L1791.05 301.081L1790.41 300.312ZM1762.45 323.608L1761.81 322.84L1761.45 323.14V323.608H1762.45ZM1762.45 325.355H1761.45V326.355H1762.45V325.355ZM1878.93 325.355H1879.93V324.355H1878.93V325.355ZM1878.93 390V391H1879.93V390H1878.93ZM1651.05 390V331.761H1649.05V390H1651.05ZM1650.69 332.532L1761.92 240.515L1760.65 238.974L1649.41 330.991L1650.69 332.532ZM1761.93 240.514C1769.32 234.383 1775.66 228.633 1780.93 223.265L1779.5 221.863C1774.29 227.172 1768.01 232.875 1760.65 238.974L1761.93 240.514ZM1780.93 223.265C1786.33 217.767 1790.47 212.101 1793.34 206.261L1791.55 205.379C1788.79 210.994 1784.78 216.489 1779.5 221.863L1780.93 223.265ZM1793.34 206.274C1796.33 200.394 1797.81 193.879 1797.81 186.747H1795.81C1795.81 193.592 1794.39 199.793 1791.55 205.367L1793.34 206.274ZM1797.81 186.747C1797.81 178.934 1796.13 172.194 1792.72 166.573L1791.01 167.611C1794.19 172.86 1795.81 179.224 1795.81 186.747H1797.81ZM1792.72 166.584C1789.42 160.981 1784.81 156.676 1778.92 153.679L1778.01 155.462C1783.57 158.289 1787.9 162.331 1791 167.599L1792.72 166.584ZM1778.93 153.685C1773.04 150.59 1766.28 149.057 1758.67 149.057V151.057C1766 151.057 1772.44 152.533 1778 155.456L1778.93 153.685ZM1758.67 149.057C1751.06 149.057 1744.29 150.59 1738.4 153.685L1739.33 155.456C1744.89 152.533 1751.33 151.057 1758.67 151.057V149.057ZM1738.39 153.688C1732.58 156.794 1728.07 161.357 1724.88 167.349L1726.64 168.29C1729.66 162.635 1733.89 158.365 1739.34 155.452L1738.39 153.688ZM1724.88 167.349C1721.68 173.351 1720.1 180.608 1720.1 189.077H1722.1C1722.1 180.851 1723.63 173.936 1726.64 168.29L1724.88 167.349ZM1721.1 188.077H1644.23V190.077H1721.1V188.077ZM1645.23 189.077C1645.23 168.264 1649.9 150.4 1659.2 135.443L1657.5 134.387C1647.97 149.713 1643.23 167.957 1643.23 189.077H1645.23ZM1659.2 135.443C1668.51 120.475 1681.65 108.952 1698.67 100.875L1697.81 99.0682C1680.47 107.298 1667.02 119.071 1657.5 134.387L1659.2 135.443ZM1698.67 100.875C1715.69 92.7974 1735.68 88.7415 1758.67 88.7415V86.7415C1735.45 86.7415 1715.15 90.839 1697.81 99.0682L1698.67 100.875ZM1758.67 88.7415C1782.44 88.7415 1802.97 92.5589 1820.29 100.159L1821.09 98.3279C1803.47 90.5921 1782.65 86.7415 1758.67 86.7415V88.7415ZM1820.29 100.162C1837.72 107.669 1851.1 118.235 1860.49 131.843L1862.13 130.707C1852.5 116.748 1838.8 105.96 1821.09 98.3252L1820.29 100.162ZM1860.49 131.847C1869.97 145.445 1874.73 161.402 1874.73 179.759H1876.73C1876.73 161.037 1871.87 144.671 1862.13 130.703L1860.49 131.847ZM1874.73 179.759C1874.73 191.07 1872.38 202.344 1867.67 213.587L1869.51 214.36C1874.32 202.89 1876.73 191.354 1876.73 179.759H1874.73ZM1867.67 213.585C1862.97 224.703 1854.51 237.082 1842.22 250.723L1843.71 252.061C1856.08 238.33 1864.7 225.763 1869.51 214.363L1867.67 213.585ZM1842.22 250.723C1829.94 264.359 1812.46 280.631 1789.77 299.544L1791.05 301.081C1813.78 282.139 1831.34 265.797 1843.71 252.061L1842.22 250.723ZM1789.77 299.544L1761.81 322.84L1763.09 324.376L1791.05 301.081L1789.77 299.544ZM1761.45 323.608V325.355H1763.45V323.608H1761.45ZM1762.45 326.355H1878.93V324.355H1762.45V326.355ZM1877.93 325.355V390H1879.93V325.355H1877.93ZM1878.93 389H1650.05V391H1878.93V389ZM-451.781 689H-452.781V690H-451.781V689ZM-451.781 390.818V389.818H-452.781V390.818H-451.781ZM-370.83 390.818H-369.83V389.818H-370.83V390.818ZM-370.83 507.295H-371.83V508.295H-370.83V507.295ZM-263.67 507.295V508.295H-262.67V507.295H-263.67ZM-263.67 390.818V389.818H-264.67V390.818H-263.67ZM-182.719 390.818H-181.719V389.818H-182.719V390.818ZM-182.719 689V690H-181.719V689H-182.719ZM-263.67 689H-264.67V690H-263.67V689ZM-263.67 572.523H-262.67V571.523H-263.67V572.523ZM-370.83 572.523V571.523H-371.83V572.523H-370.83ZM-370.83 689V690H-369.83V689H-370.83ZM-450.781 689V390.818H-452.781V689H-450.781ZM-451.781 391.818H-370.83V389.818H-451.781V391.818ZM-371.83 390.818V507.295H-369.83V390.818H-371.83ZM-370.83 508.295H-263.67V506.295H-370.83V508.295ZM-262.67 507.295V390.818H-264.67V507.295H-262.67ZM-263.67 391.818H-182.719V389.818H-263.67V391.818ZM-183.719 390.818V689H-181.719V390.818H-183.719ZM-182.719 688H-263.67V690H-182.719V688ZM-262.67 689V572.523H-264.67V689H-262.67ZM-263.67 571.523H-370.83V573.523H-263.67V571.523ZM-371.83 572.523V689H-369.83V572.523H-371.83ZM-370.83 688H-451.781V690H-370.83V688ZM32.1818 390.818V389.818H31.1818V390.818H32.1818ZM113.134 390.818H114.134V389.818H113.134V390.818ZM96.8267 640.808L95.9902 640.26L95.9894 640.261L96.8267 640.808ZM51.6918 679.099L52.1114 680.007L52.1152 680.005L51.6918 679.099ZM-83.1307 679.099L-83.5541 680.005L-83.5503 680.007L-83.1307 679.099ZM-128.266 640.808L-129.107 641.349L-129.103 641.354L-128.266 640.808ZM-144.281 390.818V389.818H-145.281V390.818H-144.281ZM-63.3295 390.818H-62.3295V389.818H-63.3295V390.818ZM-57.2145 599.604L-58.087 600.092L-58.0842 600.097L-57.2145 599.604ZM-40.3253 616.493L-40.8189 617.363L-40.8139 617.365L-40.3253 616.493ZM9.17755 616.493L9.67117 617.363L9.17755 616.493ZM26.0668 599.604L26.9365 600.097L26.9393 600.092L26.0668 599.604ZM32.1818 391.818H113.134V389.818H32.1818V391.818ZM112.134 390.818V581.841H114.134V390.818H112.134ZM112.134 581.841C112.134 604.388 106.74 623.847 95.9902 640.26L97.6633 641.355C108.656 624.572 114.134 604.72 114.134 581.841H112.134ZM95.9894 640.261C85.3254 656.593 70.4298 669.239 51.2684 678.193L52.1152 680.005C71.5853 670.906 86.7797 658.024 97.664 641.354L95.9894 640.261ZM51.2722 678.192C32.1115 687.05 9.83765 691.494 -15.5739 691.494V693.494C10.0705 693.494 32.6404 689.009 52.1114 680.007L51.2722 678.192ZM-15.5739 691.494C-41.1807 691.494 -63.5513 687.049 -82.711 678.192L-83.5503 680.007C-64.0784 689.009 -41.4111 693.494 -15.5739 693.494V691.494ZM-82.7073 678.193C-101.869 669.239 -116.764 656.593 -127.428 640.261L-129.103 641.354C-118.219 658.024 -103.024 670.906 -83.5541 680.005L-82.7073 678.193ZM-127.425 640.267C-137.983 623.853 -143.281 604.392 -143.281 581.841H-145.281C-145.281 604.716 -139.902 624.566 -129.107 641.349L-127.425 640.267ZM-143.281 581.841V390.818H-145.281V581.841H-143.281ZM-144.281 391.818H-63.3295V389.818H-144.281V391.818ZM-64.3295 390.818V574.852H-62.3295V390.818H-64.3295ZM-64.3295 574.852C-64.3295 584.226 -62.2559 592.648 -58.087 600.092L-56.342 599.115C-60.3265 592 -62.3295 583.921 -62.3295 574.852H-64.3295ZM-58.0842 600.097C-53.9183 607.437 -48.1587 613.197 -40.8189 617.363L-39.8317 615.623C-46.8574 611.636 -52.3572 606.136 -56.3448 599.11L-58.0842 600.097ZM-40.8139 617.365C-33.3695 621.534 -24.9477 623.608 -15.5739 623.608V621.608C-24.6423 621.608 -32.7214 619.605 -39.8367 615.62L-40.8139 617.365ZM-15.5739 623.608C-6.10522 623.608 2.3194 621.535 9.67117 617.363L8.68396 615.623C1.67017 619.604 -6.40613 621.608 -15.5739 621.608V623.608ZM9.67117 617.363C17.0109 613.197 22.7706 607.437 26.9365 600.097L25.1971 599.11C21.2095 606.136 15.7097 611.636 8.68396 615.623L9.67117 617.363ZM26.9393 600.092C31.1081 592.648 33.1818 584.226 33.1818 574.852H31.1818C31.1818 583.921 29.1788 592 25.1943 599.115L26.9393 600.092ZM33.1818 574.852V390.818H31.1818V574.852H33.1818ZM151.607 689H150.607V690H151.607V689ZM151.607 390.818V389.818H150.607V390.818H151.607ZM338.117 399.991L337.748 400.92L337.75 400.921L338.117 399.991ZM373.205 425.907L372.388 426.483L372.391 426.488L373.205 425.907ZM377.865 495.357L376.984 494.883L376.98 494.89L377.865 495.357ZM357.772 518.07L358.344 518.89L358.35 518.886L357.772 518.07ZM327.488 530.591L327.29 529.611L326.488 529.772V530.591H327.488ZM327.488 533.503H326.488V534.466L327.45 534.502L327.488 533.503ZM362.431 543.258L361.933 544.125L361.94 544.129L362.431 543.258ZM387.474 567.864L386.614 568.373L386.616 568.377L387.474 567.864ZM383.98 648.087L383.149 647.53L383.147 647.534L383.98 648.087ZM347.872 678.08L347.449 677.174L347.872 678.08ZM232.559 624.355H231.559V625.355H232.559V624.355ZM300.99 616.784L301.586 617.587L301.593 617.581L300.99 616.784ZM292.691 565.243L292.293 566.16L292.298 566.163L292.691 565.243ZM232.559 561.457V560.457H231.559V561.457H232.559ZM232.559 511.372H231.559V512.372H232.559V511.372ZM284.537 508.023L284.917 508.948L284.537 508.023ZM297.204 498.414L296.395 497.826L296.393 497.829L297.204 498.414ZM291.963 461.724L291.362 462.524L291.37 462.529L291.963 461.724ZM232.559 454.298V453.298H231.559V454.298H232.559ZM152.607 689V390.818H150.607V689H152.607ZM151.607 391.818H280.897V389.818H151.607V391.818ZM280.897 391.818C303.528 391.818 322.467 394.866 337.748 400.92L338.485 399.061C322.9 392.886 303.693 389.818 280.897 389.818V391.818ZM337.75 400.921C353.14 406.981 364.661 415.513 372.388 426.483L374.023 425.331C366.025 413.977 354.154 405.231 338.483 399.06L337.75 400.921ZM372.391 426.488C380.217 437.463 384.144 450.407 384.144 465.364H386.144C386.144 450.036 382.112 436.676 374.02 425.326L372.391 426.488ZM384.144 465.364C384.144 476.179 381.753 486.012 376.984 494.883L378.745 495.83C383.682 486.647 386.144 476.485 386.144 465.364H384.144ZM376.98 494.89C372.3 503.773 365.71 511.226 357.194 517.253L358.35 518.886C367.112 512.683 373.917 504.994 378.749 495.823L376.98 494.89ZM357.201 517.249C348.687 523.18 338.723 527.305 327.29 529.611L327.686 531.571C339.355 529.218 349.58 524.995 358.344 518.89L357.201 517.249ZM326.488 530.591V533.503H328.488V530.591H326.488ZM327.45 534.502C340.111 534.982 351.599 538.193 361.933 544.125L362.929 542.391C352.297 536.287 340.49 532.995 327.526 532.504L327.45 534.502ZM361.94 544.129C372.268 549.962 380.49 558.039 386.614 568.373L388.334 567.354C382.034 556.722 373.56 548.395 362.923 542.387L361.94 544.129ZM386.616 568.377C392.721 578.584 395.792 590.631 395.792 604.554H397.792C397.792 590.329 394.651 577.915 388.332 567.35L386.616 568.377ZM395.792 604.554C395.792 620.676 391.573 634.99 383.149 647.53L384.81 648.645C393.469 635.754 397.792 621.046 397.792 604.554H395.792ZM383.147 647.534C374.816 660.077 362.932 669.961 347.449 677.174L348.294 678.987C364.066 671.639 376.253 661.528 384.813 648.641L383.147 647.534ZM347.449 677.174C331.984 684.378 313.498 688 291.963 688V690C313.718 690 332.505 686.342 348.294 678.987L347.449 677.174ZM291.963 688H151.607V690H291.963V688ZM232.559 625.355H270.414V623.355H232.559V625.355ZM270.414 625.355C284.098 625.355 294.543 622.819 301.586 617.587L300.393 615.981C293.848 620.844 283.909 623.355 270.414 623.355V625.355ZM301.593 617.581C308.682 612.214 312.181 604.321 312.181 594.071H310.181C310.181 603.817 306.886 611.066 300.386 615.987L301.593 617.581ZM312.181 594.071C312.181 586.927 310.542 580.805 307.211 575.757L305.542 576.859C308.617 581.518 310.181 587.238 310.181 594.071H312.181ZM307.211 575.757C303.889 570.723 299.164 566.915 293.083 564.323L292.298 566.163C298.059 568.618 302.458 572.187 305.542 576.859L307.211 575.757ZM293.088 564.325C287.107 561.734 279.927 560.457 271.579 560.457V562.457C279.732 562.457 286.626 563.705 292.293 566.16L293.088 564.325ZM271.579 560.457H232.559V562.457H271.579V560.457ZM231.559 561.457V624.355H233.559V561.457H231.559ZM232.559 512.372H265.755V510.372H232.559V512.372ZM265.755 512.372C272.945 512.372 279.339 511.24 284.917 508.948L284.157 507.098C278.864 509.272 272.737 510.372 265.755 510.372V512.372ZM284.917 508.948C290.5 506.655 294.882 503.345 298.015 498.999L296.393 497.829C293.508 501.831 289.445 504.927 284.157 507.098L284.917 508.948ZM298.013 499.002C301.262 494.534 302.863 489.127 302.863 482.835H300.863C300.863 488.774 299.358 493.752 296.395 497.826L298.013 499.002ZM302.863 482.835C302.863 473.342 299.446 465.985 292.555 460.918L291.37 462.529C297.679 467.168 300.863 473.886 300.863 482.835H302.863ZM292.563 460.924C285.753 455.817 277.182 453.298 266.92 453.298V455.298C276.848 455.298 284.971 457.73 291.363 462.524L292.563 460.924ZM266.92 453.298H232.559V455.298H266.92V453.298ZM231.559 454.298V511.372H233.559V454.298H231.559ZM426.057 689H425.057V690H426.057V689ZM426.057 630.761L425.42 629.991L425.057 630.291V630.761H426.057ZM537.293 538.744L537.93 539.515L537.931 539.514L537.293 538.744ZM556.22 521.564L555.507 520.863L555.507 520.863L556.22 521.564ZM568.45 504.82L567.559 504.367L567.553 504.379L568.45 504.82ZM567.868 466.092L567.006 466.599L567.013 466.611L567.868 466.092ZM554.473 453.57L554.008 454.456L554.02 454.462L554.473 453.57ZM514.871 453.57L514.406 452.685L514.4 452.688L514.871 453.57ZM501.767 466.82L500.885 466.349L501.767 466.82ZM497.108 488.077V489.077H498.108V488.077H497.108ZM420.233 488.077H419.233V489.077H420.233V488.077ZM434.356 433.915L433.507 433.387L434.356 433.915ZM474.249 398.972L474.678 399.875L474.249 398.972ZM596.696 398.244L596.294 399.159L596.3 399.162L596.696 398.244ZM637.318 430.275L636.495 430.843L636.497 430.847L637.318 430.275ZM644.598 512.974L645.519 513.363L645.52 513.36L644.598 512.974ZM618.973 550.392L619.716 551.061L618.973 550.392ZM566.412 599.312L567.052 600.081L566.412 599.312ZM538.458 622.608L537.817 621.84L537.458 622.14V622.608H538.458ZM538.458 624.355H537.458V625.355H538.458V624.355ZM654.935 624.355H655.935V623.355H654.935V624.355ZM654.935 689V690H655.935V689H654.935ZM427.057 689V630.761H425.057V689H427.057ZM426.694 631.532L537.93 539.515L536.655 537.974L425.42 629.991L426.694 631.532ZM537.931 539.514C545.327 533.383 551.663 527.633 556.934 522.264L555.507 520.863C550.295 526.172 544.012 531.875 536.655 537.974L537.931 539.514ZM556.934 522.265C562.333 516.767 566.478 511.101 569.348 505.261L567.553 504.379C564.793 509.994 560.785 515.489 555.507 520.863L556.934 522.265ZM569.342 505.274C572.331 499.394 573.818 492.879 573.818 485.747H571.818C571.818 492.592 570.393 498.793 567.559 504.367L569.342 505.274ZM573.818 485.747C573.818 477.934 572.136 471.194 568.723 465.573L567.013 466.611C570.201 471.86 571.818 478.224 571.818 485.747H573.818ZM568.73 465.584C565.428 459.981 560.82 455.676 554.926 452.679L554.02 454.462C559.58 457.289 563.902 461.331 567.007 466.599L568.73 465.584ZM554.938 452.685C549.047 449.59 542.283 448.057 534.672 448.057V450.057C542.009 450.057 548.446 451.533 554.008 454.456L554.938 452.685ZM534.672 448.057C527.061 448.057 520.297 449.59 514.406 452.685L515.336 454.456C520.899 451.533 527.335 450.057 534.672 450.057V448.057ZM514.4 452.688C508.589 455.794 504.081 460.357 500.885 466.349L502.65 467.29C505.666 461.635 509.893 457.365 515.342 454.452L514.4 452.688ZM500.885 466.349C497.684 472.351 496.108 479.608 496.108 488.077H498.108C498.108 479.851 499.639 472.936 502.65 467.29L500.885 466.349ZM497.108 487.077H420.233V489.077H497.108V487.077ZM421.233 488.077C421.233 467.264 425.905 449.4 435.205 434.443L433.507 433.387C423.977 448.713 419.233 466.957 419.233 488.077H421.233ZM435.205 434.443C444.512 419.475 457.659 407.952 474.678 399.875L473.821 398.068C456.479 406.298 443.03 418.071 433.507 433.387L435.205 434.443ZM474.678 399.875C491.699 391.797 511.688 387.741 534.672 387.741V385.741C511.454 385.741 491.161 389.839 473.821 398.068L474.678 399.875ZM534.672 387.741C558.445 387.741 578.977 391.559 596.294 399.159L597.098 397.328C579.472 389.592 558.655 385.741 534.672 385.741V387.741ZM596.3 399.162C613.722 406.669 627.104 417.235 636.495 430.843L638.141 429.707C628.507 415.748 614.808 404.96 597.092 397.325L596.3 399.162ZM636.497 430.847C645.978 444.445 650.732 460.402 650.732 478.759H652.732C652.732 460.037 647.876 443.671 638.138 429.703L636.497 430.847ZM650.732 478.759C650.732 490.07 648.384 501.344 643.675 512.587L645.52 513.36C650.323 501.89 652.732 490.354 652.732 478.759H650.732ZM643.676 512.585C638.98 523.703 630.516 536.082 618.229 549.723L619.716 551.061C632.083 537.33 640.703 524.763 645.519 513.363L643.676 512.585ZM618.229 549.723C605.947 563.359 588.467 579.631 565.772 598.544L567.052 600.081C589.783 581.139 607.343 564.797 619.716 551.061L618.229 549.723ZM565.772 598.544L537.817 621.84L539.098 623.376L567.052 600.081L565.772 598.544ZM537.458 622.608V624.355H539.458V622.608H537.458ZM538.458 625.355H654.935V623.355H538.458V625.355ZM653.935 624.355V689H655.935V624.355H653.935ZM654.935 688H426.057V690H654.935V688ZM690.533 689H689.533V690H690.533V689ZM690.533 390.818V389.818H689.533V390.818H690.533ZM771.485 390.818H772.485V389.818H771.485V390.818ZM771.485 507.295H770.485V508.295H771.485V507.295ZM878.644 507.295V508.295H879.644V507.295H878.644ZM878.644 390.818V389.818H877.644V390.818H878.644ZM959.596 390.818H960.596V389.818H959.596V390.818ZM959.596 689V690H960.596V689H959.596ZM878.644 689H877.644V690H878.644V689ZM878.644 572.523H879.644V571.523H878.644V572.523ZM771.485 572.523V571.523H770.485V572.523H771.485ZM771.485 689V690H772.485V689H771.485ZM691.533 689V390.818H689.533V689H691.533ZM690.533 391.818H771.485V389.818H690.533V391.818ZM770.485 390.818V507.295H772.485V390.818H770.485ZM771.485 508.295H878.644V506.295H771.485V508.295ZM879.644 507.295V390.818H877.644V507.295H879.644ZM878.644 391.818H959.596V389.818H878.644V391.818ZM958.596 390.818V689H960.596V390.818H958.596ZM959.596 688H878.644V690H959.596V688ZM879.644 689V572.523H877.644V689H879.644ZM878.644 571.523H771.485V573.523H878.644V571.523ZM770.485 572.523V689H772.485V572.523H770.485ZM771.485 688H690.533V690H771.485V688ZM1174.5 390.818V389.818H1173.5V390.818H1174.5ZM1255.45 390.818H1256.45V389.818H1255.45V390.818ZM1239.14 640.808L1238.3 640.26L1238.3 640.261L1239.14 640.808ZM1194.01 679.099L1194.43 680.007L1194.43 680.005L1194.01 679.099ZM1059.18 679.099L1058.76 680.005L1058.76 680.007L1059.18 679.099ZM1014.05 640.808L1013.21 641.349L1013.21 641.354L1014.05 640.808ZM998.033 390.818V389.818H997.033V390.818H998.033ZM1078.98 390.818H1079.98V389.818H1078.98V390.818ZM1085.1 599.604L1084.23 600.092L1084.23 600.097L1085.1 599.604ZM1101.99 616.493L1101.5 617.363L1101.5 617.365L1101.99 616.493ZM1151.49 616.493L1151.99 617.363L1151.49 616.493ZM1168.38 599.604L1169.25 600.097L1169.25 600.092L1168.38 599.604ZM1174.5 391.818H1255.45V389.818H1174.5V391.818ZM1254.45 390.818V581.841H1256.45V390.818H1254.45ZM1254.45 581.841C1254.45 604.388 1249.05 623.847 1238.3 640.26L1239.98 641.355C1250.97 624.572 1256.45 604.72 1256.45 581.841H1254.45ZM1238.3 640.261C1227.64 656.593 1212.74 669.239 1193.58 678.193L1194.43 680.005C1213.9 670.906 1229.09 658.024 1239.98 641.354L1238.3 640.261ZM1193.59 678.192C1174.43 687.05 1152.15 691.494 1126.74 691.494V693.494C1152.39 693.494 1174.95 689.009 1194.43 680.007L1193.59 678.192ZM1126.74 691.494C1101.13 691.494 1078.76 687.049 1059.6 678.192L1058.76 680.007C1078.24 689.009 1100.9 693.494 1126.74 693.494V691.494ZM1059.61 678.193C1040.45 669.239 1025.55 656.593 1014.89 640.261L1013.21 641.354C1024.1 658.024 1039.29 670.906 1058.76 680.005L1059.61 678.193ZM1014.89 640.267C1004.33 623.853 999.033 604.392 999.033 581.841H997.033C997.033 604.716 1002.41 624.566 1013.21 641.349L1014.89 640.267ZM999.033 581.841V390.818H997.033V581.841H999.033ZM998.033 391.818H1078.98V389.818H998.033V391.818ZM1077.98 390.818V574.852H1079.98V390.818H1077.98ZM1077.98 574.852C1077.98 584.226 1080.06 592.648 1084.23 600.092L1085.97 599.115C1081.99 592 1079.98 583.921 1079.98 574.852H1077.98ZM1084.23 600.097C1088.4 607.437 1094.16 613.197 1101.5 617.363L1102.48 615.623C1095.46 611.636 1089.96 606.136 1085.97 599.11L1084.23 600.097ZM1101.5 617.365C1108.94 621.534 1117.37 623.608 1126.74 623.608V621.608C1117.67 621.608 1109.59 619.605 1102.48 615.62L1101.5 617.365ZM1126.74 623.608C1136.21 623.608 1144.63 621.535 1151.99 617.363L1151 615.623C1143.98 619.604 1135.91 621.608 1126.74 621.608V623.608ZM1151.99 617.363C1159.33 613.197 1165.09 607.437 1169.25 600.097L1167.51 599.11C1163.52 606.136 1158.02 611.636 1151 615.623L1151.99 617.363ZM1169.25 600.092C1173.42 592.648 1175.5 584.226 1175.5 574.852H1173.5C1173.5 583.921 1171.49 592 1167.51 599.115L1169.25 600.092ZM1175.5 574.852V390.818H1173.5V574.852H1175.5ZM1293.92 689H1292.92V690H1293.92V689ZM1293.92 390.818V389.818H1292.92V390.818H1293.92ZM1480.43 399.991L1480.06 400.92L1480.06 400.921L1480.43 399.991ZM1515.52 425.907L1514.7 426.483L1514.71 426.488L1515.52 425.907ZM1520.18 495.357L1519.3 494.883L1519.29 494.89L1520.18 495.357ZM1500.09 518.07L1500.66 518.89L1500.66 518.886L1500.09 518.07ZM1469.8 530.591L1469.6 529.611L1468.8 529.772V530.591H1469.8ZM1469.8 533.503H1468.8V534.466L1469.76 534.502L1469.8 533.503ZM1504.75 543.258L1504.25 544.125L1504.25 544.129L1504.75 543.258ZM1529.79 567.864L1528.93 568.373L1528.93 568.377L1529.79 567.864ZM1526.29 648.087L1525.46 647.53L1525.46 647.534L1526.29 648.087ZM1490.19 678.08L1489.76 677.174L1490.19 678.08ZM1374.87 624.355H1373.87V625.355H1374.87V624.355ZM1443.3 616.784L1443.9 617.587L1443.91 617.581L1443.3 616.784ZM1435.01 565.243L1434.61 566.16L1434.61 566.163L1435.01 565.243ZM1374.87 561.457V560.457H1373.87V561.457H1374.87ZM1374.87 511.372H1373.87V512.372H1374.87V511.372ZM1426.85 508.023L1427.23 508.948L1426.85 508.023ZM1439.52 498.414L1438.71 497.826L1438.71 497.829L1439.52 498.414ZM1434.28 461.724L1433.68 462.524L1433.68 462.529L1434.28 461.724ZM1374.87 454.298V453.298H1373.87V454.298H1374.87ZM1294.92 689V390.818H1292.92V689H1294.92ZM1293.92 391.818H1423.21V389.818H1293.92V391.818ZM1423.21 391.818C1445.84 391.818 1464.78 394.866 1480.06 400.92L1480.8 399.061C1465.21 392.886 1446.01 389.818 1423.21 389.818V391.818ZM1480.06 400.921C1495.45 406.981 1506.98 415.513 1514.7 426.483L1516.34 425.331C1508.34 413.977 1496.47 405.231 1480.8 399.06L1480.06 400.921ZM1514.71 426.488C1522.53 437.463 1526.46 450.407 1526.46 465.364H1528.46C1528.46 450.036 1524.43 436.676 1516.33 425.326L1514.71 426.488ZM1526.46 465.364C1526.46 476.179 1524.07 486.012 1519.3 494.883L1521.06 495.83C1526 486.647 1528.46 476.485 1528.46 465.364H1526.46ZM1519.29 494.89C1514.61 503.773 1508.02 511.226 1499.51 517.253L1500.66 518.886C1509.43 512.683 1516.23 504.994 1521.06 495.823L1519.29 494.89ZM1499.52 517.249C1491 523.18 1481.04 527.305 1469.6 529.611L1470 531.571C1481.67 529.218 1491.89 524.995 1500.66 518.89L1499.52 517.249ZM1468.8 530.591V533.503H1470.8V530.591H1468.8ZM1469.76 534.502C1482.43 534.982 1493.91 538.193 1504.25 544.125L1505.24 542.391C1494.61 536.287 1482.8 532.995 1469.84 532.504L1469.76 534.502ZM1504.25 544.129C1514.58 549.962 1522.8 558.039 1528.93 568.373L1530.65 567.354C1524.35 556.722 1515.87 548.395 1505.24 542.387L1504.25 544.129ZM1528.93 568.377C1535.04 578.584 1538.11 590.631 1538.11 604.554H1540.11C1540.11 590.329 1536.97 577.915 1530.65 567.35L1528.93 568.377ZM1538.11 604.554C1538.11 620.676 1533.89 634.99 1525.46 647.53L1527.12 648.645C1535.78 635.754 1540.11 621.046 1540.11 604.554H1538.11ZM1525.46 647.534C1517.13 660.077 1505.25 669.961 1489.76 677.174L1490.61 678.987C1506.38 671.639 1518.57 661.528 1527.13 648.641L1525.46 647.534ZM1489.76 677.174C1474.3 684.378 1455.81 688 1434.28 688V690C1456.03 690 1474.82 686.342 1490.61 678.987L1489.76 677.174ZM1434.28 688H1293.92V690H1434.28V688ZM1374.87 625.355H1412.73V623.355H1374.87V625.355ZM1412.73 625.355C1426.41 625.355 1436.86 622.819 1443.9 617.587L1442.71 615.981C1436.16 620.844 1426.22 623.355 1412.73 623.355V625.355ZM1443.91 617.581C1451 612.214 1454.5 604.321 1454.5 594.071H1452.5C1452.5 603.817 1449.2 611.066 1442.7 615.987L1443.91 617.581ZM1454.5 594.071C1454.5 586.927 1452.86 580.805 1449.53 575.757L1447.86 576.859C1450.93 581.518 1452.5 587.238 1452.5 594.071H1454.5ZM1449.53 575.757C1446.2 570.723 1441.48 566.915 1435.4 564.323L1434.61 566.163C1440.37 568.618 1444.77 572.187 1447.86 576.859L1449.53 575.757ZM1435.4 564.325C1429.42 561.734 1422.24 560.457 1413.89 560.457V562.457C1422.05 562.457 1428.94 563.705 1434.61 566.16L1435.4 564.325ZM1413.89 560.457H1374.87V562.457H1413.89V560.457ZM1373.87 561.457V624.355H1375.87V561.457H1373.87ZM1374.87 512.372H1408.07V510.372H1374.87V512.372ZM1408.07 512.372C1415.26 512.372 1421.65 511.24 1427.23 508.948L1426.47 507.098C1421.18 509.272 1415.05 510.372 1408.07 510.372V512.372ZM1427.23 508.948C1432.81 506.655 1437.2 503.345 1440.33 498.999L1438.71 497.829C1435.82 501.831 1431.76 504.927 1426.47 507.098L1427.23 508.948ZM1440.33 499.002C1443.58 494.534 1445.18 489.127 1445.18 482.835H1443.18C1443.18 488.774 1441.67 493.752 1438.71 497.826L1440.33 499.002ZM1445.18 482.835C1445.18 473.342 1441.76 465.985 1434.87 460.918L1433.68 462.529C1439.99 467.168 1443.18 473.886 1443.18 482.835H1445.18ZM1434.88 460.924C1428.07 455.817 1419.5 453.298 1409.23 453.298V455.298C1419.16 455.298 1427.29 457.73 1433.68 462.524L1434.88 460.924ZM1409.23 453.298H1374.87V455.298H1409.23V453.298ZM1373.87 454.298V511.372H1375.87V454.298H1373.87ZM1568.37 689H1567.37V690H1568.37V689ZM1568.37 630.761L1567.73 629.991L1567.37 630.291V630.761H1568.37ZM1679.61 538.744L1680.24 539.515L1680.25 539.514L1679.61 538.744ZM1698.53 521.564L1697.82 520.863V520.863L1698.53 521.564ZM1710.76 504.82L1709.87 504.367L1709.87 504.379L1710.76 504.82ZM1710.18 466.092L1709.32 466.599L1709.33 466.611L1710.18 466.092ZM1696.79 453.57L1696.32 454.456L1696.33 454.462L1696.79 453.57ZM1657.19 453.57L1656.72 452.685L1656.71 452.688L1657.19 453.57ZM1644.08 466.82L1643.2 466.349L1644.08 466.82ZM1639.42 488.077V489.077H1640.42V488.077H1639.42ZM1562.55 488.077H1561.55V489.077H1562.55V488.077ZM1576.67 433.915L1575.82 433.387L1576.67 433.915ZM1616.56 398.972L1616.99 399.875L1616.56 398.972ZM1739.01 398.244L1738.61 399.159L1738.61 399.162L1739.01 398.244ZM1779.63 430.275L1778.81 430.843L1778.81 430.847L1779.63 430.275ZM1786.91 512.974L1787.83 513.363L1787.83 513.36L1786.91 512.974ZM1761.29 550.392L1762.03 551.061L1761.29 550.392ZM1708.73 599.312L1709.37 600.081L1708.73 599.312ZM1680.77 622.608L1680.13 621.84L1679.77 622.14V622.608H1680.77ZM1680.77 624.355H1679.77V625.355H1680.77V624.355ZM1797.25 624.355H1798.25V623.355H1797.25V624.355ZM1797.25 689V690H1798.25V689H1797.25ZM1569.37 689V630.761H1567.37V689H1569.37ZM1569.01 631.532L1680.24 539.515L1678.97 537.974L1567.73 629.991L1569.01 631.532ZM1680.25 539.514C1687.64 533.383 1693.98 527.633 1699.25 522.264L1697.82 520.863C1692.61 526.172 1686.33 531.875 1678.97 537.974L1680.25 539.514ZM1699.25 522.265C1704.65 516.767 1708.79 511.101 1711.66 505.261L1709.87 504.379C1707.11 509.994 1703.1 515.489 1697.82 520.863L1699.25 522.265ZM1711.66 505.274C1714.65 499.394 1716.13 492.879 1716.13 485.747H1714.13C1714.13 492.592 1712.71 498.793 1709.87 504.367L1711.66 505.274ZM1716.13 485.747C1716.13 477.934 1714.45 471.194 1711.04 465.573L1709.33 466.611C1712.52 471.86 1714.13 478.224 1714.13 485.747H1716.13ZM1711.04 465.584C1707.74 459.981 1703.13 455.676 1697.24 452.679L1696.33 454.462C1701.89 457.289 1706.22 461.331 1709.32 466.599L1711.04 465.584ZM1697.25 452.685C1691.36 449.59 1684.6 448.057 1676.99 448.057V450.057C1684.32 450.057 1690.76 451.533 1696.32 454.456L1697.25 452.685ZM1676.99 448.057C1669.38 448.057 1662.61 449.59 1656.72 452.685L1657.65 454.456C1663.21 451.533 1669.65 450.057 1676.99 450.057V448.057ZM1656.71 452.688C1650.9 455.794 1646.4 460.357 1643.2 466.349L1644.96 467.29C1647.98 461.635 1652.21 457.365 1657.66 454.452L1656.71 452.688ZM1643.2 466.349C1640 472.351 1638.42 479.608 1638.42 488.077H1640.42C1640.42 479.851 1641.95 472.936 1644.96 467.29L1643.2 466.349ZM1639.42 487.077H1562.55V489.077H1639.42V487.077ZM1563.55 488.077C1563.55 467.264 1568.22 449.4 1577.52 434.443L1575.82 433.387C1566.29 448.713 1561.55 466.957 1561.55 488.077H1563.55ZM1577.52 434.443C1586.83 419.475 1599.97 407.952 1616.99 399.875L1616.14 398.068C1598.79 406.298 1585.34 418.071 1575.82 433.387L1577.52 434.443ZM1616.99 399.875C1634.01 391.797 1654 387.741 1676.99 387.741V385.741C1653.77 385.741 1633.48 389.839 1616.14 398.068L1616.99 399.875ZM1676.99 387.741C1700.76 387.741 1721.29 391.559 1738.61 399.159L1739.41 397.328C1721.79 389.592 1700.97 385.741 1676.99 385.741V387.741ZM1738.61 399.162C1756.04 406.669 1769.42 417.235 1778.81 430.843L1780.46 429.707C1770.82 415.748 1757.12 404.96 1739.41 397.325L1738.61 399.162ZM1778.81 430.847C1788.29 444.445 1793.05 460.402 1793.05 478.759H1795.05C1795.05 460.037 1790.19 443.671 1780.45 429.703L1778.81 430.847ZM1793.05 478.759C1793.05 490.07 1790.7 501.344 1785.99 512.587L1787.83 513.36C1792.64 501.89 1795.05 490.354 1795.05 478.759H1793.05ZM1785.99 512.585C1781.29 523.703 1772.83 536.082 1760.54 549.723L1762.03 551.061C1774.4 537.33 1783.02 524.763 1787.83 513.363L1785.99 512.585ZM1760.54 549.723C1748.26 563.359 1730.78 579.631 1708.09 598.544L1709.37 600.081C1732.1 581.139 1749.66 564.797 1762.03 551.061L1760.54 549.723ZM1708.09 598.544L1680.13 621.84L1681.41 623.376L1709.37 600.081L1708.09 598.544ZM1679.77 622.608V624.355H1681.77V622.608H1679.77ZM1680.77 625.355H1797.25V623.355H1680.77V625.355ZM1796.25 624.355V689H1798.25V624.355H1796.25ZM1797.25 688H1568.37V690H1797.25V688Z" fill="url(#paint1_linear_73_906)" mask="url(#path-1-outside-1_73_906)"/>
</g>
</g>
<defs>
<filter id="filter0_b_73_906" x="-505.781" y="33.7415" width="2438.71" height="712.753" filterUnits="userSpaceOnUse" color-interpolation-filters="sRGB">
<feFlood flood-opacity="0" result="BackgroundImageFix"/>
<feGaussianBlur in="BackgroundImageFix" stdDeviation="26.5"/>
<feComposite in2="SourceAlpha" operator="in" result="effect1_backgroundBlur_73_906"/>
<feBlend mode="normal" in="SourceGraphic" in2="effect1_backgroundBlur_73_906" result="shape"/>
</filter>
<linearGradient id="paint0_linear_73_906" x1="207.047" y1="-330.939" x2="2238.58" y2="297.236" gradientUnits="userSpaceOnUse">
<stop stop-color="#242628"/>
<stop offset="1" stop-color="#18191D" stop-opacity="0"/>
</linearGradient>
<linearGradient id="paint1_linear_73_906" x1="656.064" y1="-606.667" x2="1031.28" y2="386.957" gradientUnits="userSpaceOnUse">
<stop offset="0.0511251" stop-color="white"/>
<stop offset="1" stop-color="white" stop-opacity="0"/>
</linearGradient>
<clipPath id="clip0_73_906">
<rect width="1920" height="744" fill="white" transform="translate(-1)"/>
</clipPath>
</defs>
</svg>
