<svg width="1919" height="819" viewBox="0 0 1919 819" fill="none" xmlns="http://www.w3.org/2000/svg">
<g clip-path="url(#clip0_52_459)">
<rect width="1920" height="818.667" transform="translate(-1)" fill="#161616"/>
<path d="M1704.1 1523.74L1704.11 1523.74C1734.54 1541.27 1734.54 1585.13 1704.11 1602.65L1704.1 1602.65L1320.33 1824.05C1289.92 1841.57 1251.93 1819.67 1251.93 1784.59V1729.78C1251.93 1720.81 1244.63 1713.52 1235.65 1713.52H121.738C54.9205 1713.52 0.783436 1659.4 0.783436 1592.69V1112.63C0.783436 850.766 213.299 638.51 475.417 638.51H1404.58C1500.48 638.51 1578.25 560.826 1578.25 465.027V367.908C1578.25 272.109 1500.52 194.461 1404.62 194.461H364.761C259.779 194.461 174.656 109.426 174.656 4.56084V-93.5172C174.656 -100.517 180.358 -106.217 187.371 -106.217H1404.62C1666.74 -106.217 1879.22 106.039 1879.22 367.908V465.027C1879.22 726.86 1666.74 939.116 1404.62 939.116H475.381C379.484 939.116 301.715 1016.8 301.715 1112.6V1370.24C301.715 1393.8 320.853 1412.88 344.399 1412.88H1235.65C1244.63 1412.88 1251.93 1405.58 1251.93 1396.61V1341.8C1251.93 1306.76 1289.92 1284.82 1320.33 1302.35L1704.1 1523.74Z" stroke="url(#paint0_linear_52_459)" stroke-width="3.56687"/>
</g>
<defs>
<linearGradient id="paint0_linear_52_459" x1="426.716" y1="-1569.18" x2="1435.41" y2="3416.59" gradientUnits="userSpaceOnUse">
<stop stop-color="#333333"/>
<stop offset="1" stop-color="#171717"/>
</linearGradient>
<clipPath id="clip0_52_459">
<rect width="1920" height="818.667" fill="white" transform="translate(-1)"/>
</clipPath>
</defs>
</svg>
