<svg width="122" height="33" viewBox="0 0 122 33" fill="none" xmlns="http://www.w3.org/2000/svg">
<g clip-path="url(#clip0_73_1439)">
<path d="M35.993 24.9868C34.6042 24.9868 33.5011 24.5518 32.6851 23.6807V24.7589H30.1932V8.83193L32.6851 8.03675V14.359C33.5011 13.5038 34.6042 13.0762 35.993 13.0762C37.6397 13.0762 38.9945 13.6569 40.0586 14.8173C41.1239 15.9776 41.6566 17.3829 41.6566 19.0309C41.6566 20.6801 41.1239 22.0866 40.0586 23.2457C38.9945 24.4073 37.6397 24.9868 35.993 24.9868ZM35.7218 22.6968C36.7032 22.6968 37.5108 22.3415 38.1456 21.6308C38.7792 20.9214 39.0966 20.0552 39.0966 19.0309C39.0966 18.009 38.7792 17.1428 38.1456 16.4321C37.5108 15.7215 36.7032 15.3674 35.7218 15.3674C34.423 15.3674 33.4099 15.893 32.6863 16.9467V21.093C33.3965 22.1614 34.4071 22.6968 35.7218 22.6968ZM45.2345 11.2665C44.7955 11.2714 44.3735 11.0937 44.0682 10.7727C43.7484 10.4578 43.572 10.0229 43.5805 9.57075C43.5757 9.12722 43.752 8.6996 44.0682 8.39207C44.3735 8.07105 44.7955 7.89339 45.2345 7.89829C45.7027 7.89829 46.0992 8.0637 46.4239 8.39207C46.7486 8.72043 46.9116 9.11374 46.9116 9.57075C46.9116 10.0449 46.7486 10.4456 46.4239 10.7739C46.0992 11.1023 45.7039 11.2665 45.2345 11.2665ZM43.9892 24.7601H46.481V13.3053H43.9892V24.7601ZM54.9746 24.8716C53.812 24.8716 52.8658 24.5482 52.1325 23.8988C51.4004 23.2506 51.0343 22.3072 51.0343 21.0709V15.5487H48.225V13.3053H51.0343V10.7813L53.5262 9.98366V13.3053H56.9922V15.55H53.525V20.658C53.525 21.9555 54.1136 22.6049 55.292 22.6049C55.911 22.6049 56.4474 22.4677 56.901 22.1932L57.6489 24.2994C56.8633 24.6829 55.9731 24.8716 54.9746 24.8716ZM59.3017 29.9968V13.3041H61.7935V14.359C62.6096 13.5038 63.7114 13.0762 65.1015 13.0762C66.7469 13.0762 68.1017 13.6569 69.167 14.8173C70.2324 15.9776 70.7638 17.3829 70.7638 19.0309C70.7638 20.6801 70.2324 22.0866 69.167 23.2457C68.1017 24.4073 66.7469 24.9868 65.1015 24.9868C63.7114 24.9868 62.6096 24.5518 61.7935 23.6807V29.2029L59.3017 29.9968ZM64.8291 22.6956C65.8105 22.6956 66.618 22.3415 67.2528 21.6308C67.8877 20.9214 68.2051 20.0552 68.2051 19.0309C68.2051 18.009 67.8864 17.1428 67.2528 16.4321C66.618 15.7215 65.8105 15.3674 64.8291 15.3674C63.5302 15.3674 62.5172 15.893 61.7935 16.9467V21.093C62.5038 22.1614 63.5156 22.6956 64.8291 22.6956ZM77.9452 24.9868C76.2985 24.9868 74.9462 24.4085 73.8893 23.2469C72.8325 22.0854 72.3047 20.6813 72.3047 19.0309C72.3047 17.3829 72.8325 15.9776 73.8893 14.8173C74.9462 13.6569 76.2985 13.0762 77.9452 13.0762C79.334 13.0762 80.4371 13.5038 81.2531 14.359V13.3053H83.745V24.7589H81.2531V23.6807C80.4371 24.5518 79.334 24.9868 77.9452 24.9868ZM78.2383 22.6968C79.5371 22.6968 80.5417 22.1614 81.2519 21.093V16.9467C80.5271 15.893 79.5225 15.3674 78.2383 15.3674C77.2581 15.3674 76.4505 15.7215 75.8145 16.4321C75.1809 17.1428 74.8635 18.009 74.8635 19.0309C74.8635 20.0552 75.1809 20.9214 75.8145 21.6308C76.4505 22.3415 77.2569 22.6968 78.2383 22.6968ZM86.44 24.7589V13.3053H88.9306V14.5195C89.7005 13.5577 90.8108 13.0762 92.2604 13.0762C93.6043 13.0762 94.6806 13.516 95.4881 14.3933C96.2968 15.2718 96.7006 16.4432 96.7006 17.9098V24.7589H94.2087V18.3215C94.2087 17.3903 93.9935 16.6637 93.5629 16.1454C93.1324 15.6259 92.5183 15.3674 91.7168 15.3674C90.3876 15.3674 89.4597 15.9702 88.9306 17.1771V24.7589H86.44ZM104.516 24.9868C102.87 24.9868 101.518 24.4073 100.461 23.2469C99.4041 22.0854 98.8751 20.6813 98.8751 19.0309C98.8751 17.3829 99.4041 15.9776 100.461 14.8173C101.518 13.6569 102.87 13.0762 104.516 13.0762C105.904 13.0762 107.007 13.5038 107.823 14.359V8.83193L110.315 8.03675V24.7589H107.823V23.6807C107.007 24.5518 105.904 24.9868 104.516 24.9868ZM104.81 22.6968C106.109 22.6968 107.113 22.1614 107.823 21.093V16.9467C107.099 15.893 106.094 15.3674 104.81 15.3674C103.828 15.3674 103.021 15.7215 102.386 16.4321C101.752 17.1428 101.435 18.009 101.435 19.0309C101.435 20.0552 101.752 20.9214 102.386 21.6308C103.021 22.3415 103.828 22.6968 104.81 22.6968ZM118.312 24.9868C116.665 24.9868 115.313 24.4085 114.256 23.2469C113.199 22.0854 112.671 20.6813 112.671 19.0309C112.671 17.3829 113.199 15.9776 114.256 14.8173C115.313 13.6569 116.665 13.0762 118.312 13.0762C119.7 13.0762 120.802 13.5038 121.618 14.359V13.3053H124.11V24.7589H121.618V23.6807C120.802 24.5518 119.7 24.9868 118.312 24.9868ZM118.605 22.6968C119.903 22.6968 120.909 22.1614 121.618 21.093V16.9467C120.892 15.893 119.889 15.3674 118.605 15.3674C117.624 15.3674 116.816 15.7215 116.181 16.4321C115.547 17.1428 115.23 18.009 115.23 19.0309C115.23 20.0552 115.547 20.9214 116.181 21.6308C116.816 22.3415 117.624 22.6968 118.605 22.6968ZM15.1969 6.46598L14.7056 6.62281V8.48886C14.7031 9.4274 14.106 10.2593 13.2243 10.5522L8.1846 12.1572V14.9226L14.8077 12.8115C16.379 12.3165 17.3154 10.9455 17.3154 9.14314V7.90687C17.3154 7.06145 16.3595 6.09351 15.1969 6.46598ZM4.65899 5.67692L14.0209 2.69345C15.0424 2.36754 15.8536 2.38591 16.3425 2.4435L15.1701 1.57725C14.629 1.18027 12.9786 0.252763 10.944 0.908269L2.05035 3.74471L4.65899 5.67692Z" fill="#F2F2F2"/>
<path d="M18.9207 13.868C18.9207 13.868 20.5747 12.3499 20.5747 9.08954V7.70869C20.5747 5.56206 18.129 2.07256 14.213 3.32353L4.92532 6.28495V23.7006L7.53396 22.8687V18.5876L15.9156 15.9154C17.4784 15.4216 18.7809 16.6616 18.7809 18.04V19.7369C18.7809 21.4657 17.2716 23.9162 14.9062 24.6673L2.05035 28.7658L4.65899 30.6992L16.2379 27.0075C18.6836 26.2209 21.3895 24.1 21.3895 19.5972V17.8647C21.3895 15.141 18.9207 13.868 18.9207 13.868ZM15.0035 13.4416L7.53274 15.8235V8.21839L14.9975 5.83896C16.5553 5.34519 17.9661 6.60351 17.9661 7.90718L17.9673 9.14467C17.9673 11.3109 16.7949 12.8731 15.0035 13.4416Z" fill="#F2F2F2"/>
<path d="M18.1289 19.7363V18.0418C18.1289 17.0824 17.2144 16.1916 16.1101 16.5445L15.5203 16.732V19.0808C15.5239 20.2325 14.7845 21.2519 13.6973 21.595L4.27215 24.598V6.20834L1.66473 4.2749V28.1966L14.7079 24.0381C16.7547 23.3863 18.1289 21.2874 18.1289 19.7363Z" fill="#F2F2F2"/>
</g>
<defs>
<clipPath id="clip0_73_1439">
<rect width="124.047" height="34.3069" fill="white" transform="translate(0.604248 -1.46411)"/>
</clipPath>
</defs>
</svg>
