<svg width="10" height="9" viewBox="0 0 10 9" fill="none" xmlns="http://www.w3.org/2000/svg">
<path d="M4.27805 4.32162C4.19666 4.24022 4.08626 4.19449 3.97115 4.19449C3.85603 4.19449 3.74563 4.24022 3.66424 4.32162C3.58284 4.40302 3.53711 4.51342 3.53711 4.62853C3.53711 4.74364 3.58284 4.85404 3.66424 4.93544L4.96104 6.23224C5.00143 6.2723 5.04933 6.304 5.102 6.32551C5.15466 6.34702 5.21106 6.35793 5.26795 6.3576C5.32712 6.35572 5.38528 6.34171 5.43882 6.31643C5.49236 6.29114 5.54013 6.25513 5.57918 6.21063L8.60505 2.75249C8.67491 2.66575 8.7086 2.55538 8.69909 2.44441C8.68957 2.33343 8.63758 2.23041 8.55397 2.15683C8.47035 2.08325 8.36156 2.04478 8.25027 2.04945C8.13899 2.05412 8.0338 2.10157 7.95665 2.1819L5.26795 5.29422L4.27805 4.32162Z" fill="white" fill-opacity="0.5"/>
<path d="M9.15833 4.19631C9.04369 4.19631 8.93374 4.24185 8.85267 4.32292C8.77161 4.40398 8.72607 4.51393 8.72607 4.62858C8.72607 5.54573 8.36173 6.42532 7.7132 7.07385C7.06467 7.72237 6.18508 8.08671 5.26793 8.08671C4.58498 8.0864 3.91742 7.88388 3.34942 7.50468C2.78143 7.12549 2.33842 6.5866 2.07628 5.95597C1.81413 5.32534 1.74458 4.63121 1.8764 3.96111C2.00822 3.29101 2.3355 2.67494 2.81697 2.19059C3.13716 1.86613 3.51884 1.60878 3.93968 1.43361C4.36053 1.25844 4.81209 1.16898 5.26793 1.17044C5.54434 1.17217 5.81974 1.20406 6.08924 1.26554C6.14563 1.28298 6.205 1.28869 6.26369 1.28231C6.32238 1.27593 6.37914 1.2576 6.43047 1.22844C6.4818 1.19929 6.52661 1.15993 6.56215 1.11279C6.59768 1.06565 6.62319 1.01173 6.63708 0.954358C6.65098 0.896985 6.65299 0.837373 6.64296 0.779197C6.63294 0.721021 6.61111 0.665515 6.57882 0.616099C6.54652 0.566684 6.50445 0.524407 6.45519 0.491874C6.40593 0.459342 6.35053 0.437244 6.2924 0.426943C5.95659 0.347943 5.6129 0.307338 5.26793 0.305908C4.41392 0.310345 3.58035 0.567655 2.87243 1.04537C2.16451 1.52308 1.61396 2.19978 1.29026 2.99008C0.966555 3.78038 0.884204 4.64886 1.0536 5.48592C1.22299 6.32297 1.63654 7.0911 2.24206 7.69335C3.04465 8.4963 4.13265 8.9486 5.26793 8.95125C6.41437 8.95125 7.51386 8.49582 8.32452 7.68517C9.13518 6.87451 9.5906 5.77502 9.5906 4.62858C9.5906 4.51393 9.54506 4.40398 9.46399 4.32292C9.38293 4.24185 9.27298 4.19631 9.15833 4.19631Z" fill="white" fill-opacity="0.5"/>
</svg>
