<svg width="35" height="50" viewBox="0 0 35 50" fill="none" xmlns="http://www.w3.org/2000/svg">
<path d="M31.0417 19.7917C31.8705 19.7917 32.6653 19.4624 33.2514 18.8764C33.8374 18.2903 34.1667 17.4955 34.1667 16.6667V15.2354C34.1628 12.301 32.9954 9.48785 30.9205 7.41289C28.8455 5.33793 26.0324 4.17053 23.0979 4.16667H20.625V3.125C20.625 2.2962 20.2958 1.50134 19.7097 0.915291C19.1237 0.32924 18.3288 0 17.5 0C16.6712 0 15.8764 0.32924 15.2903 0.915291C14.7043 1.50134 14.375 2.2962 14.375 3.125V4.16667H11.9021C9.24477 4.16271 6.6747 5.11488 4.66138 6.84924C2.64807 8.5836 1.3259 10.9844 0.936403 13.613C0.54691 16.2417 1.11609 18.9227 2.53997 21.1664C3.96385 23.41 6.14738 25.0665 8.69169 25.8333L14.375 27.3875V39.5833H11.9021C10.6246 39.5817 9.39989 39.0735 8.49656 38.1701C7.59323 37.2668 7.08501 36.0421 7.08336 34.7646V33.3333C7.08336 32.5045 6.75412 31.7097 6.16806 31.1236C5.58201 30.5376 4.78716 30.2083 3.95836 30.2083C3.12955 30.2083 2.3347 30.5376 1.74865 31.1236C1.1626 31.7097 0.833356 32.5045 0.833356 33.3333V34.7646C0.837214 37.699 2.00462 40.5121 4.07958 42.5871C6.15454 44.6621 8.96767 45.8295 11.9021 45.8333H14.375V46.875C14.375 47.7038 14.7043 48.4987 15.2903 49.0847C15.8764 49.6708 16.6712 50 17.5 50C18.3288 50 19.1237 49.6708 19.7097 49.0847C20.2958 48.4987 20.625 47.7038 20.625 46.875V45.8333H23.0979C25.7553 45.8373 28.3253 44.8851 30.3387 43.1508C32.352 41.4164 33.6741 39.0156 34.0636 36.387C34.4531 33.7583 33.8839 31.0773 32.4601 28.8336C31.0362 26.59 28.8527 24.9334 26.3084 24.1667L20.625 22.6167V10.4167H23.0979C24.3754 10.4183 25.6001 10.9265 26.5035 11.8299C27.4068 12.7332 27.915 13.9579 27.9167 15.2354V16.6667C27.9167 17.4955 28.2459 18.2903 28.832 18.8764C29.418 19.4624 30.2129 19.7917 31.0417 19.7917ZM24.5459 30.1646C25.6449 30.5109 26.5836 31.2395 27.1917 32.2183C27.7998 33.1971 28.0373 34.3614 27.861 35.5001C27.6846 36.6389 27.1062 37.6769 26.2306 38.4259C25.3549 39.175 24.2399 39.5856 23.0875 39.5833H20.625V29.0938L24.5459 30.1646ZM14.375 20.9062L10.4542 19.8354C9.35599 19.4893 8.41794 18.7616 7.80974 17.7839C7.20154 16.8062 6.96337 15.6431 7.13833 14.505C7.31328 13.3669 7.8898 12.3291 8.76357 11.5792C9.63735 10.8293 10.7507 10.4169 11.9021 10.4167H14.375V20.9062Z" fill="#171717"/>
</svg>
