<svg width="51" height="50" viewBox="0 0 51 50" fill="none" xmlns="http://www.w3.org/2000/svg">
<g clip-path="url(#clip0_77_320)">
<path d="M25 0C20.0555 0 15.222 1.46622 11.1108 4.21326C6.99953 6.9603 3.79521 10.8648 1.90302 15.4329C0.0108322 20.0011 -0.484251 25.0277 0.480379 29.8773C1.44501 34.7268 3.82603 39.1814 7.32234 42.6777C10.8187 46.174 15.2732 48.555 20.1228 49.5196C24.9723 50.4843 29.9989 49.9892 34.5671 48.097C39.1353 46.2048 43.0397 43.0005 45.7867 38.8893C48.5338 34.778 50 29.9445 50 25C49.9928 18.3718 47.3566 12.0171 42.6698 7.33025C37.9829 2.64339 31.6282 0.00716892 25 0ZM25 43.75C21.2916 43.75 17.6665 42.6503 14.5831 40.5901C11.4996 38.5298 9.09641 35.6014 7.67727 32.1753C6.25813 28.7492 5.88681 24.9792 6.61029 21.3421C7.33376 17.7049 9.11952 14.364 11.7418 11.7417C14.364 9.11951 17.7049 7.33375 21.3421 6.61028C24.9792 5.8868 28.7492 6.25812 32.1753 7.67726C35.6014 9.0964 38.5298 11.4996 40.5901 14.5831C42.6503 17.6665 43.75 21.2916 43.75 25C43.7445 29.9711 41.7673 34.7371 38.2522 38.2522C34.7371 41.7673 29.9711 43.7445 25 43.75Z" fill="#171717"/>
<path d="M21.875 23.0312L16.875 26.1562C16.5271 26.3741 16.2254 26.6583 15.9874 26.9928C15.7493 27.3272 15.5795 27.7053 15.4876 28.1054C15.3957 28.5055 15.3835 28.9198 15.4518 29.3246C15.5201 29.7294 15.6674 30.1167 15.8854 30.4646C16.1033 30.8125 16.3875 31.1141 16.722 31.3522C17.0564 31.5902 17.4345 31.7601 17.8346 31.852C18.2347 31.9439 18.6489 31.956 19.0537 31.8878C19.4585 31.8195 19.8459 31.6722 20.1937 31.4542L26.1708 27.7042C26.7705 27.3284 27.2646 26.806 27.6065 26.1864C27.9484 25.5667 28.1269 24.8702 28.125 24.1625V16.1917C28.125 15.3628 27.7958 14.568 27.2097 13.9819C26.6237 13.3959 25.8288 13.0667 25 13.0667C24.1712 13.0667 23.3763 13.3959 22.7903 13.9819C22.2042 14.568 21.875 15.3628 21.875 16.1917V23.0312Z" fill="#171717"/>
</g>
<defs>
<clipPath id="clip0_77_320">
<rect width="50" height="50" fill="white" transform="translate(0.5)"/>
</clipPath>
</defs>
</svg>
