<svg width="72" height="88" viewBox="0 0 72 88" fill="none" xmlns="http://www.w3.org/2000/svg">
<path d="M72 49.2509V71.2942C72 72.021 71.4053 72.6102 70.6716 72.6102H61.2999C60.5662 72.6102 59.9715 72.021 59.9715 71.2942V60.7372C59.9715 59.5648 58.5407 58.9776 57.7039 59.8066L46.0436 71.3573C45.5248 71.8712 44.6838 71.8712 44.165 71.3573L38.1583 65.4065C37.6396 64.8926 37.6396 64.0593 38.1583 63.5454L49.8186 51.9937C50.6554 51.1646 50.0627 49.7471 48.8792 49.7471H38.5487C37.8151 49.7471 37.2203 49.1579 37.2203 48.4311V39.1466C37.2203 38.4198 37.8151 37.8306 38.5487 37.8306H60.4736C66.8392 37.8319 72 42.9446 72 49.2509Z" fill="#333333"/>
<path d="M37.2203 23.361V1.31611C37.2203 0.589244 37.8047 0 38.5255 0H47.7331C48.4539 0 49.0383 0.589245 49.0383 1.31612V11.8735C49.0383 13.0461 50.4441 13.6333 51.2663 12.8041L62.721 1.25185C63.2307 0.737836 64.0571 0.737817 64.5668 1.25181L70.4682 7.20292C70.9779 7.71691 70.9779 8.55026 70.4682 9.06422L59.0124 20.6154C58.1902 21.4445 58.7724 22.8622 59.9352 22.8622H70.0847C70.8055 22.8622 71.3898 23.4515 71.3898 24.1784V33.4635C71.3898 34.1904 70.8055 34.7797 70.0847 34.7797H48.5436C42.2894 34.7797 37.2203 29.6679 37.2203 23.361Z" fill="#333333"/>
<path d="M0 76.4449V54.4008C0 53.6739 0.584302 53.0847 1.30508 53.0847H10.5124C11.2332 53.0847 11.8175 53.6739 11.8175 54.4008V64.9582C11.8175 66.1306 13.2232 66.7178 14.0453 65.8888L25.501 54.3377C26.0107 53.8238 26.837 53.8238 27.3467 54.3377L33.2479 60.2887C33.7576 60.8026 33.7576 61.636 33.2479 62.1499L21.7925 73.7007C20.9703 74.5297 21.5526 75.9474 22.7153 75.9474H32.8644C33.5852 75.9474 34.1695 76.5366 34.1695 77.2635V86.5483C34.1695 87.2752 33.5852 87.8644 32.8644 87.8644H11.3241C5.07022 87.8644 0 82.7515 0 76.4449Z" fill="#333333"/>
<path d="M34.1695 26.4743V48.1308C34.1695 48.8449 33.5852 49.4238 32.8644 49.4238H23.6567C22.9359 49.4238 22.3516 48.8449 22.3516 48.1308V37.7593C22.3516 36.6074 20.9458 36.0305 20.1236 36.845L8.66878 48.1928C8.1591 48.6977 7.33274 48.6977 6.82306 48.1928L0.921558 42.3464C0.411874 41.8415 0.411875 41.0229 0.921558 40.5179L12.3777 29.1689C13.1999 28.3544 12.6175 26.9617 11.4548 26.9617H1.30513C0.584326 26.9617 0 26.3829 0 25.6688V16.5472C0 15.8331 0.584325 15.2543 1.30513 15.2543H22.8462C29.1004 15.2556 34.1695 20.2773 34.1695 26.4743Z" fill="#009FE3"/>
</svg>
