<svg width="131" height="30" viewBox="0 0 131 30" fill="none" xmlns="http://www.w3.org/2000/svg">
<g clip-path="url(#clip0_53_403)">
<path d="M105.32 7.08252H130.238L117.78 26.6425L105.32 7.08252ZM108.444 8.77662L117.78 23.4344L127.116 8.77662H108.444Z" fill="#F2F2F2"/>
<path d="M105.32 2.80542H130.238L117.78 22.3654L105.32 2.80542ZM108.444 4.49952L117.78 19.1584L127.116 4.49952H108.444Z" fill="#F2F2F2"/>
<path d="M10.494 23.8166C8.76735 23.8166 7.20455 23.4447 5.80675 22.7034C4.45658 21.9749 3.33183 20.9036 2.54985 19.6046C1.75974 18.2823 1.36584 16.7962 1.36584 15.1509C1.36584 13.5044 1.7609 12.0288 2.54985 10.7216C3.32719 9.40977 4.46355 8.33614 5.83115 7.62156C7.23011 6.86398 8.79175 6.48402 10.5184 6.48402C11.8674 6.48402 13.1002 6.7106 14.2203 7.16259C15.3195 7.58554 16.3002 8.25713 17.081 9.12393L15.4775 10.6484C14.1785 9.30868 12.5587 8.63825 10.6183 8.63825C9.33554 8.63825 8.17476 8.9206 7.13832 9.48646C6.11931 10.0349 5.27458 10.8471 4.6971 11.8336C4.12078 12.8189 3.83263 13.925 3.83263 15.1509C3.83263 16.3767 4.12078 17.4898 4.6971 18.4914C5.28039 19.4675 6.12396 20.2715 7.13832 20.8153C8.17476 21.38 9.33437 21.6623 10.6183 21.6623C12.5425 21.6623 14.1622 20.9838 15.4775 19.629L17.081 21.1534C16.2909 22.026 15.3021 22.7058 14.1947 23.1392C13.077 23.5911 11.843 23.8166 10.494 23.8166ZM30.5931 17.2807C30.5931 17.4585 30.5756 17.6932 30.5431 17.9837H19.9358C20.0834 19.1119 20.5854 20.024 21.4405 20.7189C22.312 21.3963 23.3891 21.7355 24.6719 21.7355C26.2347 21.7355 27.493 21.2185 28.447 20.1855L29.7542 21.6867C29.1534 22.3711 28.3912 22.9021 27.5337 23.2356C26.6623 23.5911 25.6839 23.7689 24.5987 23.7689C23.2171 23.7689 21.9913 23.4947 20.9223 22.9451C19.8812 22.4071 19.0179 21.5938 18.4311 20.598C17.8548 19.5964 17.5667 18.467 17.5667 17.2075C17.5667 15.9654 17.8467 14.8441 18.4056 13.8437C18.9819 12.8421 19.7627 12.0683 20.7492 11.5198C21.7531 10.954 22.879 10.6716 24.1292 10.6716C25.3795 10.6716 26.4903 10.954 27.4593 11.5198C28.4389 12.0613 29.2359 12.8688 29.7542 13.8437C30.313 14.8441 30.5931 15.9898 30.5931 17.2807ZM24.1292 12.633C22.9952 12.633 22.0401 12.9723 21.2662 13.6497C20.511 14.3282 20.0671 15.2159 19.9358 16.3128H28.3227C28.1914 15.2322 27.7394 14.3526 26.9655 13.6741C26.2103 12.9804 25.2645 12.633 24.1292 12.633ZM35.2257 12.9479C35.637 12.2054 36.2459 11.6407 37.0511 11.2526C37.8575 10.8668 38.8358 10.6716 39.9873 10.6716V12.9235C39.8072 12.9049 39.6259 12.8967 39.4447 12.9002C38.1619 12.9002 37.151 13.279 36.4097 14.0377C35.687 14.7802 35.3256 15.8445 35.3256 17.2331V23.6237H32.9564V10.7936H35.2257V12.9479ZM53.6783 17.2807C53.6783 17.4585 53.6609 17.6932 53.6284 17.9837H43.0211C43.1687 19.1119 43.6706 20.024 44.5258 20.7189C45.3972 21.3963 46.4744 21.7355 47.7571 21.7355C49.3199 21.7355 50.5783 21.2185 51.5322 20.1855L52.8394 21.6867C52.2387 22.3711 51.4765 22.9021 50.619 23.2356C49.7475 23.5911 48.7692 23.7689 47.6839 23.7689C46.3012 23.7689 45.0766 23.4947 44.0076 22.9451C42.9665 22.4071 42.1032 21.5938 41.5164 20.598C40.9401 19.5964 40.6519 18.467 40.6519 17.2075C40.6519 15.9654 40.9319 14.8441 41.4908 13.8437C42.0672 12.8421 42.848 12.0683 43.8344 11.5198C44.8384 10.954 45.9643 10.6716 47.2145 10.6716C48.4647 10.6716 49.5756 10.954 50.5446 11.5198C51.5241 12.0613 52.3212 12.8688 52.8394 13.8437C53.3983 14.8441 53.6783 15.9898 53.6783 17.2807ZM47.2145 12.633C46.0805 12.633 45.1254 12.9723 44.3527 13.6497C43.5963 14.3282 43.1524 15.2159 43.0211 16.3128H51.4079C51.2766 15.2322 50.8246 14.3526 50.0508 13.6741C49.2955 12.9804 48.3497 12.633 47.2145 12.633ZM62.9749 10.6716C64.2403 10.6716 65.3755 10.947 66.3783 11.4954C67.3671 12.0299 68.1804 12.827 68.723 13.7949C69.2982 14.7802 69.5852 15.9166 69.5852 17.2075C69.5852 18.4984 69.297 19.6452 68.723 20.6456C68.1804 21.6135 67.3671 22.4106 66.3783 22.9451C65.3743 23.4947 64.2403 23.7689 62.9749 23.7689C62.0036 23.7689 61.1159 23.583 60.3095 23.2124C59.5124 22.8475 58.8234 22.2886 58.311 21.5903V23.6237H56.0417V5.66138H58.4097V12.7306C58.921 12.0636 59.6019 11.5384 60.3838 11.205C61.174 10.8506 62.0361 10.6716 62.9749 10.6716ZM62.7763 21.7344C63.6163 21.7344 64.3646 21.5485 65.0211 21.179C65.6892 20.799 66.2353 20.2459 66.6013 19.5813C66.9952 18.8865 67.1928 18.0952 67.1928 17.2075C67.1928 16.3209 66.9952 15.5378 66.6002 14.8604C66.2446 14.1888 65.6962 13.6346 65.0211 13.2627C64.3646 12.8909 63.6163 12.705 62.7763 12.705C61.9908 12.6969 61.2169 12.8886 60.5314 13.2627C59.8575 13.6334 59.3079 14.1888 58.9523 14.8604C58.5736 15.5378 58.3853 16.3198 58.3853 17.2075C58.3853 18.0952 58.5736 18.8876 58.9523 19.5813C59.3172 20.2459 59.8645 20.7979 60.5314 21.179C61.2053 21.5496 61.9536 21.7344 62.7763 21.7344ZM74.2027 12.9479C74.6129 12.2054 75.2217 11.6407 76.0281 11.2526C76.8345 10.8668 77.8128 10.6716 78.9631 10.6716V12.9235C78.783 12.9049 78.6018 12.8967 78.4205 12.9002C77.1377 12.9002 76.1269 13.279 75.3867 14.0377C74.6628 14.7802 74.3015 15.8445 74.3015 17.2331V23.6237H71.9323V10.7936H74.2027V12.9479ZM85.6954 10.6716C87.5045 10.6716 88.886 11.1074 89.8388 11.9788C90.8102 12.8502 91.2947 14.1504 91.2947 15.8771V23.6225H89.0499V21.9284C88.656 22.5257 88.0878 22.9858 87.3476 23.3076C86.6249 23.6144 85.7616 23.7678 84.7577 23.7678C83.2948 23.7678 82.1178 23.4215 81.2301 22.7267C80.3575 22.0342 79.9217 21.1209 79.9217 19.9915C79.9217 18.8632 80.3412 17.9581 81.1801 17.2807C82.019 16.587 83.3506 16.2408 85.1771 16.2408H88.9267V15.7795C88.9267 14.7802 88.6304 14.0122 88.039 13.4812C87.4464 12.9479 86.575 12.6818 85.4235 12.6818C84.6508 12.6818 83.8944 12.8107 83.1542 13.0687C82.4141 13.3104 81.789 13.6427 81.2789 14.0621L80.2924 12.3192C80.9663 11.7859 81.7727 11.3816 82.7092 11.1074C83.6759 10.8134 84.6833 10.6658 85.6954 10.6716ZM85.1527 21.9772C86.0567 21.9772 86.8376 21.7832 87.4964 21.3963C88.1494 20.9989 88.6513 20.404 88.9279 19.7022V17.9105H85.2747C83.2693 17.9105 82.2653 18.5728 82.2653 19.895C82.2653 20.5411 82.521 21.0488 83.0299 21.4195C83.5412 21.7925 84.2476 21.9772 85.1527 21.9772ZM94.7526 5.66138H97.1218V23.6237H94.7526V5.66138Z" fill="#F2F2F2"/>
</g>
<defs>
<clipPath id="clip0_53_403">
<rect width="130.136" height="29.0483" fill="white" transform="translate(0.181763 0.0214844)"/>
</clipPath>
</defs>
</svg>
