<svg width="121" height="25" viewBox="0 0 121 25" fill="none" xmlns="http://www.w3.org/2000/svg">
<g clip-path="url(#clip0_53_433)">
<path d="M44.7041 16.1726H46.0077V19.2436H49.5517V16.1726H50.8553V23.5627H49.5517V20.4465H46.0077V23.5627H44.7041V16.1726Z" fill="#F2F2F2"/>
<path d="M54.0156 16.1726H59.5233V17.3345H55.3193V19.2559H59.0323V20.4178H55.3193V22.4007H59.5769V23.5627H54.0156V16.1726Z" fill="#F2F2F2"/>
<path d="M64.8084 16.1726H66.0089L69.2516 23.5627H67.882L67.1352 21.7932H63.6491L62.89 23.5627H61.5615L64.8084 16.1726ZM66.6608 20.6477L65.386 17.7122L64.1235 20.6477H66.6608Z" fill="#F2F2F2"/>
<path d="M71.6155 16.1726H72.9233V22.3802H76.8262V23.5627H71.6155V16.1726Z" fill="#F2F2F2"/>
<path d="M79.8132 17.3755H77.4575V16.1726H83.485V17.3755H81.1293V23.5627H79.8132V17.3755Z" fill="#F2F2F2"/>
<path d="M85.9976 16.1726H87.3015V19.2436H90.8454V16.1726H92.149V23.5627H90.8454V20.4465H87.3015V23.5627H85.9976V16.1726Z" fill="#F2F2F2"/>
<path opacity="0.7" fill-rule="evenodd" clip-rule="evenodd" d="M28.9648 2.05733L39.4521 20.4955C39.5859 20.7302 39.6718 20.9889 39.705 21.2567C39.7383 21.5246 39.718 21.7964 39.6456 22.0564C39.5732 22.3164 39.4499 22.5598 39.283 22.7724C39.116 22.985 38.9084 23.1628 38.6724 23.2955C38.3616 23.4707 38.0105 23.5627 37.6533 23.5623H13.1348L25.3672 2.05733C25.5002 1.81929 25.6795 1.60998 25.8946 1.44158C26.1097 1.27319 26.3564 1.14907 26.6202 1.07647C26.884 1.00387 27.1596 0.984233 27.4311 1.01871C27.7026 1.05318 27.9645 1.14108 28.2015 1.27727C28.5209 1.4653 28.7844 1.73453 28.9648 2.05733Z" fill="#F2F2F2"/>
<path opacity="0.4" fill-rule="evenodd" clip-rule="evenodd" d="M15.3337 2.01247L19.5789 9.33272L11.3772 23.5626H3.03522C2.48813 23.5626 1.96345 23.3464 1.5766 22.9614C1.18974 22.5764 0.972412 22.0543 0.972412 21.5099C0.972787 21.1558 1.06517 20.8079 1.24058 20.4999L11.7444 2.02479C11.9243 1.70887 12.1852 1.4461 12.5005 1.26328C12.8158 1.08045 13.1741 0.984131 13.539 0.984131C13.9039 0.984131 14.2624 1.08045 14.5776 1.26328C14.8929 1.4461 15.1538 1.70887 15.3337 2.02479V2.01247Z" fill="#F2F2F2"/>
<path d="M55.7195 13.2167V4.59493L51.4082 11.7797H50.6285L46.3543 4.65241V13.2167H44.7041V1.39258H46.0944L51.0452 9.70226L55.9423 1.39258H57.3326V13.2167H55.7195Z" fill="#F2F2F2"/>
<path d="M62.0812 12.564C61.1405 12.0623 60.3568 11.3122 59.8163 10.3963C59.2633 9.45982 58.9781 8.39083 58.9912 7.30477C58.9781 6.21871 59.2633 5.14972 59.8163 4.21326C60.3579 3.29713 61.1412 2.54602 62.0812 2.04141C63.0803 1.52466 64.1898 1.25488 65.3157 1.25488C66.4417 1.25488 67.5511 1.52466 68.5502 2.04141C69.4874 2.54328 70.2681 3.29173 70.8069 4.20505C71.3604 5.14431 71.6456 6.21605 71.6321 7.30477C71.6456 8.39348 71.3604 9.46523 70.8069 10.4045C70.268 11.3167 69.4873 12.0638 68.5502 12.564C67.5511 13.0808 66.4417 13.3506 65.3157 13.3506C64.1898 13.3506 63.0803 13.0808 62.0812 12.564ZM67.6755 11.2461C68.3655 10.8583 68.9361 10.2905 69.3258 9.60388C69.7302 8.89617 69.938 8.09417 69.9282 7.28014C69.938 6.4661 69.7302 5.6641 69.3258 4.95638C68.9361 4.2698 68.3655 3.70202 67.6755 3.31414C66.9565 2.92885 66.1486 2.73775 65.3322 2.75989C64.5047 2.74933 63.6886 2.95306 62.9642 3.35109C62.2738 3.73847 61.7031 4.30637 61.3139 4.99333C60.9095 5.70105 60.7017 6.50305 60.7115 7.31708C60.7017 8.13113 60.9095 8.93313 61.3139 9.64081C61.7031 10.3278 62.2738 10.8957 62.9642 11.2831C63.691 11.6725 64.5069 11.8678 65.3322 11.8497C66.153 11.8567 66.9613 11.6486 67.6755 11.2461Z" fill="#F2F2F2"/>
<path d="M73.2864 1.39253H78.2908C79.4498 1.36964 80.5974 1.62451 81.6366 2.13564C82.5752 2.60137 83.3598 3.3252 83.8975 4.22128C84.4519 5.15411 84.7373 6.22089 84.7226 7.30457C84.7367 8.38816 84.4513 9.45478 83.8975 10.3879C83.3604 11.2855 82.5757 12.0108 81.6366 12.4776C80.5974 12.9888 79.4498 13.2436 78.2908 13.2207H73.2864V1.39253ZM78.1917 11.7468C79.0702 11.766 79.9405 11.5745 80.729 11.1884C81.4312 10.8417 82.0173 10.2997 82.4164 9.62832C82.8212 8.92116 83.0264 8.11827 83.0105 7.30457C83.0264 6.49086 82.8212 5.68797 82.4164 4.9808C82.0173 4.30941 81.4312 3.76752 80.729 3.42069C79.9405 3.03463 79.0702 2.84311 78.1917 2.86233H74.982V11.7468H78.1917Z" fill="#F2F2F2"/>
<path d="M95.4165 11.7469V13.2167H86.7856V1.39258H95.1728V2.86238H88.494V6.49171H94.4513V7.92867H88.494V11.7469H95.4165Z" fill="#F2F2F2"/>
<path d="M105.602 13.2167L103.036 9.60373C102.723 9.6284 102.471 9.64065 102.29 9.64065H99.3564V13.2167H97.6567V1.39258H102.29C103.827 1.39258 105.039 1.75797 105.924 2.48877C106.361 2.85659 106.708 3.31902 106.937 3.84065C107.166 4.36227 107.273 4.92924 107.248 5.49816C107.283 6.33058 107.051 7.1524 106.589 7.84655C106.11 8.5065 105.432 8.99702 104.653 9.24655L107.471 13.2167H105.602ZM104.703 7.48937C104.985 7.2458 105.205 6.94081 105.348 6.59823C105.492 6.25565 105.553 5.88477 105.528 5.51458C105.554 5.14554 105.493 4.77566 105.349 4.43431C105.206 4.09295 104.985 3.7895 104.703 3.54801C103.983 3.0416 103.108 2.7993 102.228 2.86238H99.34V8.19963H102.228C103.111 8.25765 103.987 8.00638 104.703 7.48937Z" fill="#F2F2F2"/>
<path d="M119.79 1.39258V13.2167H118.4L111.271 4.39786V13.2167H109.571V1.39258H110.966L118.095 10.2114V1.39258H119.79Z" fill="#F2F2F2"/>
</g>
<defs>
<clipPath id="clip0_53_433">
<rect width="119.679" height="23.1341" fill="white" transform="translate(0.9104 0.984375)"/>
</clipPath>
</defs>
</svg>
