<svg width="103" height="27" viewBox="0 0 103 27" fill="none" xmlns="http://www.w3.org/2000/svg">
<g clip-path="url(#clip0_53_428)">
<path d="M32.9461 10.7719C32.9461 8.9365 31.1811 7.01164 28.1134 7.01164C24.6732 7.01164 20.8961 9.53873 20.3177 14.5826C19.7267 19.6759 22.8899 21.9392 26.0782 21.9392C29.2667 21.9392 30.9362 20.6945 32.6437 19.0346C31.1754 17.1878 29.2794 18.0412 28.916 18.2293C28.3146 18.5637 27.6335 18.7291 26.9452 18.7077C25.7149 18.7077 24.4594 18.1548 24.4594 15.8536C32.3424 15.0737 32.9461 12.5958 32.9461 10.7719ZM29.039 11.0736C28.9885 11.6392 28.763 12.6073 24.7709 13.1499C25.6103 10.1559 27.22 9.93104 27.9594 9.93104C28.1092 9.92425 28.2588 9.94965 28.3979 10.0056C28.537 10.0616 28.6624 10.1468 28.7656 10.2554C28.8688 10.364 28.9473 10.4935 28.9959 10.635C29.0444 10.7766 29.062 10.927 29.047 11.0759L29.039 11.0736ZM15.6874 11.5646L13.8546 17.3369L12.561 7.31448C9.67503 7.31448 8.12274 9.37697 7.31328 11.5519L5.07804 17.3495L4.76414 11.6139C4.59397 8.948 2.15406 7.32595 0.182129 7.32595L2.56684 21.8256C5.59086 21.8141 7.22359 19.7631 8.07787 17.5881L9.96823 12.659C9.98543 12.8597 11.2744 21.8267 11.2744 21.8267C14.3122 21.8267 15.9449 19.903 16.8199 17.8026L21.0742 7.3271C18.079 7.3271 16.5003 9.37697 15.6851 11.5646H15.6874ZM44.0947 6.97608C42.224 6.97608 40.7947 7.99473 39.5874 9.49056V9.47914L40.666 0.764404C38.18 0.764404 36.1587 2.92788 35.77 6.14671L33.9004 21.7132C35.3319 21.7132 36.8509 21.2979 37.6673 20.2414C38.3963 21.1844 39.4874 21.9392 41.1075 21.9392C45.2997 21.9392 48.1754 17.0604 48.1754 12.4823C48.1501 8.30674 46.1287 6.98755 44.1074 6.98755L44.0947 6.97608ZM43.7038 14.4588C43.2669 17.0111 41.8457 18.7467 40.4785 18.7467C39.1114 18.7467 38.5078 18.1307 38.5078 18.1307C38.7722 15.8938 38.9355 14.5218 39.4368 13.3392C39.9381 12.1565 41.1317 10.2706 42.3746 10.2706C43.5934 10.2706 44.1453 11.8926 43.7049 14.4576L43.7038 14.4588ZM58.6307 7.31563H55.7055L55.717 7.16421C55.9183 5.2531 56.3702 4.24707 57.8603 4.08303C58.8779 3.98208 59.3298 3.45441 59.4424 2.87626L59.8069 0.851586C53.9429 0.813731 52.0871 3.35231 51.6145 7.2273L51.603 7.31563H51.5398C50.5854 7.31563 49.5322 8.39737 49.3551 9.76816L49.2918 10.2706H51.2512L49.6069 23.8755L49.1033 26.3154C49.1665 26.3154 49.2413 26.3269 49.3034 26.3269C52.0514 26.2259 53.8107 24.051 54.1993 20.8942L55.4825 10.2683H56.4023C57.3061 10.2683 58.3617 9.36211 58.5456 7.85363L58.6307 7.31563ZM73.845 7.06326C70.4681 7.06326 67.2796 9.55255 66.3022 13.4642C65.3249 17.3759 66.8058 22.0022 71.7753 22.0022C76.7449 22.0022 79.5907 17.1843 79.5907 13.174C79.5955 9.18773 76.8978 7.06211 73.8462 7.06211L73.845 7.06326ZM75.2133 14.3315C75.0385 16.1049 74.259 18.796 72.1249 18.796C69.9908 18.796 70.2794 15.6529 70.4864 14.156C70.7129 12.5591 71.6041 10.2832 73.5242 10.2832C75.2512 10.2832 75.4134 12.3331 75.2144 14.3326L75.2133 14.3315ZM96.2781 11.5519L94.4447 17.3243C94.3956 16.8712 93.1527 7.30186 93.1527 7.30186C90.2667 7.30186 88.7211 9.36443 87.9118 11.5393L85.6766 17.3369C85.6655 16.9217 85.3627 11.6013 85.3627 11.6013C85.1812 8.93538 82.743 7.31333 80.7638 7.31333L83.1354 21.813C86.1593 21.8015 87.7921 19.7505 88.6466 17.5755L90.5299 12.6463C90.5418 12.8471 91.8362 21.8141 91.8362 21.8141C94.8743 21.8141 96.5 19.8904 97.3814 17.79L101.639 7.31448C98.652 7.31448 97.0699 9.36443 96.2662 11.5519H96.2781ZM61.3925 0.849293L58.9319 20.729L58.4283 23.1815C58.4904 23.1815 58.5663 23.1929 58.6284 23.1929C61.2752 23.1551 63.1587 20.8298 63.5116 17.8989L64.9294 6.49314C65.3594 3.00933 63.2886 0.846998 61.3925 0.846998V0.849293Z" fill="#F2F2F2"/>
</g>
<defs>
<clipPath id="clip0_53_428">
<rect width="102.25" height="25.5625" fill="white" transform="translate(0.125 0.764404)"/>
</clipPath>
</defs>
</svg>
