<svg width="82" height="34" viewBox="0 0 82 34" fill="none" xmlns="http://www.w3.org/2000/svg">
<g clip-path="url(#clip0_53_360)">
<path d="M0.0822754 25.8268H4.85317V18.1464C4.85317 15.302 6.244 14.0064 8.04616 14.0064C9.75303 14.0064 10.6047 15.3334 10.6047 17.5131V25.8268H15.3779V16.6917C15.3779 12.5517 13.1331 9.67708 9.24759 9.67708C7.1933 9.67708 5.61307 10.5613 4.85317 11.6349V2.1222H0.0822754V25.8268ZM21.4769 7.87376C23.1524 7.87376 24.4782 6.54683 24.4782 4.9027C24.4782 3.25973 23.1513 1.93164 21.4769 1.93164C19.8398 1.94094 18.5152 3.26554 18.507 4.9027C18.5152 6.5387 19.8398 7.86446 21.4769 7.87376ZM19.1077 25.8268H23.8775V10.0233H19.1066V25.8268H19.1077ZM27.7978 32.4323H32.5699V24.2465C33.2008 25.1006 34.7497 26.1742 36.8667 26.1742C41.0067 26.1742 44.1997 22.413 44.1997 17.9256C44.1997 13.4371 41.0067 9.67708 36.8667 9.67708C34.7497 9.67708 33.2008 10.7507 32.5699 11.6036V10.0233H27.7978V32.4323ZM35.7919 21.8437C33.6435 21.8437 32.1888 20.2007 32.1888 17.9256C32.1888 15.6494 33.6435 14.0064 35.7919 14.0064C37.9403 14.0064 39.3951 15.6494 39.3951 17.9256C39.3951 20.2007 37.9403 21.8437 35.7919 21.8437ZM46.3794 32.4323H51.1515V24.2465C51.7824 25.1006 53.3313 26.1742 55.4483 26.1742C59.5883 26.1742 62.7801 22.413 62.7801 17.9256C62.7801 13.4371 59.5883 9.67708 55.4495 9.67708C53.3313 9.67708 51.7836 10.7507 51.1515 11.6036V10.0233H46.3794V32.4323ZM54.3747 21.8437C52.2251 21.8437 50.7715 20.2007 50.7715 17.9256C50.7715 15.6494 52.2251 14.0064 54.3747 14.0064C56.5231 14.0064 57.9767 15.6494 57.9767 17.9256C57.9767 20.2007 56.5231 21.8437 54.3747 21.8437ZM72.2928 26.1742C76.843 26.1742 80.6041 22.571 80.6041 17.9256C80.6041 13.2791 76.843 9.67708 72.2928 9.67708C67.7416 9.67708 63.9815 13.2791 63.9815 17.9256C63.9815 22.571 67.7416 26.1742 72.2928 26.1742ZM72.2928 21.717C70.3025 21.717 68.785 20.1693 68.785 17.9256C68.785 15.6808 70.3025 14.1319 72.2928 14.1319C74.2844 14.1319 75.8007 15.6808 75.8007 17.9256C75.8007 20.1693 74.2844 21.717 72.2928 21.717Z" fill="#F2F2F2"/>
</g>
<defs>
<clipPath id="clip0_53_360">
<rect width="81.3352" height="32.5341" fill="white" transform="translate(0.0822754 0.914795)"/>
</clipPath>
</defs>
</svg>
