<svg width="101" height="25" viewBox="0 0 101 25" fill="none" xmlns="http://www.w3.org/2000/svg">
<g clip-path="url(#clip0_53_376)">
<path d="M51.8871 18.2782C50.4407 18.0469 48.9943 18.2204 47.5479 18.2204C47.1429 18.2204 47.2587 18.5095 47.2587 18.683C47.2587 19.6084 47.2587 20.5338 47.2587 21.4012C47.2587 22.3266 47.3743 23.1941 47.1429 24.1194C48.7051 24.1194 50.2671 24.1194 51.8293 24.1194C51.8293 24.0037 51.945 24.0037 52.0607 24.0037C53.6228 23.6568 54.4328 22.7314 54.3749 21.1699C54.3171 19.5506 53.4493 18.5095 51.8871 18.2782ZM51.7135 23.0784C50.73 23.3098 49.6886 23.1941 48.7051 23.1941C48.3579 23.1941 48.358 22.9628 48.358 22.7314C48.358 22.1531 48.358 21.6326 48.358 21.0542C48.358 20.5338 48.358 19.9554 48.358 19.4349C48.358 19.2036 48.3579 19.0301 48.7051 19.0301C49.6886 19.0879 50.73 18.9144 51.7135 19.1457C52.6971 19.3771 53.2178 19.9554 53.2178 21.0542C53.2178 22.2109 52.755 22.9049 51.7135 23.0784Z" fill="#F2F2F2"/>
<path d="M81.5671 19.4348C81.5671 18.5094 81.22 18.2202 80.3522 18.2202C78.79 18.2202 77.2279 18.2202 75.7237 18.2202C74.7401 18.2202 74.4508 18.5673 74.4508 19.4926C74.4508 20.6492 74.4508 21.7481 74.4508 22.9048C74.4508 23.4832 74.6244 23.8879 75.1451 24.1771C77.0543 24.1771 79.0214 24.1771 80.9307 24.1771C81.5093 23.8879 81.6828 23.4253 81.6828 22.7892C81.5671 21.6324 81.6249 20.5336 81.5671 19.4348ZM79.8893 23.2518C79.2529 23.194 78.6165 23.2518 77.98 23.2518C77.3436 23.2518 76.6494 23.2518 76.013 23.2518C75.6079 23.2518 75.4923 23.194 75.4923 22.7313C75.4923 21.6903 75.4923 20.6492 75.4923 19.5505C75.4923 19.1456 75.5501 19.0299 76.013 19.0299C77.3436 19.0299 78.6165 19.0299 79.9471 19.0299C80.3521 19.0299 80.4678 19.0878 80.4678 19.5505C80.4678 20.5914 80.41 21.6324 80.4678 22.7313C80.4678 23.194 80.2943 23.2518 79.8893 23.2518Z" fill="#F2F2F2"/>
<path d="M7.04884 21.9794C7.04884 20.8806 6.75956 20.5914 5.66029 20.5914C4.56103 20.5914 3.40391 20.5914 2.30466 20.5914C1.95752 20.5914 1.78396 20.4757 1.84181 20.1287C1.84181 19.8974 1.84181 19.666 1.84181 19.3769C1.84181 19.0877 1.89967 19.0298 2.18895 19.0298C3.34606 19.0298 4.50318 19.0298 5.66029 19.0298C5.83386 19.0298 6.00743 19.0298 6.00743 19.2612C5.94957 19.8974 6.35457 19.7239 6.7017 19.666C7.16454 19.6082 7.10669 19.319 7.04884 18.972C6.93312 18.3358 6.47028 18.1624 5.94957 18.1624C4.96602 18.1624 3.92462 18.1624 2.94107 18.1624C1.03183 18.1624 0.858258 18.3358 0.916115 20.1866C0.973971 21.2276 1.20539 21.5168 2.30466 21.5168C3.23035 21.5168 4.15604 21.5168 5.13959 21.5168C6.23886 21.5168 6.23886 21.5167 6.23886 22.6734C6.23886 23.0204 6.181 23.2517 5.71815 23.1939C4.56103 23.1361 3.40391 23.1939 2.2468 23.1939C1.89967 23.1939 1.7261 23.0782 1.7261 22.7312C1.78396 22.3842 1.61038 22.3264 1.3211 22.3842C1.08968 22.442 0.916115 22.4999 0.684692 22.5577C0.684692 22.9047 0.684692 23.1939 0.684692 23.5409C0.684692 23.8301 0.800404 24.1193 1.14754 24.1193H6.52813C7.04883 23.8301 7.28026 23.4252 7.28026 22.8469C6.99098 22.5577 7.04884 22.2685 7.04884 21.9794Z" fill="#F2F2F2"/>
<path d="M97.4201 21.9794C97.4201 20.8806 97.1304 20.5914 96.0312 20.5914C94.9319 20.5914 93.8905 20.5336 92.7913 20.5914C92.2706 20.5914 92.097 20.4179 92.2127 19.9552C92.2127 19.7817 92.2127 19.5504 92.2127 19.3769C92.2127 19.0877 92.3284 19.0298 92.5598 19.0298C93.7169 19.0298 94.8162 19.0298 95.9733 19.0298C96.1468 19.0298 96.3783 18.972 96.3204 19.2612C96.2626 20.013 96.7254 19.7817 97.0726 19.666C97.5937 19.5504 97.3037 19.1455 97.2461 18.8563C97.1304 18.2781 96.6676 18.1624 96.1468 18.1624C95.1633 18.1624 94.1219 18.1624 93.1384 18.1624C91.2291 18.1624 91.0556 18.3937 91.1713 20.3022C91.2291 21.2276 91.4606 21.5168 92.3862 21.5746C93.3698 21.6323 94.2955 21.5746 95.279 21.5746C96.4361 21.5746 96.4361 21.5745 96.4361 22.7312C96.4361 23.1939 96.2626 23.2517 95.8576 23.2517C94.7583 23.2517 93.6591 23.2517 92.5598 23.2517C92.1548 23.2517 91.8655 23.1939 91.9234 22.6734C91.9813 22.442 91.8077 22.3842 91.5762 22.3842C90.9977 22.3842 90.8242 22.6734 90.9398 23.2517C90.9977 23.5988 91.287 23.8301 91.4606 24.1193C93.1962 24.1193 94.9319 24.1193 96.6676 24.1193C97.1883 23.8301 97.4201 23.4252 97.3619 22.8469C97.4201 22.5577 97.4201 22.2685 97.4201 21.9794Z" fill="#F2F2F2"/>
<path d="M36.5554 18.162C36.1503 18.162 35.9768 18.162 35.9768 18.6825C36.0347 20.0127 35.9768 21.3429 35.9768 22.6731C35.9768 23.1358 35.8611 23.2514 35.3983 23.1936C34.4147 23.1936 33.3732 23.1358 32.3897 23.1936C31.8112 23.1936 31.6376 23.0779 31.6376 22.4417C31.6955 21.1693 31.6376 19.8392 31.6376 18.5668C31.6376 18.1042 31.4062 18.0463 31.059 18.1042C30.7697 18.1042 30.4226 17.9885 30.4226 18.509C30.4226 19.8971 30.4226 21.3429 30.4226 22.7309C30.4226 23.2514 30.5962 23.7141 31.059 24.061C32.7947 24.061 34.5303 24.061 36.2661 24.061C36.8447 23.7719 37.0182 23.3093 37.0182 22.7309C37.0182 21.3429 37.0182 20.0127 37.0182 18.6247C37.1339 18.2198 36.9603 18.162 36.5554 18.162Z" fill="#F2F2F2"/>
<path d="M21.6286 18.1624C19.6036 18.1624 17.6365 18.1624 15.6116 18.1624C15.3223 18.1624 15.2065 18.2781 15.2065 18.5672C15.2065 18.8563 15.2065 19.0877 15.6116 19.0298C16.248 19.0298 16.8265 19.0877 17.4629 19.0298C17.9836 18.972 18.0994 19.2034 18.0415 19.666C17.9836 21.1698 18.0415 22.6155 18.0415 24.1193C18.4465 24.1193 18.7936 24.1193 19.1986 24.1193C19.1986 22.6155 19.1986 21.1698 19.1986 19.666C19.1986 19.2034 19.3143 18.972 19.8351 19.0298C20.4715 19.0877 21.05 19.0298 21.6864 19.0298C21.9757 19.0298 22.0915 18.9142 22.0915 18.625C21.9757 18.3937 22.0335 18.1624 21.6286 18.1624Z" fill="#F2F2F2"/>
<path d="M64.3839 18.1624C63.9212 18.1624 63.8054 18.2781 63.8054 18.7407C63.8054 20.5336 63.8054 22.3264 63.8054 24.1193C64.2104 24.1193 64.5576 24.1193 64.9625 24.1193C64.9625 22.3264 64.9625 20.5336 64.9625 18.7407C64.9625 18.3358 64.8468 18.1624 64.3839 18.1624Z" fill="#F2F2F2"/>
<path d="M97.3618 14.9237C97.3618 14.9815 97.3618 15.0394 97.3618 15.0972C97.42 14.9815 97.42 14.9237 97.3618 14.9237C97.3618 14.8659 97.3618 14.8659 97.3618 14.9237Z" fill="#F2F2F2"/>
<path d="M17.5784 1.04413C17.4627 0.928465 17.9255 1.1598 17.5784 1.04413V1.04413Z" fill="#F2F2F2"/>
<path d="M17.5786 14.8667C17.5207 13.8257 17.5786 12.7269 17.5786 11.628C17.5786 10.4714 17.5786 9.37252 17.5786 8.21584C17.5786 5.96032 17.5786 3.7048 17.5786 1.44929C17.5786 1.39145 17.6365 1.10228 17.5786 0.986613C17.5207 0.986613 17.4629 0.92878 17.3472 0.92878C17.1736 0.870946 16.8265 0.92878 16.595 0.92878C16.0743 0.92878 15.4958 0.92878 14.9751 0.92878C14.8015 0.92878 14.5123 0.870945 14.3966 0.986613C14.2808 1.10228 14.3966 1.62279 14.3966 1.79629C14.3966 2.37462 14.3966 2.95296 14.3966 3.53131C14.3966 4.05181 14.3966 4.5723 14.3966 5.03498C14.3966 5.38198 14.5701 6.13383 14.223 6.30732C13.8759 6.48082 13.1815 6.36516 12.7766 6.36516C12.198 6.36516 11.6195 6.36516 11.0409 6.36516C9.76808 6.36516 8.49525 6.36516 7.22242 6.36516C6.87529 6.36516 3.92463 6.48083 3.92463 6.19165C3.92463 4.45664 3.92463 2.66379 3.92463 0.92878C3.80892 1.10228 3.17251 0.986613 2.99894 0.986613C2.59395 0.986613 2.24682 0.986613 1.84182 0.986613C1.66826 0.986613 1.14756 0.870945 1.03184 0.986613C0.916132 1.04445 0.916132 1.21795 0.916132 1.33362C0.858275 2.8373 0.916132 4.39881 0.916132 5.90248C0.916132 7.40617 0.916132 8.96768 0.916132 10.4714C0.916132 11.2232 0.916132 11.9172 0.916132 12.669C0.916132 13.0739 0.916132 13.4209 0.916132 13.8257C0.916132 14.0571 1.03184 14.5198 0.858276 14.7511C1.03184 14.6354 1.32112 14.6933 1.49469 14.6933C1.78397 14.6933 2.07325 14.6933 2.36253 14.6933C2.88323 14.6933 3.40393 14.6354 3.92463 14.6933C3.92463 12.9582 3.92463 11.2232 3.92463 9.48818C3.92463 9.31468 3.86678 9.08335 3.92463 8.90985C3.98249 8.73635 3.98249 8.73635 4.15606 8.73635C4.56105 8.67851 5.0239 8.73635 5.42889 8.73635C6.29672 8.73635 7.16456 8.73635 8.0324 8.73635C9.82593 8.73635 11.5616 8.73635 13.3552 8.73635C13.5287 8.73635 14.1651 8.62067 14.2808 8.79417C14.4544 8.96768 14.2808 9.71952 14.2808 9.89302C14.2808 10.7606 14.2808 11.628 14.2808 12.4955C14.2808 12.9582 14.2808 13.4787 14.2808 13.9414C14.2808 14.1728 14.223 14.5198 14.2808 14.6933C14.3387 14.8667 14.223 14.7511 14.5123 14.8089C14.9751 14.8667 15.5537 14.8089 16.0165 14.8089C16.595 14.8667 17.0579 14.8667 17.5786 14.8667Z" fill="#F2F2F2"/>
<path d="M77.7487 14.9243C77.9801 14.8664 77.9222 15.04 77.9801 14.7508C78.038 14.5195 77.9801 14.1725 77.9801 13.9412C77.9801 13.652 77.9801 13.4207 77.9801 13.1315C77.9801 13.0158 77.9222 12.4953 77.9801 12.4375C77.8065 12.5531 77.3436 12.4953 77.1123 12.4953C76.7651 12.4953 76.4758 12.4953 76.1287 12.4953C75.4345 12.4953 74.7981 12.4953 74.1037 12.4953C72.773 12.4953 71.5002 12.4953 70.1695 12.4953C69.5331 12.4953 68.8967 12.4953 68.2603 12.4953C67.9131 12.4953 67.6239 12.4953 67.2767 12.4953C67.1611 12.4953 66.814 12.4953 66.6982 12.3796C66.5825 12.2639 66.6982 11.8591 66.6982 11.6856C66.6982 11.3387 66.6982 10.9917 66.6982 10.7025C66.6982 10.1241 66.6982 9.54579 66.6982 8.96745C66.6982 8.79394 66.6982 8.79394 66.8718 8.79394C68.2603 8.79394 69.591 8.79394 70.9795 8.79394C71.3266 8.79394 71.6738 8.79394 72.021 8.79394C72.3102 8.79394 72.7152 8.85178 72.9466 8.79394C73.2937 8.73612 73.1781 8.73611 73.1781 8.33128C73.1781 7.98428 73.1781 7.69511 73.1781 7.3481C73.1781 7.1746 73.2937 6.65409 73.1781 6.53842C73.0623 6.36493 72.773 6.48059 72.5995 6.48059C71.9052 6.48059 71.2688 6.48059 70.5746 6.48059C69.8802 6.48059 69.186 6.48059 68.4338 6.48059C67.9131 6.48059 67.3346 6.53842 66.814 6.48059C66.814 6.53842 66.6403 6.42276 66.6403 6.42276C66.5825 6.36493 66.6403 6.13359 66.6403 6.01793C66.6403 5.61309 66.6403 5.20824 66.6403 4.80341C66.6403 4.45641 66.6403 4.05158 66.6403 3.70457C66.6403 3.64674 66.5825 3.4154 66.6982 3.35757C66.6982 3.35757 66.814 3.29973 66.814 3.35757C69.1282 3.35757 71.4424 3.35757 73.7566 3.35757C74.9716 3.35757 76.1287 3.35757 77.3436 3.35757C77.4016 3.35757 77.5751 3.4154 77.6329 3.35757C77.8065 3.29973 77.7487 3.29973 77.7487 3.0684C77.7487 2.77923 77.7487 2.54789 77.7487 2.25872C77.7487 2.08523 77.8643 1.21772 77.7487 1.10205C77.6329 1.15989 77.1123 1.10205 76.9965 1.10205C76.7072 1.10205 76.418 1.10205 76.1287 1.10205C75.5501 1.10205 74.9137 1.10205 74.3352 1.10205C73.1202 1.10205 71.9052 1.10205 70.6902 1.10205C70.1117 1.10205 63.574 1.10205 63.574 1.10205C63.574 5.15041 63.574 9.19878 63.574 13.2472C63.574 13.7098 63.4583 14.2882 63.574 14.7508C63.6318 15.04 63.4583 14.8664 63.7476 14.9821C63.979 15.04 64.3261 14.9821 64.5576 14.9821C65.5411 14.9821 66.5825 14.9821 67.566 14.9821C69.6489 14.9821 71.7317 14.9821 73.8145 14.9821C74.9716 14.9821 76.1287 14.9821 77.2858 14.9821C77.4594 14.9243 77.6329 14.9243 77.7487 14.9243Z" fill="#F2F2F2"/>
<path d="M96.6677 14.9243C97.0726 14.9243 97.2462 15.04 97.2462 14.6351C97.2462 14.1146 97.2462 13.5942 97.2462 13.0737C97.2462 12.958 97.3037 12.4375 97.2462 12.3796C97.1884 12.3218 96.8412 12.3796 96.7833 12.3796C96.3206 12.3796 95.8577 12.3796 95.3948 12.3796C94.4691 12.3796 93.5435 12.3796 92.6178 12.3796C91.5185 12.3796 90.4771 12.3796 89.3778 12.3796C88.8571 12.3796 88.3943 12.3796 87.8736 12.3796C87.7579 12.3796 87.5264 12.4375 87.4686 12.3218C87.4107 12.2061 87.4686 12.0904 87.5843 12.0904C87.5843 12.0904 87.5843 12.0904 87.5843 12.0326L87.7 11.9169C87.7579 11.9169 87.8157 11.9169 87.8157 11.9169C87.8736 11.8591 87.8736 11.8013 87.9314 11.7434C87.9892 11.6278 88.2785 11.3964 88.3364 11.3964C88.3364 11.3386 88.3364 11.3386 88.3364 11.2807L88.3943 11.2229C88.4521 11.1651 88.5678 11.1651 88.5678 11.1072C88.6257 11.0494 88.6836 10.9337 88.7414 10.8759C88.7992 10.8181 88.8572 10.7602 88.9728 10.7602C88.9728 10.7024 88.9728 10.7024 88.9728 10.6446L89.0885 10.5289H89.1463C89.1463 10.4711 89.2043 10.3554 89.2621 10.2976L89.3778 10.1819L89.4357 10.1241C89.4936 10.0663 89.4936 10.0663 89.5514 10.0084C89.725 9.83493 89.8407 9.71926 89.9563 9.6036L90.1878 9.37225C90.2456 9.31442 90.2456 9.31442 90.3036 9.25659C90.3614 9.19876 90.4192 9.19876 90.4192 9.14092L90.5928 9.02525C90.6507 8.96742 90.6507 8.90959 90.7085 8.79392L90.8242 8.67825H90.8821C90.9399 8.56259 91.0556 8.44692 91.1714 8.33125L91.4607 8.09991V8.04208L91.5763 7.92641H91.6342C91.6342 7.86858 91.8078 7.63725 91.8656 7.63725L91.9813 7.52158C92.0392 7.52158 92.0392 7.52158 92.0392 7.52158V7.46374C92.0971 7.40591 92.0971 7.4059 92.1549 7.34807L92.3285 7.17458C92.3285 7.23241 92.3285 7.29024 92.3285 7.29024C92.3285 7.29024 92.502 7.11674 92.4442 7.17458C92.502 7.0589 92.502 7.11674 92.5598 7.0589C92.502 7.11674 92.502 7.0589 92.502 7.00108L92.6178 6.88541C92.7335 6.76974 92.8491 6.65407 92.7335 6.76973C92.7913 6.7119 92.7913 6.7119 92.8491 6.65407C92.9071 6.65407 92.9649 6.65408 92.9071 6.59624L93.0806 6.42273C93.0806 6.42273 93.1385 6.42273 93.1385 6.3649L93.2542 6.24923C93.312 6.1914 93.4856 6.0179 93.5434 5.90223L94.1798 5.26606L94.2377 5.20823L94.5849 4.86122L96.5519 2.89487L96.6098 2.83704C96.6677 2.7792 96.6677 2.7792 96.7255 2.72137L97.0726 2.37437C97.1305 2.2587 97.0726 1.85387 97.0726 1.7382C97.0726 1.62253 97.1305 1.39119 97.0726 1.27553C97.0148 1.04419 97.1884 1.15986 96.8991 1.10203C96.6677 1.04419 96.3784 1.10203 96.1469 1.10203C95.6841 1.10203 95.2213 1.10203 94.8162 1.10203L94.4113 1.04419L94.3534 1.10203C93.312 1.10203 92.2706 1.10203 91.1714 1.10203C88.9728 1.10203 86.7743 1.10203 84.5757 1.10203C84.3444 1.10203 83.2451 0.986359 83.1293 1.10203C83.0715 1.21769 83.1293 1.68036 83.1293 1.85386C83.1293 2.14303 83.1293 2.4322 83.1293 2.7792C83.1293 3.1262 83.0137 3.35755 83.4186 3.41537C83.9972 3.47321 84.5757 3.41537 85.1543 3.41537C85.7329 3.41537 91.8078 3.35755 91.8078 3.47321C91.8078 3.53104 91.9235 3.47321 91.8656 3.64671L91.6342 3.82021C91.6342 3.82021 91.5763 3.87804 91.5763 3.93588L91.4027 4.10938C91.4027 4.10938 91.4027 4.10938 91.3449 4.10938C91.3449 4.10938 91.3449 4.16721 91.2871 4.22505L91.0556 4.45638C90.9978 4.45638 90.9978 4.51422 90.9399 4.45638C90.9399 4.45638 90.9399 4.45638 90.9978 4.51422L90.7663 4.74555C90.7085 4.74555 90.6507 4.74555 90.6507 4.74555C90.6507 4.74555 90.5928 4.86122 90.5928 4.91906L90.4771 5.03473L90.3614 5.15039H90.3036V5.20823L90.0721 5.43956L90.0143 5.49739C89.9563 5.49739 89.8985 5.61306 89.8985 5.6709L89.8407 5.72873L89.725 5.8444H89.6671V5.90223L89.6092 5.96006H89.5514V6.0179L89.3778 6.1914C89.3199 6.24923 89.2621 6.24923 89.2043 6.24923C89.2043 6.24923 89.2043 6.30707 89.1463 6.3649L88.9728 6.5384L87.7 7.81075L82.2615 13.2472V13.4785C82.2037 13.7098 82.2615 14.0568 82.2615 14.3459V14.9243H84.5757L84.6337 14.8665C87.7 14.8665 90.7085 14.8665 93.7749 14.8665C94.7584 14.9243 95.742 14.9243 96.6677 14.9243Z" fill="#F2F2F2"/>
<path d="M92.7341 6.88501H92.6757C92.6174 6.9433 92.5591 7.05989 92.7341 6.88501Z" fill="#F2F2F2"/>
<path d="M35.0511 8.85148C35.2247 8.85148 36.0346 8.96714 36.1503 8.85148C36.3238 8.67797 36.1503 8.0418 36.1503 7.81047C36.1503 7.46347 36.266 6.94297 36.1503 6.6538C36.0925 6.53813 36.0925 6.48029 36.1503 6.48029C36.1503 6.48029 36.0925 6.48029 35.9767 6.48029C35.8032 6.42246 35.514 6.48029 35.3403 6.48029C34.9354 6.48029 34.5303 6.48029 34.1254 6.48029C33.7782 6.48029 33.3154 6.59596 32.9683 6.48029C32.9683 7.23213 33.0261 8.0418 32.9683 8.79364C32.9683 8.96714 34.8196 8.85148 35.0511 8.85148Z" fill="#F2F2F2"/>
<path d="M57.6148 14.2885C57.4991 14.1729 57.4412 14.115 57.3255 14.0572C57.2677 13.9993 57.2097 13.8258 57.1519 13.768C56.9784 13.768 57.094 13.7102 57.0362 13.6523C56.9784 13.6523 56.8626 13.5945 56.8626 13.4788C56.8048 13.3632 56.3998 13.2475 56.4577 13.0741C56.3419 13.0741 55.7633 12.4957 55.7633 12.3801C55.7633 12.3801 55.2427 11.9174 55.2427 11.8595C55.1848 11.8595 54.9534 11.686 54.9534 11.5704C54.7798 11.6282 54.6642 11.339 54.6062 11.2812C54.4905 11.1655 54.2591 11.0498 54.2591 10.8763C54.2013 10.8763 53.9698 10.645 53.9698 10.5872C53.7963 10.5293 53.6805 10.3558 53.5649 10.298C53.507 10.2402 53.4491 10.0667 53.3913 10.0088C53.2756 9.951 53.1598 9.89317 53.0442 9.7775C52.9863 9.71967 52.9284 9.66184 52.8706 9.604C52.8706 9.54617 52.7549 9.48833 52.7549 9.37267C52.6391 9.37267 52.4078 9.0835 52.4656 9.02567C52.5813 8.79432 53.7384 9.02567 53.9698 8.96783C54.0277 8.96783 54.1434 8.90999 54.2013 8.85216C54.3749 8.79432 54.6062 8.85216 54.7798 8.85216C54.8955 8.85216 55.1269 8.85216 55.2427 8.79432C55.474 8.7365 55.6477 8.50516 55.9369 8.50516C55.9369 8.38949 55.9948 8.3895 56.1105 8.3895C56.1105 8.21599 56.1684 8.33166 56.2262 8.27382C56.2262 8.21599 56.5155 7.92682 56.5155 7.92682C56.5155 7.75332 56.6312 7.75332 56.6312 7.57982C56.6891 7.46415 56.7469 7.40632 56.8048 7.29065C56.8626 7.17498 56.8048 6.82797 56.8048 6.71231C56.8048 6.42315 56.8626 6.1918 56.8626 5.90263C56.8626 5.43997 56.8626 5.03513 56.8626 4.57246C56.8626 3.99412 56.8626 3.35795 56.8048 2.77961C56.8048 2.60611 56.6891 2.49045 56.6312 2.31694C56.5733 2.20128 56.3998 2.02777 56.5155 1.9121C56.3419 1.85427 56.3998 1.85427 56.284 1.79644C56.2262 1.7386 56.0526 1.5651 56.1105 1.50727C56.0526 1.50727 56.1684 1.62294 55.9948 1.50727C55.8213 1.50727 55.9369 1.44944 55.8213 1.3916C55.7633 1.3916 55.5898 1.33377 55.532 1.27593C55.4162 1.2181 55.3005 1.2181 55.1848 1.2181C54.7798 1.10243 54.2591 1.10243 53.7963 1.10243C52.3498 1.10243 50.8456 1.10243 49.3992 1.10243C47.895 1.10243 46.3328 1.10243 44.8286 1.10243C44.1344 1.10243 43.44 1.10243 42.7458 1.10243C42.5722 1.10243 42.0515 0.986766 41.9358 1.10243C41.8202 1.2181 41.9358 1.9121 41.9358 2.08561C41.9358 5.09297 41.9358 8.10032 41.9358 11.1077C41.9358 11.8017 41.9358 12.4957 41.9358 13.1897C41.9358 13.5945 41.9358 13.9415 41.9358 14.3464C41.9358 14.462 41.878 14.6934 41.9358 14.809C41.9937 15.0404 41.8202 14.9247 42.1094 14.9826C42.7458 15.0982 43.4979 14.9826 44.1344 14.9826C44.3079 14.9826 44.8286 15.0982 44.9444 14.9826C45.06 14.8669 44.9444 13.8837 44.9444 13.7102C44.9444 12.9006 44.9444 12.0909 44.9444 11.2812C44.9444 10.9342 44.9444 10.5293 44.9444 10.1823C44.9444 9.95101 44.8286 9.31483 44.9444 9.14133C45.06 8.85216 45.5229 8.96783 45.8122 8.96783C46.2172 8.96783 46.5643 8.96783 46.9693 8.96783C47.2007 8.96783 48.7628 8.79432 48.6471 9.257C48.705 9.257 49.0521 9.66184 49.1099 9.71967C49.2835 9.83533 49.5149 10.0667 49.5728 10.2402C49.5728 10.1823 49.6885 10.298 49.6885 10.3558C49.6885 10.1823 49.9199 10.5872 49.8621 10.5293C49.9199 10.5872 50.0356 10.645 50.0935 10.7028C50.267 10.8763 50.3249 11.1077 50.4985 11.2233C50.5563 11.2812 50.5563 11.339 50.5563 11.339C50.6142 11.339 50.6721 11.2812 50.7299 11.339C50.7878 11.3968 50.7299 11.4547 50.7299 11.5125C50.7299 11.5704 51.0192 11.686 51.0192 11.8017C51.1349 11.686 51.2507 11.9752 51.2507 12.033C51.3085 12.0909 51.3663 12.0909 51.4242 12.1487C51.482 12.2065 51.5399 12.3222 51.5399 12.3222C51.5978 12.38 52.2342 13.0162 52.2342 13.0162C52.292 13.0162 52.5234 13.421 52.5234 13.421C52.6391 13.421 52.5813 13.4788 52.6391 13.5367H52.7549C52.8127 13.5945 52.8127 13.6523 52.8127 13.6523C52.8705 13.7102 53.0442 13.8837 53.0442 13.9415C53.1598 13.9415 53.2756 13.9415 53.2177 14.115C53.3334 14.115 53.6227 14.462 53.6805 14.5199C53.7384 14.5777 53.7963 14.6355 53.8542 14.6934C54.0856 14.9247 54.0277 14.9247 54.4327 14.9247C55.7055 14.9247 56.9784 14.9247 58.2512 14.9247C58.1355 14.5777 57.7884 14.5199 57.6148 14.2885ZM52.0027 6.36531C51.482 6.36531 50.9034 6.36531 50.3828 6.36531C49.2256 6.36531 48.0685 6.36531 46.9693 6.36531C46.4486 6.36531 45.87 6.36531 45.3493 6.36531C44.9444 6.36531 44.8286 6.48097 44.7708 6.01831C44.7708 5.4978 44.7708 4.91946 44.7708 4.39896C44.7708 4.10979 44.7129 3.82062 44.7708 3.53145C44.7708 3.47362 44.7708 3.41578 44.7708 3.35795L44.8864 3.30011C44.8864 3.18445 52.6391 3.30011 52.6391 3.24228H52.8127C52.8127 3.35795 53.102 3.35795 53.2177 3.35795C53.3913 3.41578 53.507 3.58928 53.5649 3.64712C53.8542 3.99412 53.8542 4.74596 53.7963 5.20863C53.7963 5.3243 53.7963 5.43997 53.7963 5.55563C53.7963 5.4978 53.5649 5.90264 53.6805 5.78697C53.6227 5.8448 53.507 6.01831 53.3913 6.07614C53.3913 6.07614 53.102 6.30747 53.102 6.1918C53.102 6.13398 52.697 6.30748 52.6391 6.30748C52.4078 6.36531 52.2342 6.36531 52.0027 6.36531Z" fill="#F2F2F2"/>
<path d="M27.9348 14.4616C27.9348 11.4543 27.9348 8.44692 27.9348 5.43956C27.9348 4.68773 27.9348 3.93588 27.9348 3.24188C27.9348 2.83704 27.9348 2.49003 27.9348 2.0852C27.9348 1.85386 27.9928 1.50686 27.9348 1.27553C27.8192 0.928523 27.2406 1.10203 26.9513 1.10203C26.6042 1.10203 26.1992 1.10203 25.852 1.10203C25.6785 1.10203 25.1 1.15986 24.9264 1.04419C24.9264 5.6709 24.9264 10.2976 24.9264 14.9243C25.3893 14.8086 26.0257 14.9243 26.4884 14.9243C26.7199 14.9243 27.0092 14.9243 27.2406 14.9243C27.4142 14.9243 27.8192 14.8665 27.9928 14.9821C27.9348 14.7508 27.9348 14.5773 27.9348 14.4616Z" fill="#F2F2F2"/>
<path d="M99.1556 2.02782C99.271 1.97 99.3865 1.91216 99.3865 1.79649C99.3865 1.68082 99.3292 1.62299 99.271 1.56516C99.2128 1.50732 99.0974 1.50732 98.9237 1.50732C98.7501 1.50732 98.6346 1.50732 98.5192 1.56516V2.60617H98.7501V2.20133H98.8655C98.9819 2.20133 99.0392 2.25917 99.0974 2.37483C99.1556 2.4905 99.1556 2.60617 99.1556 2.60617H99.3865C99.3865 2.54833 99.3292 2.4905 99.3292 2.37483C99.3292 2.08566 99.271 2.02782 99.1556 2.02782ZM98.8655 1.91216H98.7501V1.62299C98.7501 1.62299 98.8083 1.62299 98.8655 1.62299C99.0392 1.62299 99.0974 1.68082 99.0974 1.79649C99.0974 1.85433 98.9819 1.91216 98.8655 1.91216Z" fill="#F2F2F2"/>
<path d="M98.9237 0.928711C98.3455 0.928711 97.8827 1.39138 97.8827 1.96972C97.8827 2.54806 98.3455 3.01073 98.9237 3.01073C99.5019 3.01073 99.9656 2.54806 99.9656 1.96972C99.9656 1.39138 99.5019 0.928711 98.9237 0.928711ZM98.9237 2.77939C98.4609 2.77939 98.1136 2.4324 98.1136 1.96972C98.1136 1.50705 98.4609 1.16005 98.9237 1.16005C99.3864 1.16005 99.7337 1.50705 99.7337 1.96972C99.6755 2.4324 99.3864 2.77939 98.9237 2.77939Z" fill="#F2F2F2"/>
</g>
<defs>
<clipPath id="clip0_53_376">
<rect width="99.9261" height="23.2735" fill="white" transform="translate(0.286987 0.903076)"/>
</clipPath>
</defs>
</svg>
