<svg width="114" height="45" viewBox="0 0 114 45" fill="none" xmlns="http://www.w3.org/2000/svg">
<g clip-path="url(#clip0_53_371)">
<path d="M106.192 19.77C106.564 19.77 106.787 20.0315 106.88 20.3859C107.085 21.1342 106.118 22.9456 102.735 25.0197C102.827 22.5912 104.278 19.77 106.192 19.77ZM95.8756 19.77C96.4334 19.77 96.4706 20.3301 96.5066 20.5358C96.6565 21.5827 95.6897 23.451 92.5107 24.5154C92.8453 22.2728 94.314 19.77 95.8756 19.77ZM82.2311 10.9882C83.2908 10.9882 82.417 14.6506 79.0334 19.77C79.7957 12.9879 80.9297 10.9882 82.2311 10.9882ZM70.5014 19.77C70.8174 19.77 70.8918 20.0315 70.9476 20.1628C71.0777 20.6287 70.5943 22.4785 66.9319 25.0568C67.1178 22.5912 68.6237 19.77 70.5014 19.77ZM55.2952 40.5465C54.9234 40.5465 54.6631 40.3037 54.6631 39.818C54.6631 37.6127 58.0838 34.6044 58.121 34.5858C57.6562 37.5569 56.4664 40.5465 55.2952 40.5465ZM111.843 25.991C111.267 25.5995 110.486 25.7668 110.095 26.3466C110.04 26.4395 108.497 28.6821 105.839 28.6821C104.798 28.6821 103.999 28.3649 103.478 27.7107C103.441 27.6735 103.404 27.6166 103.385 27.5794C103.404 27.5794 103.404 27.5608 103.422 27.5608C109.668 23.9553 109.631 20.8727 109.333 19.7143C108.961 18.3316 107.735 17.4346 106.211 17.4346C102.642 17.4346 100.243 21.4514 100.243 25.1881C100.243 25.6552 100.281 26.1223 100.355 26.5522C99.0907 27.4864 97.1201 28.6635 95.3923 28.6635C94.3884 28.6635 93.6261 28.3649 93.1428 27.7665C92.9755 27.5608 92.8453 27.318 92.7338 27.0751C97.5291 25.6738 99.3324 22.6098 98.9977 20.1628C98.7747 18.5558 97.5848 17.4346 96.0987 17.4346C92.771 17.4346 90.3541 20.9471 89.9637 24.441C89.3316 24.3655 88.7553 24.1796 88.2348 23.8612C88.3277 23.3012 88.3649 22.7597 88.3649 22.2543C88.3649 21.1156 88.1418 20.1244 87.7328 19.3959C87.1751 18.3873 86.2641 17.8273 85.187 17.8273C84.6107 17.8273 84.0902 18.1445 83.7927 18.686C83.1792 19.8258 83.5696 22.03 84.7037 23.824C84.9268 24.1796 85.1684 24.4968 85.4275 24.7768C84.7966 26.7951 83.5138 28.7007 81.8221 28.7007C81.0599 28.7007 80.5021 28.4578 80.0373 27.9535C79.3681 27.225 78.9405 25.9353 78.8103 24.3097C83.5138 18.4059 85.7808 12.6323 84.4992 9.90525C84.053 8.97105 83.235 8.44702 82.2311 8.44702C78.9777 8.44702 77.0442 12.6695 76.3192 21.3584C76.282 21.8813 76.2448 22.5354 76.2448 23.2268C74.5158 25.5809 71.6726 28.6635 69.1071 28.6635C68.382 28.6635 67.8429 28.4206 67.4711 27.8978C67.4339 27.8594 67.4153 27.8036 67.3781 27.7665C67.4153 27.7479 67.4339 27.7293 67.4711 27.7107C73.7734 23.6184 73.6804 20.5544 73.3458 19.4145C72.9926 18.1817 71.8957 17.416 70.4828 17.416C66.8204 17.416 64.3478 21.657 64.3478 25.5995C64.3478 25.9538 64.3664 26.3094 64.4221 26.6452C63.2707 27.4864 62.3039 28.2336 61.393 28.9435C61.5231 27.8594 61.7276 26.4965 61.9693 24.441C62.0251 24.0297 62.0623 23.6939 62.0994 23.5254C62.3039 22.03 59.8685 21.7128 59.5897 23.3941C59.3108 25.1138 58.5858 28.6821 56.5594 28.6821C55.3509 28.6821 54.7003 27.318 54.8304 25.3566C55.0163 22.2543 56.6895 19.7143 58.7531 19.7143C59.4595 19.7143 59.8314 20.48 59.8314 20.48C60.482 21.6756 62.5084 20.6671 62.0809 19.3959C61.8949 18.8359 61.2071 17.4346 58.846 17.4346C54.0124 17.4346 52.5077 22.3484 52.302 25.5995C52.266 26.1409 52.2834 26.6452 52.3218 27.1495C51.6525 27.9721 50.8345 28.6821 50.0537 28.6821C49.2915 28.6821 48.8081 27.8222 49.087 25.8423C49.3658 23.9553 49.5517 22.3856 49.6819 21.47C50.2768 17.3404 45.1271 17.4532 45.1271 17.4532C45.1271 17.4532 45.0713 15.0433 43.0821 15.0433C42.0596 15.0433 41.1672 15.8276 41.1672 17.3219C41.1672 18.7046 42.3013 19.3773 42.3013 19.3773C42.0596 21.5257 41.0569 28.6635 38.826 28.6635C37.822 28.6635 37.7663 27.5794 37.8406 26.8137C37.9708 25.7482 38.1567 23.9739 38.2125 23.5068C38.417 22.0114 35.9629 21.6942 35.7027 23.3755C35.4238 25.0952 34.6988 28.6635 32.6724 28.6635C31.4639 28.6635 30.8133 27.1309 30.9062 25.2811C31.0735 22.1055 32.7839 19.6957 34.8475 19.6957C35.5539 19.6957 35.9258 20.4614 35.9258 20.4614C36.4649 21.6384 38.5843 20.7972 38.1753 19.3773C37.9894 18.7615 37.3015 17.416 34.9404 17.416C30.108 17.416 28.6021 22.3298 28.3976 25.5809C28.3604 26.0851 28.379 26.5708 28.4162 27.0379C27.7283 27.9907 26.8917 28.6635 26.1109 28.6635C25.3859 28.6635 24.8467 28.2893 24.9769 26.6638C25.0327 25.8981 25.925 20.6856 25.8692 19.7329C25.7763 18.1445 25.0512 17.4532 23.3037 17.4532C21.4632 17.4532 20.0689 18.4059 19.474 19.0229C19.474 19.0229 20.3477 12.4266 20.5151 11.1752C20.6824 9.84831 18.1552 9.82972 17.9879 11.1566C17.9135 11.7353 17.2442 16.9489 16.6121 21.7686C15.2364 24.9453 12.3734 29.8033 8.13468 29.8033C0.104568 29.8033 3.80416 12.2024 11.3323 12.2024C13.0985 12.2024 12.299 15.0247 11.1278 16.7618C10.2912 17.9946 12.4106 19.4145 13.5818 17.416C16.8166 11.9224 14.0838 9.84831 11.5182 9.84831C0.34625 9.84831 -3.79836 32.2318 7.83839 32.2318C11.667 32.2318 14.2325 30.0648 15.8871 27.7479C15.7198 29.0748 15.5896 29.9706 15.571 30.1391C15.3665 31.5218 17.9507 31.4103 18.0808 30.2518C18.1738 29.5233 18.5456 26.4209 18.8791 24.0669C19.065 22.7214 20.701 20.2371 22.5787 20.2371C23.0248 20.2371 23.3037 20.6856 23.2479 21.0586C23.1736 21.5071 22.3742 27.3551 22.4299 28.2336C22.5787 30.6806 24.3262 31.2418 25.9808 31.2418C27.3007 31.2418 28.3418 30.6248 29.2156 29.6348C29.8105 30.6248 30.7017 31.2418 31.9287 31.2418C34.7174 31.2418 35.6841 29.2235 35.6841 29.2235C35.6841 29.2235 36.0187 31.2232 38.4355 31.2232C43.3238 31.2232 44.4578 22.6656 44.6995 19.8072C44.9784 19.8258 46.7073 19.9188 47.0048 20.8913C47.2836 21.8255 46.4099 24.814 46.3355 27.8792C46.2983 29.5035 46.8932 31.2418 49.4402 31.2418C51.0018 31.2418 52.2102 30.5319 53.1014 29.7092C53.6964 30.662 54.5887 31.2418 55.7785 31.2418C57.1543 31.2418 58.0838 30.7933 58.6787 30.3448C58.6415 30.6062 58.6044 30.8677 58.5672 31.1291C58.5672 31.1477 58.5672 31.1674 58.5672 31.186C58.5672 31.1291 52.1161 35.8186 52.1161 40.2282C52.1161 41.9478 52.9155 43.0865 54.9419 43.0865C58.9762 43.0865 60.2404 37.6684 60.8353 33.1845C60.8724 32.9789 60.891 32.7732 60.9096 32.5873C61.5417 32.1005 62.1366 31.6531 62.6944 31.2046C63.5309 30.5504 64.3478 29.9149 65.2773 29.2235C65.3145 29.299 65.3703 29.3734 65.4075 29.4292C66.2626 30.6248 67.5268 31.2418 69.0885 31.2418C72.0072 31.2418 74.7204 28.9807 76.6724 26.7765C76.9698 27.8594 77.4346 28.9063 78.1783 29.7092C79.1078 30.7375 80.372 31.2604 81.8221 31.2604C84.6107 31.2604 86.5616 29.0179 87.5655 26.4209C88.3277 26.7765 89.1643 26.9822 90.0753 27.0379C90.2798 27.9535 90.6516 28.7564 91.1721 29.4292C91.86 30.2518 93.1242 31.2418 95.3737 31.2418C97.6034 31.2418 99.8158 30.0462 101.284 29.0179C101.359 29.1306 101.433 29.2235 101.508 29.3362C102.214 30.2135 103.515 31.2418 105.821 31.2418C109.872 31.2418 112.085 27.9163 112.178 27.7665C112.587 27.1681 112.419 26.3838 111.843 25.991Z" fill="#F2F2F2"/>
</g>
<defs>
<clipPath id="clip0_53_371">
<rect width="112.707" height="44.1534" fill="white" transform="translate(0.39624 0.105225)"/>
</clipPath>
</defs>
</svg>
