<svg width="152" height="34" viewBox="0 0 152 34" fill="none" xmlns="http://www.w3.org/2000/svg">
<g clip-path="url(#clip0_53_350)">
<path fill-rule="evenodd" clip-rule="evenodd" d="M16.5543 33.4956C25.5731 33.4956 32.8842 26.1892 32.8842 17.1763C32.8842 8.16334 25.5731 0.856934 16.5543 0.856934C7.53561 0.856934 0.224487 8.16334 0.224487 17.1763C0.224487 26.1892 7.53561 33.4956 16.5543 33.4956ZM19.8705 13.7868L19.0666 15.8205C19.9458 16.3728 20.4483 17.352 20.4483 18.3813C20.3981 19.9882 19.0666 21.2436 17.4587 21.1934C15.8508 21.1431 14.5947 19.8124 14.645 18.2056C14.6952 16.6992 15.901 15.4691 17.4085 15.3937L18.1621 13.3098C15.1474 12.9081 12.3588 15.0673 12.3588 18.2308V23.4781H14.645V22.6496C15.4991 23.2019 16.5291 23.4781 17.534 23.4781C20.3479 23.5283 22.6843 21.2686 22.7094 18.4316C22.7596 16.4733 21.6543 14.6656 19.8705 13.7868ZM12.3588 13.5358C13.012 12.8831 13.7907 12.3558 14.645 11.9792V8.69022H12.3588V13.5358ZM54.6657 23.5032V8.71532H52.3041V23.5032H54.6657ZM97.2991 23.4781V17.3771C97.2739 14.6907 95.3396 13.1341 93.0282 13.1341C91.6465 13.109 90.315 13.7618 89.4859 14.8665C88.7322 13.7618 87.4509 13.109 86.0943 13.1341C84.9387 13.1341 83.8332 13.6362 83.0796 14.515V13.335H80.718V23.5032H83.0796V17.8039V17.7286C83.0545 16.3979 84.1096 15.3184 85.4411 15.3184C86.7977 15.3184 87.8278 16.2473 87.8278 17.7789V23.4781H90.1893V17.7035V17.6282C90.1893 16.3478 91.2445 15.3184 92.5509 15.3184C93.8824 15.3184 94.9124 16.2725 94.9375 17.7789V23.4781H97.2991ZM105.088 15.6448V13.1341C103.73 13.109 102.475 13.7116 101.645 14.766V13.335H99.2838V23.5032H101.645V18.2308C101.645 16.6741 102.801 15.4942 105.088 15.6448ZM107.8 19.2601H115.814C116.392 15.5443 113.679 13.1341 110.74 13.1593H110.539C107.675 13.2094 105.414 15.5694 105.489 18.4316C105.489 21.3691 107.725 23.704 110.966 23.704C112.976 23.7291 114.785 22.5993 115.664 20.7916L113.679 19.9631C113.126 20.9925 112.021 21.6453 110.84 21.595C109.383 21.6453 108.102 20.6661 107.8 19.2601ZM113.679 17.4525H107.826C108.177 16.1218 109.408 15.1929 110.815 15.2179C112.172 15.2179 113.353 16.1469 113.679 17.4525ZM127.798 23.4781V13.3098L125.437 13.335V14.6907C124.582 13.6865 123.326 13.109 122.02 13.1341C119.181 13.1341 117.071 15.2933 117.071 18.4065C117.071 21.5198 119.181 23.6789 122.02 23.6789C123.352 23.704 124.608 23.1266 125.437 22.1222V23.4781H127.798ZM122.447 15.2681C124.18 15.2681 125.437 16.6741 125.437 18.4065C125.437 20.1388 124.156 21.5448 122.447 21.5448C120.713 21.5448 119.482 20.1388 119.482 18.4065C119.482 16.6741 120.713 15.2681 122.447 15.2681ZM134.782 13.1341C131.843 13.109 129.456 15.4691 129.456 18.4065V18.6826C129.531 21.5198 131.893 23.7794 134.732 23.704C136.918 23.7542 138.877 22.4486 139.681 20.415L137.546 19.5865C137.094 20.7916 135.913 21.5699 134.631 21.5198C132.998 21.4444 131.742 20.0636 131.818 18.4316C131.818 16.7243 132.974 15.3435 134.757 15.3435C135.938 15.3686 136.993 16.0715 137.471 17.1512L139.656 16.3979C138.827 14.4145 136.918 13.1341 134.782 13.1341ZM150.961 23.5032V17.6031C150.961 14.7911 148.977 13.1341 146.616 13.1341C145.359 13.109 144.153 13.6865 143.35 14.6405V8.71532H140.988V23.5032H143.35V18.0299V17.8541C143.374 16.423 144.555 15.2933 145.987 15.3184C147.444 15.3184 148.6 16.2976 148.6 17.9797V23.5032H150.961ZM42.1544 8.69022V14.038C43.0337 13.4856 44.0387 13.2094 45.0185 13.2345C45.6968 13.2094 46.3751 13.335 47.0032 13.586C48.1839 14.1132 49.1135 15.0422 49.6411 16.1971C50.872 18.8333 49.6913 21.9968 47.0283 23.2019C46.4002 23.453 45.7219 23.5784 45.0436 23.5784C44.0387 23.5784 43.0086 23.3023 42.1544 22.7499V23.4781H39.7929V8.69022H42.1544ZM42.1544 19.938C42.6569 20.8921 43.6618 21.5198 44.7672 21.4947C46.4002 21.4444 47.7066 20.1388 47.7568 18.5069C47.8071 16.7997 46.4756 15.3686 44.7672 15.3184C43.6869 15.2933 42.6569 15.8958 42.1544 16.875C41.652 17.829 41.652 18.9839 42.1544 19.938ZM61.7001 12.9583C58.7607 13.0086 56.374 15.4439 56.4242 18.4065V18.6325C56.5247 21.5198 58.9365 23.7542 61.8005 23.6789H61.8759C64.8153 23.6287 67.2019 21.1934 67.1517 18.2308C67.1015 15.2933 64.6645 12.9081 61.7001 12.9583ZM64.966 18.5069C64.9157 20.2142 63.4838 21.5448 61.7754 21.4947H61.7001C60.042 21.4444 58.7356 20.0636 58.7858 18.4065V18.3061C58.836 16.5989 60.268 15.2681 61.9763 15.3184C63.6847 15.3686 65.0162 16.7997 64.966 18.5069ZM73.6083 12.9583C70.6437 13.0086 68.2822 15.4439 68.3324 18.4065C68.3324 18.4818 68.3324 18.5572 68.3576 18.6325C68.433 21.4947 70.8448 23.7542 73.7087 23.6789H73.7841C76.7486 23.6287 79.1101 21.1934 79.0599 18.2308C79.0097 15.2681 76.5728 12.9081 73.6083 12.9583ZM76.8743 18.5069C76.824 20.2142 75.392 21.5448 73.6836 21.4947H73.6083C71.9501 21.4444 70.6437 20.0636 70.694 18.4065V18.3061C70.7442 16.5989 72.1763 15.2681 73.8846 15.3184C75.593 15.3686 76.9245 16.7997 76.8743 18.5069Z" fill="#F2F2F2"/>
</g>
<defs>
<clipPath id="clip0_53_350">
<rect width="151.051" height="32.6387" fill="white" transform="translate(0.224487 0.856934)"/>
</clipPath>
</defs>
</svg>
