<svg width="129" height="21" viewBox="0 0 129 21" fill="none" xmlns="http://www.w3.org/2000/svg">
<g clip-path="url(#clip0_53_398)">
<path fill-rule="evenodd" clip-rule="evenodd" d="M13.5119 10.5289V20.0653H9.9785V11.8913C9.9785 10.0284 9.00473 9.44457 7.47451 9.44457C6.11121 9.44457 5.02614 10.2231 4.41405 11.0293V20.0653H0.880615V1.52075H4.41405V8.38807C5.27654 7.35936 6.94589 6.30285 9.14383 6.30285C12.093 6.30285 13.5119 7.91541 13.5119 10.5289ZM30.1658 13.337C30.1658 17.1738 27.4948 20.3991 23.0432 20.3991C18.6196 20.3991 15.9486 17.1738 15.9486 13.337C15.9486 9.52809 18.6196 6.30295 23.0432 6.30295C27.4948 6.30295 30.1658 9.52809 30.1658 13.337ZM19.6212 13.337C19.6212 15.4501 20.8453 17.2572 23.0432 17.2572C25.2413 17.2572 26.4933 15.4501 26.4933 13.337C26.4933 11.2518 25.2413 9.44467 23.0432 9.44467C20.8453 9.44467 19.6212 11.2518 19.6212 13.337ZM52.8053 20.0655V10.3622C52.8053 7.60969 51.3307 6.30295 48.8546 6.30295C46.7958 6.30295 45.0151 7.52628 44.236 8.7496C43.7352 7.22045 42.4832 6.30295 40.5079 6.30295C38.4491 6.30295 36.6684 7.58188 36.112 8.38818V6.63659H32.5785V20.0655H36.112V11.0294C36.6405 10.2788 37.6701 9.44467 38.8941 9.44467C40.3409 9.44467 40.8974 10.3344 40.8974 11.5855V20.0655H44.4587V11.0016C44.9595 10.2788 45.9889 9.44467 47.2408 9.44467C48.6876 9.44467 49.244 10.3344 49.244 11.5855V20.0655H52.8053ZM67.9146 18.5362C66.5792 19.7595 64.4646 20.3991 62.378 20.3991C58.2881 20.3991 55.1998 17.6466 55.1998 13.337C55.1998 9.44467 58.0655 6.30295 62.1554 6.30295C66.1618 6.30295 68.8884 9.30566 68.8884 13.6985V14.477H58.9002C59.1227 16.1729 60.486 17.5908 62.7674 17.5908C63.9082 17.5908 65.4941 17.0904 66.3565 16.2563L67.9146 18.5362ZM58.8446 12.086H65.4663C65.3828 10.807 64.4925 9.11104 62.1554 9.11104C59.9574 9.11104 59.0114 10.7514 58.8446 12.086ZM74.7654 15.7559V11.0016C75.3497 10.1119 76.6572 9.44466 77.7981 9.44466C79.8569 9.44466 81.2202 11.0294 81.2202 13.3649C81.2202 15.7003 79.8569 17.2572 77.7981 17.2572C76.6572 17.2572 75.3497 16.6178 74.7654 15.7559ZM74.7654 20.0655V18.3415C75.8226 19.6761 77.2972 20.399 78.9109 20.399C82.3053 20.399 84.8649 17.8411 84.8649 13.3649C84.8649 8.97201 82.333 6.30294 78.9109 6.30294C77.325 6.30294 75.8226 6.99801 74.7654 8.36035V1.52084H71.2319V20.0655H74.7654ZM98.9274 11.3909V20.0655H95.3939V18.6751C94.4757 19.7595 92.8899 20.3991 91.1371 20.3991C88.9948 20.3991 86.4629 18.9532 86.4629 15.9506C86.4629 12.8088 88.9948 11.6133 91.1371 11.6133C92.9178 11.6133 94.5036 12.1972 95.3939 13.2537V11.4465C95.3939 10.0841 94.2254 9.19445 92.4447 9.19445C90.998 9.19445 89.6625 9.72271 88.5218 10.7792L87.1863 8.41596C88.8279 6.97023 90.9423 6.30295 93.0568 6.30295C96.1172 6.30295 98.9274 7.52628 98.9274 11.3909ZM90.0241 16.034C90.0241 17.2851 91.165 18.008 92.5561 18.008C93.6967 18.008 94.8096 17.6187 95.3939 16.8402V15.172C94.8096 14.3936 93.6967 14.0043 92.5561 14.0043C91.165 14.0043 90.0241 14.7272 90.0241 16.034ZM107.064 20.3991C110.793 20.3991 112.879 18.5362 112.879 16.0895C112.879 12.7172 109.8 12.0879 107.474 11.6124C106.059 11.3233 104.922 11.091 104.922 10.3344C104.922 9.58369 105.757 8.99982 107.037 8.99982C108.678 8.99982 110.209 9.6949 111.015 10.5568L112.434 8.13794C111.099 7.08143 109.29 6.30295 107.009 6.30295C103.475 6.30295 101.5 8.27695 101.5 10.529C101.5 13.7327 104.437 14.3287 106.748 14.7979C108.249 15.1023 109.485 15.3533 109.485 16.2287C109.485 17.0627 108.762 17.6743 107.231 17.6743C105.563 17.6743 103.559 16.7568 102.585 15.8393L101.055 18.3139C102.474 19.6205 104.727 20.3991 107.064 20.3991ZM127.125 18.5362C125.79 19.7595 123.676 20.3991 121.589 20.3991C117.5 20.3991 114.412 17.6466 114.412 13.337C114.412 9.44467 117.277 6.30295 121.367 6.30295C125.374 6.30295 128.099 9.30566 128.099 13.6985V14.477H118.112C118.334 16.1729 119.698 17.5908 121.979 17.5908C123.12 17.5908 124.705 17.0904 125.568 16.2563L127.125 18.5362ZM118.056 12.086H124.677C124.594 10.807 123.704 9.11104 121.367 9.11104C119.169 9.11104 118.223 10.7514 118.056 12.086Z" fill="#F2F2F2"/>
</g>
<defs>
<clipPath id="clip0_53_398">
<rect width="127.812" height="19.7296" fill="white" transform="translate(0.84375 0.669189)"/>
</clipPath>
</defs>
</svg>
