<svg width="92" height="24" viewBox="0 0 92 24" fill="none" xmlns="http://www.w3.org/2000/svg">
<g clip-path="url(#clip0_53_355)">
<path d="M7.25192 23.4545C6.01607 23.3967 4.95476 23.1466 4.07258 22.7053C3.23836 22.2881 2.62808 21.7486 2.1035 20.9648C1.39011 19.8988 1.06635 18.6816 0.968122 16.6962C0.938599 16.0995 0.938022 8.30049 0.967466 7.71901C1.05049 6.07913 1.26573 5.03124 1.70901 4.10891C2.65979 2.13059 4.41922 1.09607 7.10983 0.933289C8.94473 0.822281 10.6437 1.20769 11.8322 2.00453C12.2438 2.28054 12.711 2.70789 13.0314 3.10166C13.5816 3.77771 13.9297 4.55218 14.1265 5.53768C14.2633 6.22274 14.302 6.69949 14.3167 7.87716L14.3288 8.85327H12.4167H10.5044L10.4915 8.19346C10.4728 7.24848 10.3979 6.69467 10.2146 6.146C10.0632 5.69318 9.883 5.38255 9.6054 5.09629C9.1267 4.60257 8.55409 4.39484 7.67817 4.39713C6.7579 4.39955 6.17694 4.60101 5.73214 5.07197C5.14345 5.69527 4.87317 6.70131 4.79165 8.57267C4.75896 9.32309 4.77565 16.0883 4.81126 16.5207C4.90942 17.7125 5.09401 18.4097 5.44998 18.9331C5.77762 19.4149 6.34455 19.7711 7.02789 19.9246C7.23958 19.9722 7.94171 19.9922 8.18571 19.9577C9.21678 19.8117 9.87292 19.2301 10.2215 18.1534C10.3954 17.6161 10.4709 17.0502 10.4912 16.1335L10.5047 15.5282H12.414H14.3234V16.2099C14.3231 17.1855 14.2752 17.8685 14.1583 18.5587C13.9787 19.618 13.6157 20.4975 13.0816 21.1669C12.0152 22.5039 10.5269 23.2488 8.5745 23.4231C8.29025 23.4484 7.51575 23.4668 7.25192 23.4545ZM23.8868 23.446C21.8723 23.3217 20.3447 22.6333 19.292 21.3753C18.4308 20.346 18.0072 19.2153 17.833 17.4805C17.7702 16.8545 17.7531 16.493 17.7402 15.5173L17.7272 14.5357L22.4514 11.9754C25.0497 10.5672 27.1923 9.40293 27.2126 9.38811C27.2469 9.36317 27.2476 9.31561 27.2232 8.73094C27.1751 7.58066 27.1164 7.04191 26.9775 6.47743C26.665 5.20688 26.0344 4.58226 24.9033 4.42298C24.6181 4.38282 23.9946 4.38924 23.7338 4.43503C23.0202 4.56033 22.477 4.89779 22.1168 5.43951C21.8247 5.87878 21.6629 6.34276 21.5917 6.94498C21.5611 7.20465 21.5167 8.20432 21.5156 8.66241L21.5151 8.85327H19.5996H17.6842L17.6986 8.32435C17.7733 5.59595 17.9355 4.7529 18.5981 3.64691C18.824 3.26984 19.069 2.95831 19.3931 2.63578C19.9293 2.10241 20.4968 1.73611 21.2494 1.43782C23.0605 0.720069 25.7977 0.747688 27.5811 1.5017C28.523 1.9 29.3116 2.52526 29.819 3.27631C30.5724 4.39125 30.9381 5.71856 31.0463 7.72992C31.0807 8.36996 31.0635 17.0994 31.0271 17.5023C30.8563 19.3897 30.5615 20.304 29.8295 21.2157C28.94 22.3236 27.597 23.0641 25.9853 23.3354C25.3733 23.4385 24.5051 23.4842 23.8868 23.446ZM25.0956 20.0633C26.3305 19.8572 26.9745 19.0399 27.1907 17.4042C27.221 17.1749 27.2282 16.837 27.236 15.2828C27.2411 14.266 27.2372 13.4342 27.2274 13.4343C27.2175 13.4345 25.9454 14.1244 24.4005 14.9677L21.5916 16.5009L21.5844 16.6307C21.5756 16.7906 21.6158 17.319 21.6586 17.6069C21.7644 18.3183 21.9764 18.878 22.2902 19.274C22.7658 19.8742 23.5245 20.1549 24.5645 20.1153C24.7208 20.1094 24.9598 20.086 25.0956 20.0633ZM67.2282 23.4464C64.8622 23.3058 63.169 22.4569 62.2027 20.927C61.5683 19.9226 61.2586 18.8053 61.0993 16.946C61.0637 16.5307 61.0464 8.36591 61.0795 7.55542C61.1667 5.41316 61.4675 4.27167 62.2032 3.29091C62.4989 2.89662 63.0294 2.39042 63.4631 2.08861C64.6631 1.25367 66.3766 0.831176 68.1574 0.931187C68.8531 0.970262 69.3118 1.03804 69.8799 1.18573C71.3397 1.56529 72.4401 2.33279 73.235 3.52578C73.8987 4.52182 74.2012 5.57618 74.3503 7.41363C74.3634 7.57559 74.3796 8.18932 74.3862 8.77749L74.3982 9.84686L69.6723 12.4081C67.0731 13.8169 64.9323 14.9798 64.9151 14.9925C64.8885 15.0122 64.8871 15.0913 64.9055 15.5282C64.9618 16.8624 65.0184 17.3702 65.1794 17.9858C65.4927 19.1836 66.1085 19.7846 67.1861 19.9443C67.4814 19.988 68.1058 19.9889 68.3712 19.946C69.0662 19.8335 69.5976 19.5199 69.9801 18.9965C70.1662 18.7419 70.3564 18.3195 70.449 17.9554C70.5522 17.5493 70.6102 16.8302 70.6108 15.9481V15.5282H72.527H74.4431L74.4281 16.1977C74.38 18.3464 74.2218 19.3861 73.8155 20.2234C73.2666 21.3549 72.4318 22.2034 71.3431 22.7362C70.6109 23.0945 69.7575 23.3225 68.8086 23.4133C68.3818 23.454 67.6241 23.47 67.2282 23.4464ZM67.7614 9.39451L70.5623 7.86588L70.5525 7.63429C70.472 5.75016 69.9274 4.75583 68.7784 4.39509C68.4652 4.29676 68.2106 4.26504 67.7366 4.2653C67.4342 4.26547 67.2353 4.27645 67.0915 4.30094C65.826 4.51645 65.1762 5.29975 64.9615 6.86829C64.9004 7.31579 64.8846 7.83336 64.8843 9.40644C64.8843 10.8695 64.886 10.9512 64.9222 10.9375C64.9432 10.9296 66.2209 10.2352 67.7614 9.39451ZM84.0546 23.4535C81.9115 23.3582 80.1895 22.6084 79.1551 21.3197C78.9225 21.0305 78.759 20.7707 78.5783 20.4035C78.1906 19.6157 77.9972 18.7595 77.8857 17.3387C77.8638 17.0596 77.8574 15.9037 77.8574 12.1907C77.8574 8.47779 77.8637 7.3219 77.8857 7.0428C78.0413 5.05871 78.4013 3.961 79.2176 2.98085C80.0762 1.94957 81.456 1.24895 83.0928 1.01331C83.5866 0.942206 83.8429 0.92606 84.4703 0.926528C85.3 0.92715 85.8586 0.988079 86.5376 1.15226C87.7337 1.44134 88.7182 1.97835 89.4651 2.74829C90.4589 3.77352 90.8621 4.90782 91.0105 7.09733C91.0511 7.69238 91.0511 16.7186 91.0105 17.2732C90.8488 19.4904 90.4698 20.5786 89.5049 21.5911C88.2791 22.8775 86.3016 23.5535 84.0546 23.4535ZM84.9875 19.9455C86.2438 19.7421 86.9337 18.839 87.147 17.1172C87.2204 16.5291 87.2275 15.9881 87.2181 11.8418C87.2087 7.69101 87.2079 7.66181 87.1251 7.07552C86.9087 5.55086 86.2813 4.70507 85.1883 4.4671C84.639 4.34747 83.9444 4.37163 83.4655 4.527C83.26 4.59359 82.9803 4.74032 82.8123 4.8696C82.2553 5.29725 81.8896 6.09793 81.7498 7.1955C81.674 7.78599 81.6685 8.17272 81.6779 12.4634C81.6865 16.982 81.6834 16.8368 81.792 17.4742C82.0412 18.9344 82.7233 19.7563 83.8405 19.9433C84.0913 19.9853 84.7343 19.9865 84.9875 19.9455ZM34.571 15.3809C34.5788 7.10032 34.5728 7.52594 34.6953 6.56291C34.866 5.222 35.2055 4.21133 35.7762 3.34544C36.6719 1.98628 38.1705 1.1947 40.2813 0.965785C40.7585 0.914032 41.7658 0.913352 42.2378 0.964466C43.7965 1.13327 44.9574 1.57707 45.8659 2.35137L46.0705 2.52575L46.1488 2.46007C46.8059 1.90875 47.3367 1.603 48.0898 1.34198C49.7301 0.773523 52.0418 0.780944 53.7082 1.36002C54.9831 1.803 55.8847 2.51544 56.5144 3.57731C57.0678 4.51044 57.3757 5.60108 57.505 7.08642C57.5773 7.91564 57.5827 8.51833 57.5828 15.7627V23.0102H55.6709H53.7589L53.7508 15.8717C53.7428 8.77078 53.7411 8.59887 53.6693 7.6972C53.5513 6.21575 53.1709 5.28177 52.4962 4.81627C52.0716 4.52336 51.5649 4.39449 50.8501 4.39764C49.204 4.40486 48.4178 5.20118 48.1417 7.14096C48.0941 7.47605 48.0626 7.86992 48.0302 8.53704C48.0175 8.79862 48.0089 11.7838 48.0087 15.9917L48.0083 23.0102H46.0743H44.1404L44.1329 15.7517C44.1273 10.4795 44.1183 8.40084 44.0997 8.15528C44.0504 7.50457 44.0258 7.26944 43.9746 6.9643C43.7389 5.55769 43.2317 4.82345 42.2921 4.52808C41.9363 4.41623 41.3967 4.36555 40.9587 4.40284C40.2731 4.46121 39.8125 4.63804 39.4398 4.98604C38.9001 5.48979 38.5839 6.36706 38.4781 7.65357C38.406 8.53151 38.4046 8.66475 38.3967 15.8282L38.3888 23.0102H36.4762H34.5637L34.571 15.3809Z" fill="#F2F2F2"/>
</g>
<defs>
<clipPath id="clip0_53_355">
<rect width="90.6307" height="23.3897" fill="white" transform="translate(0.934692 0.49292)"/>
</clipPath>
</defs>
</svg>
