<svg width="77" height="34" viewBox="0 0 77 34" fill="none" xmlns="http://www.w3.org/2000/svg">
<g clip-path="url(#clip0_53_344)">
<path d="M29.4727 17.7641V21.5206C30.006 22.3398 30.9378 22.8859 32.13 22.8859C33.931 22.8859 35.1847 21.5462 35.1847 19.6743C35.1847 17.8385 33.8682 16.4999 32.0928 16.4999C30.9378 16.4872 30.0304 16.9833 29.4727 17.7641ZM32.5773 24.8205C31.3352 24.8205 30.2674 24.4476 29.4483 23.7039V24.6091H27.1256V9.5574H29.4727V15.819C30.3034 14.9255 31.434 14.5037 32.7493 14.5037C35.3834 14.5037 37.5307 16.6115 37.5307 19.6488C37.5434 22.6373 35.3079 24.8194 32.5762 24.8194L32.5773 24.8205ZM39.1213 9.5574H41.4684V24.6091H39.1213V9.5574ZM45.4422 18.4717H50.3468C50.0609 17.2819 49.2162 16.414 47.9125 16.414C46.7215 16.4012 45.7653 17.146 45.4422 18.4717ZM48.5713 24.8066C45.3295 24.8066 43.0208 22.7244 43.0208 19.6616C43.0208 16.6115 45.3295 14.5037 47.9125 14.5037C50.9428 14.5037 52.6811 16.6731 52.6811 19.6987V20.1949H45.3679C45.591 21.8193 46.7459 22.8731 48.7445 22.8731C50.0365 22.8731 51.5261 22.3514 52.408 21.6578V23.6784C51.5633 24.3232 50.0993 24.8066 48.5713 24.8066ZM56.7048 17.6781V24.6091H54.3577V14.7141H56.6665V15.8051C57.3625 14.9999 58.4547 14.4921 59.784 14.4921C62.2182 14.4921 63.5707 16.1153 63.5707 18.4845V24.6091H61.2236V18.7564C61.2236 17.4794 60.4544 16.5499 59.1379 16.5499C58.0329 16.5499 57.2266 17.0077 56.7048 17.6781ZM70.5376 22.8604C71.6926 22.8604 72.5989 22.3654 73.1566 21.5834V17.8269C72.6233 17.0077 71.6926 16.4628 70.5005 16.4628C68.6995 16.4628 67.4457 17.8025 67.4457 19.6616C67.4457 21.5218 68.7622 22.8604 70.5376 22.8604ZM73.195 23.4808C72.3886 24.3604 71.258 24.8194 69.9544 24.8194C67.2726 24.8194 65.0859 22.736 65.0859 19.7115C65.0859 16.7219 67.3086 14.5165 70.0531 14.5165C71.2697 14.5165 72.3386 14.8628 73.1462 15.6076V9.56902H75.5049V24.6207H73.195V23.4808ZM12.785 13.8461L13.8145 13.0781C15.9989 11.4781 15.9129 9.53184 15.5283 8.37804C15.1054 7.06505 13.8888 5.65215 11.7788 5.65215H0.999512V1.93164H11.7776C15.1681 1.93164 18.023 4.01498 19.0676 7.2254C20.111 10.4498 19.0164 13.8101 16.2847 15.7935L15.8757 16.0909L12.7838 13.8473L12.785 13.8461ZM14.371 17.182L16.2719 18.5705C19.0164 20.5539 20.1098 23.9142 19.0652 27.1386C18.0241 30.3618 15.1553 32.4323 11.7788 32.4323H0.999512V28.7118H11.7648C13.876 28.7118 15.0926 27.2989 15.5155 25.9848C15.9501 24.6706 15.7897 22.822 14.0864 21.5834L11.2071 19.4884L8.03966 17.1936L4.72467 14.7873V19.5988L6.51288 18.2974L9.67914 20.5911L3.95547 24.7438C3.38961 25.1552 2.64016 25.2133 2.01853 24.8926C1.39341 24.5719 1.00067 23.9317 0.999512 23.231V11.119C0.999512 10.4254 1.39805 9.78049 2.01853 9.47025C2.64016 9.15072 3.38961 9.20766 3.95547 9.61898L11.2071 14.8756L14.371 17.182Z" fill="#F2F2F2"/>
</g>
<defs>
<clipPath id="clip0_53_344">
<rect width="75.5256" height="32.5341" fill="white" transform="translate(0.487183 0.914795)"/>
</clipPath>
</defs>
</svg>
