<svg width="360" height="215" viewBox="0 0 360 215" fill="none" xmlns="http://www.w3.org/2000/svg">
<path d="M24.1216 7.3122C24.1216 3.54143 27.1784 0.484619 30.9492 0.484619H328.948C332.719 0.484619 335.775 3.54144 335.775 7.31222V211.13H24.1216V7.3122Z" fill="#1A202C"/>
<path d="M26.5374 7.4233C26.5374 4.68091 28.7605 2.45776 31.5029 2.45776H328.504C331.246 2.45776 333.469 4.6809 333.469 7.42329V202.743H26.5374V7.4233Z" fill="black"/>
<rect width="289.9" height="177.865" transform="translate(34.9928 15.0825)" fill="#0F0F10"/>
<rect x="35.0416" y="15.1423" width="289.749" height="177.865" fill="white" fill-opacity="0.76"/>
<path d="M-12.4179 208.935H372.303V210.97C372.303 210.97 354.782 215.041 334.9 215.041C315.017 215.041 44.8677 214.837 24.9855 214.837C5.1033 214.837 -12.4179 210.97 -12.4179 210.97V208.935Z" fill="url(#paint0_linear_73_2319)"/>
<path d="M-12.4179 209.019C-12.4179 208.848 -12.279 208.709 -12.1076 208.709H371.993C372.164 208.709 372.303 208.848 372.303 209.019V210.97H-12.4179V209.019Z" fill="url(#paint1_linear_73_2319)"/>
<path d="M151.362 208.709H208.772V208.709C208.772 209.958 207.759 210.97 206.51 210.97H153.623C152.374 210.97 151.362 209.958 151.362 208.709V208.709Z" fill="url(#paint2_linear_73_2319)"/>
<defs>
<linearGradient id="paint0_linear_73_2319" x1="179.943" y1="208.935" x2="179.943" y2="215.041" gradientUnits="userSpaceOnUse">
<stop stop-color="#80868A"/>
<stop offset="1" stop-color="#2A2C2F"/>
</linearGradient>
<linearGradient id="paint1_linear_73_2319" x1="-12.4179" y1="209.839" x2="372.303" y2="209.839" gradientUnits="userSpaceOnUse">
<stop stop-color="#2A2C2F"/>
<stop offset="0.208333" stop-color="#80868A"/>
<stop offset="0.770833" stop-color="#80868A"/>
<stop offset="1" stop-color="#2A2C2F"/>
</linearGradient>
<linearGradient id="paint2_linear_73_2319" x1="151.362" y1="209.839" x2="208.772" y2="209.839" gradientUnits="userSpaceOnUse">
<stop stop-color="#2A2C2F"/>
<stop offset="0.229167" stop-color="#80868A"/>
<stop offset="0.802083" stop-color="#80868A"/>
<stop offset="1" stop-color="#2A2C2F"/>
</linearGradient>
</defs>
</svg>
