<svg width="97" height="23" viewBox="0 0 97 23" fill="none" xmlns="http://www.w3.org/2000/svg">
<g clip-path="url(#clip0_73_1603)">
<path d="M71.4577 13.6104C70.9435 12.818 70.2601 12.1851 69.4054 11.7128C68.9775 11.4766 68.5327 11.2716 68.0664 11.123C67.6001 10.9743 67.1146 10.8808 66.6063 10.8712C67.4874 10.7561 68.2726 10.4505 68.9799 10.0045C69.6883 9.55857 70.247 8.98316 70.6545 8.27948C71.0633 7.577 71.2683 6.78341 71.2683 5.90111V5.86875C71.2683 4.67237 70.9758 3.64622 70.3884 2.79029C69.801 1.93437 68.9535 1.27864 67.8482 0.821907C66.7417 0.362777 65.4075 0.13501 63.8443 0.13501H49.869C49.6844 0.13501 49.5345 0.286055 49.5345 0.470666V22.5281C49.5345 22.7139 49.6844 22.8638 49.869 22.8638H64.2219C65.8475 22.8638 67.2572 22.5904 68.4536 22.0438C69.6488 21.4984 70.5778 20.7347 71.2372 19.7529C71.8977 18.7711 72.2273 17.6239 72.2273 16.3101V16.2789C72.2285 15.2935 71.972 14.404 71.4577 13.6104ZM64.7901 16.2154C64.7901 17.2859 64.0841 18.1538 63.2138 18.155H56.8866C56.6541 18.155 56.4659 17.9668 56.4659 17.7342L56.4635 13.9005C56.4635 13.5757 56.726 13.3119 57.0497 13.3119H63.2138C64.0841 13.3119 64.7901 14.1798 64.7901 15.2503V16.2154ZM64.7901 7.15743C64.7901 8.13203 64.0841 8.92202 63.2138 8.92442H56.877C56.6445 8.92442 56.4563 8.73621 56.4563 8.50245V4.9337C56.4563 4.70114 56.6445 4.51173 56.877 4.51173H63.2138C64.0841 4.51173 64.7901 5.30173 64.7901 6.27753V7.15743Z" fill="white"/>
<path d="M46.8757 0.13501H41.0616C40.738 0.13501 40.4754 0.397541 40.4754 0.722409V17.1264C40.4754 17.4513 40.2129 17.7138 39.8892 17.7138H32.2854C31.9617 17.7138 31.6992 17.4513 31.6992 17.1264V0.722409C31.6992 0.39874 31.4367 0.13501 31.113 0.13501H25.3541C25.0304 0.13501 24.7679 0.397541 24.7679 0.722409V18.4583C24.7679 20.8918 26.7375 22.8638 29.1674 22.8638H43.0624C45.4923 22.8638 47.4619 20.8906 47.4619 18.4583V0.722409C47.4619 0.397541 47.1993 0.13501 46.8757 0.13501Z" fill="white"/>
<path d="M19.1456 0.13501H16.2925C15.9689 0.13501 15.7063 0.397541 15.7063 0.722409V7.15743V8.54801C15.7063 8.87287 15.4438 9.1354 15.1201 9.1354H7.51751C7.19384 9.1354 6.93131 8.87287 6.93131 8.54801V0.722409C6.93131 0.397541 6.66878 0.13501 6.34511 0.13501H4.3995C1.96959 0.13501 0 2.10819 0 4.5417V22.2776C0 22.6024 0.262531 22.865 0.5862 22.865H6.34391C6.66758 22.865 6.93011 22.6024 6.93011 22.2776V14.663C6.93011 14.3381 7.19264 14.0756 7.51631 14.0756H15.1177C15.4414 14.0756 15.7039 14.3381 15.7039 14.663V22.2776C15.7039 22.6024 15.9665 22.865 16.2901 22.865H18.2897C20.7196 22.865 22.6892 20.8918 22.6892 18.4595V0.722409C22.6892 0.397541 22.4267 0.13501 22.103 0.13501H19.1456Z" fill="white"/>
<path d="M97 3.01566V4.73231C97 6.32308 95.7101 7.61176 94.1205 7.61176H88.9238C87.3307 7.61176 86.042 6.32308 86.042 4.73231V0.274068C86.042 0.198545 86.1031 0.13501 86.181 0.13501H94.1193C95.7101 0.13501 97 1.42489 97 3.01566Z" fill="white"/>
<path d="M82.3486 0.13501H77.1519C75.5611 0.13501 74.2712 1.42489 74.2712 3.01566V19.9819C74.2712 21.5727 75.5611 22.8626 77.1519 22.8626H85.0914C85.1681 22.8626 85.2292 22.8002 85.2292 22.7247V3.01686C85.2292 1.42489 83.9394 0.13501 82.3486 0.13501Z" fill="white"/>
<path d="M94.1182 8.42456H88.9215C87.3307 8.42456 86.0408 9.71444 86.0408 11.3052V22.7259C86.0408 22.8027 86.1032 22.8638 86.1787 22.8638H94.1182C95.7089 22.8638 96.9988 21.5739 96.9988 19.9831V11.3052C97 9.71444 95.7101 8.42456 94.1182 8.42456Z" fill="white"/>
<path d="M95.3409 7.00166V8.00504C95.3409 10.7179 93.1411 12.9176 90.4283 12.9176H80.8453C79.8659 12.9176 79.0723 13.7112 79.0723 14.6906V17.3507C79.0723 17.5832 79.2617 17.7726 79.4943 17.7726H88.6853C88.768 17.7726 88.8351 17.7055 88.8351 17.6228V17.057C88.8351 16.6806 89.2427 16.4456 89.5676 16.6338L93.5259 18.9199C93.852 19.1081 93.852 19.578 93.5259 19.7662L89.5676 22.0523C89.2415 22.2405 88.8351 22.0055 88.8351 21.6291V21.0633C88.8351 20.9806 88.768 20.9134 88.6853 20.9134H77.1974C76.4985 20.9134 75.9315 20.3464 75.9315 19.6475V14.6906C75.9315 11.9766 78.1313 9.77683 80.8453 9.77683H90.4283C91.4077 9.77683 92.2013 8.98324 92.2013 8.00384V7.00047C92.2013 6.02107 91.4077 5.22868 90.4295 5.22868H79.7053C78.612 5.22868 77.7261 4.34278 77.7261 3.2495V2.23774C77.7261 2.15502 77.7932 2.08789 77.8759 2.08789H90.4295C93.1411 2.08789 95.3409 4.28764 95.3409 7.00166Z" fill="url(#paint0_linear_73_1603)"/>
</g>
<defs>
<linearGradient id="paint0_linear_73_1603" x1="75.9308" y1="12.1024" x2="95.3404" y2="12.1024" gradientUnits="userSpaceOnUse">
<stop stop-color="#333333"/>
<stop offset="1" stop-color="#171717"/>
</linearGradient>
<clipPath id="clip0_73_1603">
<rect width="97" height="22.73" fill="white" transform="translate(0 0.13501)"/>
</clipPath>
</defs>
</svg>
