<svg width="1227" height="149" viewBox="0 0 1227 149" fill="none" xmlns="http://www.w3.org/2000/svg">
<g opacity="0.5" clip-path="url(#clip0_53_341)">
<g clip-path="url(#clip1_53_341)">
<path d="M93.4727 37.7641V41.5206C94.006 42.3398 94.9378 42.8859 96.13 42.8859C97.931 42.8859 99.1847 41.5462 99.1847 39.6743C99.1847 37.8385 97.8682 36.4999 96.0928 36.4999C94.9378 36.4872 94.0304 36.9833 93.4727 37.7641ZM96.5773 44.8205C95.3352 44.8205 94.2674 44.4476 93.4483 43.7039V44.6091H91.1256V29.5574H93.4727V35.819C94.3034 34.9255 95.434 34.5037 96.7493 34.5037C99.3834 34.5037 101.531 36.6115 101.531 39.6488C101.543 42.6373 99.3079 44.8194 96.5762 44.8194L96.5773 44.8205ZM103.121 29.5574H105.468V44.6091H103.121V29.5574ZM109.442 38.4717H114.347C114.061 37.2819 113.216 36.414 111.913 36.414C110.722 36.4012 109.765 37.146 109.442 38.4717ZM112.571 44.8066C109.33 44.8066 107.021 42.7244 107.021 39.6616C107.021 36.6115 109.33 34.5037 111.913 34.5037C114.943 34.5037 116.681 36.6731 116.681 39.6987V40.1949H109.368C109.591 41.8193 110.746 42.8731 112.744 42.8731C114.037 42.8731 115.526 42.3514 116.408 41.6578V43.6784C115.563 44.3232 114.099 44.8066 112.571 44.8066ZM120.705 37.6781V44.6091H118.358V34.7141H120.667V35.8051C121.362 34.9999 122.455 34.4921 123.784 34.4921C126.218 34.4921 127.571 36.1153 127.571 38.4845V44.6091H125.224V38.7564C125.224 37.4794 124.454 36.5499 123.138 36.5499C122.033 36.5499 121.227 37.0077 120.705 37.6781ZM134.538 42.8604C135.693 42.8604 136.599 42.3654 137.157 41.5834V37.8269C136.623 37.0077 135.693 36.4628 134.5 36.4628C132.699 36.4628 131.446 37.8025 131.446 39.6616C131.446 41.5218 132.762 42.8604 134.538 42.8604ZM137.195 43.4808C136.389 44.3604 135.258 44.8194 133.954 44.8194C131.273 44.8194 129.086 42.736 129.086 39.7115C129.086 36.7219 131.309 34.5165 134.053 34.5165C135.27 34.5165 136.339 34.8628 137.146 35.6076V29.569H139.505V44.6207H137.195V43.4808ZM76.785 33.8461L77.8145 33.0781C79.9989 31.4781 79.9129 29.5318 79.5283 28.378C79.1054 27.0651 77.8888 25.6521 75.7788 25.6521H64.9995V21.9316H75.7776C79.1681 21.9316 82.023 24.015 83.0676 27.2254C84.111 30.4498 83.0164 33.8101 80.2847 35.7935L79.8757 36.0909L76.7838 33.8473L76.785 33.8461ZM78.371 37.182L80.2719 38.5705C83.0164 40.5539 84.1098 43.9142 83.0652 47.1386C82.0241 50.3618 79.1553 52.4323 75.7788 52.4323H64.9995V48.7118H75.7648C77.876 48.7118 79.0926 47.2989 79.5155 45.9848C79.9501 44.6706 79.7897 42.822 78.0864 41.5834L75.2071 39.4884L72.0397 37.1936L68.7247 34.7873V39.5988L70.5129 38.2974L73.6791 40.5911L67.9555 44.7438C67.3896 45.1552 66.6402 45.2133 66.0185 44.8926C65.3934 44.5719 65.0007 43.9317 64.9995 43.231V31.119C64.9995 30.4254 65.3981 29.7805 66.0185 29.4703C66.6402 29.1507 67.3896 29.2077 67.9555 29.619L75.2071 34.8756L78.371 37.182Z" fill="#F2F2F2"/>
</g>
<g clip-path="url(#clip2_53_341)">
<g clip-path="url(#clip3_53_341)">
<path fill-rule="evenodd" clip-rule="evenodd" d="M247.554 53.4956C256.573 53.4956 263.884 46.1892 263.884 37.1763C263.884 28.1633 256.573 20.8569 247.554 20.8569C238.536 20.8569 231.224 28.1633 231.224 37.1763C231.224 46.1892 238.536 53.4956 247.554 53.4956ZM250.871 33.7868L250.067 35.8205C250.946 36.3728 251.448 37.352 251.448 38.3813C251.398 39.9882 250.067 41.2436 248.459 41.1934C246.851 41.1431 245.595 39.8124 245.645 38.2056C245.695 36.6992 246.901 35.4691 248.408 35.3937L249.162 33.3098C246.147 32.9081 243.359 35.0673 243.359 38.2308V43.4781H245.645V42.6496C246.499 43.2019 247.529 43.4781 248.534 43.4781C251.348 43.5283 253.684 41.2686 253.709 38.4316C253.76 36.4733 252.654 34.6656 250.871 33.7868ZM243.359 33.5358C244.012 32.8831 244.791 32.3558 245.645 31.9792V28.6902H243.359V33.5358ZM285.666 43.5032V28.7153H283.304V43.5032H285.666ZM328.299 43.4781V37.3771C328.274 34.6907 326.34 33.1341 324.028 33.1341C322.646 33.109 321.315 33.7618 320.486 34.8665C319.732 33.7618 318.451 33.109 317.094 33.1341C315.939 33.1341 314.833 33.6362 314.08 34.515V33.335H311.718V43.5032H314.08V37.8039V37.7286C314.055 36.3979 315.11 35.3184 316.441 35.3184C317.798 35.3184 318.828 36.2473 318.828 37.7789V43.4781H321.189V37.7035V37.6282C321.189 36.3478 322.245 35.3184 323.551 35.3184C324.882 35.3184 325.912 36.2725 325.938 37.7789V43.4781H328.299ZM336.088 35.6448V33.1341C334.73 33.109 333.475 33.7116 332.645 34.766V33.335H330.284V43.5032H332.645V38.2308C332.645 36.6741 333.801 35.4942 336.088 35.6448ZM338.8 39.2601H346.814C347.392 35.5443 344.679 33.1341 341.74 33.1593H341.539C338.675 33.2094 336.414 35.5694 336.489 38.4316C336.489 41.3691 338.725 43.704 341.966 43.704C343.976 43.7291 345.785 42.5993 346.664 40.7916L344.679 39.9631C344.126 40.9925 343.021 41.6453 341.84 41.595C340.383 41.6453 339.102 40.6661 338.8 39.2601ZM344.679 37.4525H338.826C339.177 36.1218 340.408 35.1929 341.815 35.2179C343.172 35.2179 344.353 36.1469 344.679 37.4525ZM358.798 43.4781V33.3098L356.437 33.335V34.6907C355.582 33.6865 354.326 33.109 353.02 33.1341C350.181 33.1341 348.071 35.2933 348.071 38.4065C348.071 41.5198 350.181 43.6789 353.02 43.6789C354.352 43.704 355.608 43.1266 356.437 42.1222V43.4781H358.798ZM353.447 35.2681C355.18 35.2681 356.437 36.6741 356.437 38.4065C356.437 40.1388 355.156 41.5448 353.447 41.5448C351.713 41.5448 350.482 40.1388 350.482 38.4065C350.482 36.6741 351.713 35.2681 353.447 35.2681ZM365.782 33.1341C362.843 33.109 360.456 35.4691 360.456 38.4065V38.6826C360.531 41.5198 362.893 43.7794 365.732 43.704C367.918 43.7542 369.877 42.4486 370.681 40.415L368.546 39.5865C368.094 40.7916 366.913 41.5699 365.631 41.5198C363.998 41.4444 362.742 40.0636 362.818 38.4316C362.818 36.7243 363.974 35.3435 365.757 35.3435C366.938 35.3686 367.993 36.0715 368.471 37.1512L370.656 36.3979C369.827 34.4145 367.918 33.1341 365.782 33.1341ZM381.961 43.5032V37.6031C381.961 34.7911 379.977 33.1341 377.616 33.1341C376.359 33.109 375.153 33.6865 374.35 34.6405V28.7153H371.988V43.5032H374.35V38.0299V37.8541C374.374 36.423 375.555 35.2933 376.987 35.3184C378.444 35.3184 379.6 36.2976 379.6 37.9797V43.5032H381.961ZM273.154 28.6902V34.038C274.034 33.4856 275.039 33.2094 276.018 33.2345C276.697 33.2094 277.375 33.335 278.003 33.586C279.184 34.1132 280.114 35.0422 280.641 36.1971C281.872 38.8333 280.691 41.9968 278.028 43.2019C277.4 43.453 276.722 43.5784 276.044 43.5784C275.039 43.5784 274.009 43.3023 273.154 42.7499V43.4781H270.793V28.6902H273.154ZM273.154 39.938C273.657 40.8921 274.662 41.5198 275.767 41.4947C277.4 41.4444 278.707 40.1388 278.757 38.5069C278.807 36.7997 277.476 35.3686 275.767 35.3184C274.687 35.2933 273.657 35.8958 273.154 36.875C272.652 37.829 272.652 38.9839 273.154 39.938ZM292.7 32.9583C289.761 33.0086 287.374 35.4439 287.424 38.4065V38.6325C287.525 41.5198 289.937 43.7542 292.8 43.6789H292.876C295.815 43.6287 298.202 41.1934 298.152 38.2308C298.101 35.2933 295.665 32.9081 292.7 32.9583ZM295.966 38.5069C295.916 40.2142 294.484 41.5448 292.775 41.4947H292.7C291.042 41.4444 289.736 40.0636 289.786 38.4065V38.3061C289.836 36.5989 291.268 35.2681 292.976 35.3184C294.685 35.3686 296.016 36.7997 295.966 38.5069ZM304.608 32.9583C301.644 33.0086 299.282 35.4439 299.332 38.4065C299.332 38.4818 299.332 38.5572 299.358 38.6325C299.433 41.4947 301.845 43.7542 304.709 43.6789H304.784C307.749 43.6287 310.11 41.1934 310.06 38.2308C310.01 35.2681 307.573 32.9081 304.608 32.9583ZM307.874 38.5069C307.824 40.2142 306.392 41.5448 304.684 41.4947H304.608C302.95 41.4444 301.644 40.0636 301.694 38.4065V38.3061C301.744 36.5989 303.176 35.2681 304.885 35.3184C306.593 35.3686 307.924 36.7997 307.874 38.5069Z" fill="#F2F2F2"/>
</g>
</g>
<g clip-path="url(#clip4_53_341)">
<g clip-path="url(#clip5_53_341)">
<path d="M472.252 48.4545C471.016 48.3967 469.955 48.1466 469.073 47.7053C468.238 47.2881 467.628 46.7486 467.104 45.9648C466.39 44.8988 466.066 43.6816 465.968 41.6962C465.939 41.0995 465.938 33.3005 465.967 32.719C466.05 31.0791 466.266 30.0312 466.709 29.1089C467.66 27.1306 469.419 26.0961 472.11 25.9333C473.945 25.8223 475.644 26.2077 476.832 27.0045C477.244 27.2805 477.711 27.7079 478.031 28.1017C478.582 28.7777 478.93 29.5522 479.126 30.5377C479.263 31.2227 479.302 31.6995 479.317 32.8772L479.329 33.8533H477.417H475.504L475.491 33.1935C475.473 32.2485 475.398 31.6947 475.215 31.146C475.063 30.6932 474.883 30.3826 474.605 30.0963C474.127 29.6026 473.554 29.3948 472.678 29.3971C471.758 29.3995 471.177 29.601 470.732 30.072C470.143 30.6953 469.873 31.7013 469.792 33.5727C469.759 34.3231 469.776 41.0883 469.811 41.5207C469.909 42.7125 470.094 43.4097 470.45 43.9331C470.778 44.4149 471.345 44.7711 472.028 44.9246C472.24 44.9722 472.942 44.9922 473.186 44.9577C474.217 44.8117 474.873 44.2301 475.221 43.1534C475.395 42.6161 475.471 42.0502 475.491 41.1335L475.505 40.5282H477.414H479.323V41.2099C479.323 42.1855 479.275 42.8685 479.158 43.5587C478.979 44.618 478.616 45.4975 478.082 46.1669C477.015 47.5039 475.527 48.2488 473.574 48.4231C473.29 48.4484 472.516 48.4668 472.252 48.4545ZM488.887 48.446C486.872 48.3217 485.345 47.6333 484.292 46.3753C483.431 45.346 483.007 44.2153 482.833 42.4805C482.77 41.8545 482.753 41.493 482.74 40.5173L482.727 39.5357L487.451 36.9754C490.05 35.5672 492.192 34.4029 492.213 34.3881C492.247 34.3632 492.248 34.3156 492.223 33.7309C492.175 32.5807 492.116 32.0419 491.978 31.4774C491.665 30.2069 491.034 29.5823 489.903 29.423C489.618 29.3828 488.995 29.3892 488.734 29.435C488.02 29.5603 487.477 29.8978 487.117 30.4395C486.825 30.8788 486.663 31.3428 486.592 31.945C486.561 32.2046 486.517 33.2043 486.516 33.6624L486.515 33.8533H484.6H482.684L482.699 33.3244C482.773 30.596 482.935 29.7529 483.598 28.6469C483.824 28.2698 484.069 27.9583 484.393 27.6358C484.929 27.1024 485.497 26.7361 486.249 26.4378C488.06 25.7201 490.798 25.7477 492.581 26.5017C493.523 26.9 494.312 27.5253 494.819 28.2763C495.572 29.3913 495.938 30.7186 496.046 32.7299C496.081 33.37 496.063 42.0994 496.027 42.5023C495.856 44.3897 495.561 45.304 494.829 46.2157C493.94 47.3236 492.597 48.0641 490.985 48.3354C490.373 48.4385 489.505 48.4842 488.887 48.446ZM490.096 45.0633C491.331 44.8572 491.975 44.0399 492.191 42.4042C492.221 42.1749 492.228 41.837 492.236 40.2828C492.241 39.266 492.237 38.4342 492.227 38.4343C492.218 38.4345 490.945 39.1244 489.401 39.9677L486.592 41.5009L486.584 41.6307C486.576 41.7906 486.616 42.319 486.659 42.6069C486.764 43.3183 486.976 43.878 487.29 44.274C487.766 44.8742 488.524 45.1549 489.564 45.1153C489.721 45.1094 489.96 45.086 490.096 45.0633ZM532.228 48.4464C529.862 48.3058 528.169 47.4569 527.203 45.927C526.568 44.9226 526.259 43.8053 526.099 41.946C526.064 41.5307 526.046 33.3659 526.079 32.5554C526.167 30.4132 526.467 29.2717 527.203 28.2909C527.499 27.8966 528.029 27.3904 528.463 27.0886C529.663 26.2537 531.377 25.8312 533.157 25.9312C533.853 25.9703 534.312 26.038 534.88 26.1857C536.34 26.5653 537.44 27.3328 538.235 28.5258C538.899 29.5218 539.201 30.5762 539.35 32.4136C539.363 32.5756 539.38 33.1893 539.386 33.7775L539.398 34.8469L534.672 37.4081C532.073 38.8169 529.932 39.9798 529.915 39.9925C529.888 40.0122 529.887 40.0913 529.906 40.5282C529.962 41.8624 530.018 42.3702 530.179 42.9858C530.493 44.1836 531.108 44.7846 532.186 44.9443C532.481 44.988 533.106 44.9889 533.371 44.946C534.066 44.8335 534.598 44.5199 534.98 43.9965C535.166 43.7419 535.356 43.3195 535.449 42.9554C535.552 42.5493 535.61 41.8302 535.611 40.9481V40.5282H537.527H539.443L539.428 41.1977C539.38 43.3464 539.222 44.3861 538.816 45.2234C538.267 46.3549 537.432 47.2034 536.343 47.7362C535.611 48.0945 534.758 48.3225 533.809 48.4133C533.382 48.454 532.624 48.47 532.228 48.4464ZM532.761 34.3945L535.562 32.8659L535.553 32.6343C535.472 30.7502 534.927 29.7558 533.778 29.3951C533.465 29.2968 533.211 29.265 532.737 29.2653C532.434 29.2655 532.235 29.2765 532.092 29.3009C530.826 29.5164 530.176 30.2997 529.962 31.8683C529.9 32.3158 529.885 32.8334 529.884 34.4064C529.884 35.8695 529.886 35.9512 529.922 35.9375C529.943 35.9296 531.221 35.2352 532.761 34.3945ZM549.055 48.4535C546.911 48.3582 545.19 47.6084 544.155 46.3197C543.922 46.0305 543.759 45.7707 543.578 45.4035C543.191 44.6157 542.997 43.7595 542.886 42.3387C542.864 42.0596 542.857 40.9037 542.857 37.1907C542.857 33.4778 542.864 32.3219 542.886 32.0428C543.041 30.0587 543.401 28.961 544.218 27.9809C545.076 26.9496 546.456 26.249 548.093 26.0133C548.587 25.9422 548.843 25.9261 549.47 25.9265C550.3 25.9271 550.859 25.9881 551.538 26.1523C552.734 26.4413 553.718 26.9783 554.465 27.7483C555.459 28.7735 555.862 29.9078 556.011 32.0973C556.051 32.6924 556.051 41.7186 556.011 42.2732C555.849 44.4904 555.47 45.5786 554.505 46.5911C553.279 47.8775 551.302 48.5535 549.055 48.4535ZM549.987 44.9455C551.244 44.7421 551.934 43.839 552.147 42.1172C552.22 41.5291 552.227 40.9881 552.218 36.8418C552.209 32.691 552.208 32.6618 552.125 32.0755C551.909 30.5509 551.281 29.7051 550.188 29.4671C549.639 29.3475 548.944 29.3716 548.465 29.527C548.26 29.5936 547.98 29.7403 547.812 29.8696C547.255 30.2973 546.89 31.0979 546.75 32.1955C546.674 32.786 546.669 33.1727 546.678 37.4634C546.686 41.982 546.683 41.8368 546.792 42.4742C547.041 43.9344 547.723 44.7563 548.841 44.9433C549.091 44.9853 549.734 44.9865 549.987 44.9455ZM499.571 40.3809C499.579 32.1003 499.573 32.5259 499.695 31.5629C499.866 30.222 500.206 29.2113 500.776 28.3454C501.672 26.9863 503.17 26.1947 505.281 25.9658C505.759 25.914 506.766 25.9134 507.238 25.9645C508.796 26.1333 509.957 26.5771 510.866 27.3514L511.07 27.5258L511.149 27.4601C511.806 26.9087 512.337 26.603 513.09 26.342C514.73 25.7735 517.042 25.7809 518.708 26.36C519.983 26.803 520.885 27.5154 521.514 28.5773C522.068 29.5104 522.376 30.6011 522.505 32.0864C522.577 32.9156 522.583 33.5183 522.583 40.7627V48.0102H520.671H518.759L518.751 40.8717C518.743 33.7708 518.741 33.5989 518.669 32.6972C518.551 31.2157 518.171 30.2818 517.496 29.8163C517.072 29.5234 516.565 29.3945 515.85 29.3976C514.204 29.4049 513.418 30.2012 513.142 32.141C513.094 32.4761 513.063 32.8699 513.03 33.537C513.017 33.7986 513.009 36.7838 513.009 40.9917L513.008 48.0102H511.074H509.14L509.133 40.7517C509.127 35.4795 509.118 33.4008 509.1 33.1553C509.05 32.5046 509.026 32.2694 508.975 31.9643C508.739 30.5577 508.232 29.8234 507.292 29.5281C506.936 29.4162 506.397 29.3655 505.959 29.4028C505.273 29.4612 504.813 29.638 504.44 29.986C503.9 30.4898 503.584 31.3671 503.478 32.6536C503.406 33.5315 503.405 33.6647 503.397 40.8282L503.389 48.0102H501.476H499.564L499.571 40.3809Z" fill="#F2F2F2"/>
</g>
</g>
<g clip-path="url(#clip6_53_341)">
<g clip-path="url(#clip7_53_341)">
<path d="M675.082 45.8268H679.853V38.1464C679.853 35.302 681.244 34.0064 683.046 34.0064C684.753 34.0064 685.605 35.3334 685.605 37.5131V45.8268H690.378V36.6917C690.378 32.5517 688.133 29.6771 684.248 29.6771C682.193 29.6771 680.613 30.5613 679.853 31.6349V22.1222H675.082V45.8268ZM696.477 27.8738C698.152 27.8738 699.478 26.5468 699.478 24.9027C699.478 23.2597 698.151 21.9316 696.477 21.9316C694.84 21.9409 693.515 23.2655 693.507 24.9027C693.515 26.5387 694.84 27.8645 696.477 27.8738ZM694.108 45.8268H698.877V30.0233H694.107V45.8268H694.108ZM702.798 52.4323H707.57V44.2465C708.201 45.1006 709.75 46.1742 711.867 46.1742C716.007 46.1742 719.2 42.413 719.2 37.9256C719.2 33.4371 716.007 29.6771 711.867 29.6771C709.75 29.6771 708.201 30.7507 707.57 31.6036V30.0233H702.798V52.4323ZM710.792 41.8437C708.644 41.8437 707.189 40.2007 707.189 37.9256C707.189 35.6494 708.644 34.0064 710.792 34.0064C712.94 34.0064 714.395 35.6494 714.395 37.9256C714.395 40.2007 712.94 41.8437 710.792 41.8437ZM721.379 52.4323H726.152V44.2465C726.782 45.1006 728.331 46.1742 730.448 46.1742C734.588 46.1742 737.78 42.413 737.78 37.9256C737.78 33.4371 734.588 29.6771 730.449 29.6771C728.331 29.6771 726.784 30.7507 726.152 31.6036V30.0233H721.379V52.4323ZM729.375 41.8437C727.225 41.8437 725.772 40.2007 725.772 37.9256C725.772 35.6494 727.225 34.0064 729.375 34.0064C731.523 34.0064 732.977 35.6494 732.977 37.9256C732.977 40.2007 731.523 41.8437 729.375 41.8437ZM747.293 46.1742C751.843 46.1742 755.604 42.571 755.604 37.9256C755.604 33.2791 751.843 29.6771 747.293 29.6771C742.742 29.6771 738.982 33.2791 738.982 37.9256C738.982 42.571 742.742 46.1742 747.293 46.1742ZM747.293 41.717C745.302 41.717 743.785 40.1693 743.785 37.9256C743.785 35.6808 745.302 34.1319 747.293 34.1319C749.284 34.1319 750.801 35.6808 750.801 37.9256C750.801 40.1693 749.284 41.717 747.293 41.717Z" fill="#F2F2F2"/>
</g>
</g>
<g clip-path="url(#clip8_53_341)">
<path d="M894.803 45.9986C893.476 45.9986 892.422 45.5861 891.642 44.76V45.7825H889.261V30.6785L891.642 29.9244V35.92C892.422 35.109 893.476 34.7035 894.803 34.7035C896.376 34.7035 897.67 35.2542 898.687 36.3546C899.705 37.4549 900.214 38.7877 900.214 40.3505C900.214 41.9144 899.705 43.2483 898.687 44.3475C897.67 45.449 896.376 45.9986 894.803 45.9986ZM894.543 43.827C895.481 43.827 896.253 43.49 896.859 42.8161C897.465 42.1433 897.768 41.3218 897.768 40.3505C897.768 39.3814 897.465 38.5599 896.859 37.886C896.253 37.2121 895.481 36.8763 894.543 36.8763C893.303 36.8763 892.335 37.3747 891.643 38.374V42.306C892.322 43.3192 893.287 43.827 894.543 43.827ZM903.632 32.9873C903.213 32.9919 902.809 32.8235 902.518 32.519C902.212 32.2204 902.044 31.8079 902.052 31.3792C902.047 30.9586 902.216 30.553 902.518 30.2614C902.809 29.957 903.213 29.7885 903.632 29.7931C904.079 29.7931 904.458 29.95 904.768 30.2614C905.079 30.5728 905.234 30.9458 905.234 31.3792C905.234 31.8288 905.079 32.2088 904.768 32.5202C904.458 32.8316 904.081 32.9873 903.632 32.9873ZM902.442 45.7836H904.823V34.9207H902.442V45.7836ZM912.938 45.8894C911.827 45.8894 910.923 45.5826 910.223 44.9668C909.523 44.3521 909.173 43.4575 909.173 42.2851V37.0482H906.489V34.9207H909.173V32.5272L911.554 31.7707V34.9207H914.866V37.0494H911.553V41.8935C911.553 43.124 912.115 43.7398 913.241 43.7398C913.833 43.7398 914.345 43.6097 914.778 43.3494L915.493 45.3468C914.742 45.7104 913.892 45.8894 912.938 45.8894ZM917.072 50.7497V34.9196H919.453V35.92C920.233 35.109 921.285 34.7035 922.613 34.7035C924.186 34.7035 925.48 35.2542 926.498 36.3546C927.516 37.4549 928.023 38.7877 928.023 40.3505C928.023 41.9144 927.516 43.2483 926.498 44.3475C925.48 45.449 924.186 45.9986 922.613 45.9986C921.285 45.9986 920.233 45.5861 919.453 44.76V49.9968L917.072 50.7497ZM922.353 43.8258C923.291 43.8258 924.062 43.49 924.669 42.8161C925.275 42.1433 925.579 41.3218 925.579 40.3505C925.579 39.3814 925.274 38.5599 924.669 37.886C924.062 37.2121 923.291 36.8763 922.353 36.8763C921.112 36.8763 920.144 37.3747 919.453 38.374V42.306C920.132 43.3192 921.098 43.8258 922.353 43.8258ZM934.885 45.9986C933.311 45.9986 932.019 45.4502 931.01 44.3487C930 43.2471 929.496 41.9156 929.496 40.3505C929.496 38.7877 930 37.4549 931.01 36.3546C932.019 35.2542 933.311 34.7035 934.885 34.7035C936.211 34.7035 937.265 35.109 938.045 35.92V34.9207H940.426V45.7825H938.045V44.76C937.265 45.5861 936.211 45.9986 934.885 45.9986ZM935.165 43.827C936.406 43.827 937.365 43.3192 938.044 42.306V38.374C937.351 37.3747 936.392 36.8763 935.165 36.8763C934.228 36.8763 933.457 37.2121 932.849 37.886C932.243 38.5599 931.94 39.3814 931.94 40.3505C931.94 41.3218 932.243 42.1433 932.849 42.8161C933.457 43.49 934.227 43.827 935.165 43.827ZM943.001 45.7825V34.9207H945.38V36.0722C946.116 35.1601 947.177 34.7035 948.562 34.7035C949.846 34.7035 950.874 35.1206 951.645 35.9525C952.418 36.7856 952.804 37.8965 952.804 39.2873V45.7825H950.423V39.6777C950.423 38.7946 950.217 38.1056 949.806 37.6141C949.395 37.1214 948.808 36.8763 948.042 36.8763C946.772 36.8763 945.886 37.4479 945.38 38.5924V45.7825H943.001ZM960.27 45.9986C958.698 45.9986 957.406 45.449 956.397 44.3487C955.387 43.2471 954.881 41.9156 954.881 40.3505C954.881 38.7877 955.387 37.4549 956.397 36.3546C957.406 35.2542 958.698 34.7035 960.27 34.7035C961.597 34.7035 962.651 35.109 963.431 35.92V30.6785L965.812 29.9244V45.7825H963.431V44.76C962.651 45.5861 961.597 45.9986 960.27 45.9986ZM960.552 43.827C961.793 43.827 962.752 43.3192 963.431 42.306V38.374C962.738 37.3747 961.779 36.8763 960.552 36.8763C959.614 36.8763 958.842 37.2121 958.236 37.886C957.631 38.5599 957.327 39.3814 957.327 40.3505C957.327 41.3218 957.631 42.1433 958.236 42.8161C958.842 43.49 959.614 43.827 960.552 43.827ZM973.451 45.9986C971.878 45.9986 970.586 45.4502 969.576 44.3487C968.567 43.2471 968.062 41.9156 968.062 40.3505C968.062 38.7877 968.567 37.4549 969.576 36.3546C970.586 35.2542 971.878 34.7035 973.451 34.7035C974.778 34.7035 975.831 35.109 976.611 35.92V34.9207H978.992V45.7825H976.611V44.76C975.831 45.5861 974.778 45.9986 973.451 45.9986ZM973.731 43.827C974.972 43.827 975.933 43.3192 976.611 42.306V38.374C975.917 37.3747 974.958 36.8763 973.731 36.8763C972.795 36.8763 972.022 37.2121 971.416 37.886C970.81 38.5599 970.507 39.3814 970.507 40.3505C970.507 41.3218 970.81 42.1433 971.416 42.8161C972.022 43.49 972.795 43.827 973.731 43.827ZM874.934 28.4348L874.464 28.5836V30.3532C874.462 31.2432 873.891 32.0322 873.049 32.3099L868.234 33.832V36.4545L874.562 34.4525C876.063 33.9831 876.958 32.6829 876.958 30.9737V29.8013C876.958 28.9995 876.044 28.0816 874.934 28.4348ZM864.865 27.6866L873.81 24.8573C874.786 24.5482 875.561 24.5656 876.028 24.6202L874.908 23.7987C874.391 23.4223 872.814 22.5427 870.87 23.1643L862.373 25.8542L864.865 27.6866Z" fill="#F2F2F2"/>
<path d="M878.491 35.4543C878.491 35.4543 880.072 34.0146 880.072 30.9227V29.6132C880.072 27.5775 877.735 24.2683 873.994 25.4547L865.12 28.2631V44.7788L867.612 43.9898V39.93L875.62 37.3959C877.113 36.9276 878.358 38.1035 878.358 39.4106V41.0199C878.358 42.6594 876.916 44.9833 874.656 45.6955L862.373 49.5822L864.865 51.4157L875.928 47.9148C878.265 47.1689 880.85 45.1576 880.85 40.8875V39.2445C880.85 36.6615 878.491 35.4543 878.491 35.4543ZM874.749 35.0499L867.611 37.3087V30.0966L874.743 27.8401C876.231 27.3719 877.579 28.5652 877.579 29.8015L877.58 30.975C877.58 33.0293 876.46 34.5108 874.749 35.0499Z" fill="#F2F2F2"/>
<path d="M877.735 41.0198V39.4129C877.735 38.5031 876.861 37.6584 875.806 37.993L875.243 38.1708V40.3982C875.246 41.4904 874.54 42.4571 873.501 42.7825L864.496 45.6304V28.191L862.005 26.3574V49.043L874.466 45.0994C876.422 44.4812 877.735 42.4908 877.735 41.0198Z" fill="#F2F2F2"/>
</g>
<g clip-path="url(#clip9_53_341)">
<path d="M1174.19 34.77C1174.56 34.77 1174.79 35.0315 1174.88 35.3859C1175.08 36.1342 1174.12 37.9456 1170.73 40.0197C1170.83 37.5912 1172.28 34.77 1174.19 34.77ZM1163.88 34.77C1164.43 34.77 1164.47 35.3301 1164.51 35.5358C1164.66 36.5827 1163.69 38.451 1160.51 39.5154C1160.85 37.2728 1162.31 34.77 1163.88 34.77ZM1150.23 25.9882C1151.29 25.9882 1150.42 29.6506 1147.03 34.77C1147.8 27.9879 1148.93 25.9882 1150.23 25.9882ZM1138.5 34.77C1138.82 34.77 1138.89 35.0315 1138.95 35.1628C1139.08 35.6287 1138.59 37.4785 1134.93 40.0568C1135.12 37.5912 1136.62 34.77 1138.5 34.77ZM1123.3 55.5465C1122.92 55.5465 1122.66 55.3037 1122.66 54.818C1122.66 52.6127 1126.08 49.6044 1126.12 49.5858C1125.66 52.5569 1124.47 55.5465 1123.3 55.5465ZM1179.84 40.991C1179.27 40.5995 1178.49 40.7668 1178.1 41.3466C1178.04 41.4395 1176.5 43.6821 1173.84 43.6821C1172.8 43.6821 1172 43.3649 1171.48 42.7107C1171.44 42.6735 1171.4 42.6166 1171.39 42.5794C1171.4 42.5794 1171.4 42.5608 1171.42 42.5608C1177.67 38.9553 1177.63 35.8727 1177.33 34.7143C1176.96 33.3316 1175.74 32.4346 1174.21 32.4346C1170.64 32.4346 1168.24 36.4514 1168.24 40.1881C1168.24 40.6552 1168.28 41.1223 1168.35 41.5522C1167.09 42.4864 1165.12 43.6635 1163.39 43.6635C1162.39 43.6635 1161.63 43.3649 1161.14 42.7665C1160.98 42.5608 1160.85 42.318 1160.73 42.0751C1165.53 40.6738 1167.33 37.6098 1167 35.1628C1166.77 33.5558 1165.58 32.4346 1164.1 32.4346C1160.77 32.4346 1158.35 35.9471 1157.96 39.441C1157.33 39.3655 1156.76 39.1796 1156.23 38.8612C1156.33 38.3012 1156.36 37.7597 1156.36 37.2543C1156.36 36.1156 1156.14 35.1244 1155.73 34.3959C1155.18 33.3873 1154.26 32.8273 1153.19 32.8273C1152.61 32.8273 1152.09 33.1445 1151.79 33.686C1151.18 34.8258 1151.57 37.03 1152.7 38.824C1152.93 39.1796 1153.17 39.4968 1153.43 39.7768C1152.8 41.7951 1151.51 43.7007 1149.82 43.7007C1149.06 43.7007 1148.5 43.4578 1148.04 42.9535C1147.37 42.225 1146.94 40.9353 1146.81 39.3097C1151.51 33.4059 1153.78 27.6323 1152.5 24.9052C1152.05 23.9711 1151.23 23.447 1150.23 23.447C1146.98 23.447 1145.04 27.6695 1144.32 36.3584C1144.28 36.8813 1144.24 37.5354 1144.24 38.2268C1142.52 40.5809 1139.67 43.6635 1137.11 43.6635C1136.38 43.6635 1135.84 43.4206 1135.47 42.8978C1135.43 42.8594 1135.42 42.8036 1135.38 42.7665C1135.42 42.7479 1135.43 42.7293 1135.47 42.7107C1141.77 38.6184 1141.68 35.5544 1141.35 34.4145C1140.99 33.1817 1139.9 32.416 1138.48 32.416C1134.82 32.416 1132.35 36.657 1132.35 40.5995C1132.35 40.9538 1132.37 41.3094 1132.42 41.6452C1131.27 42.4864 1130.3 43.2336 1129.39 43.9435C1129.52 42.8594 1129.73 41.4965 1129.97 39.441C1130.03 39.0297 1130.06 38.6939 1130.1 38.5254C1130.3 37.03 1127.87 36.7128 1127.59 38.3941C1127.31 40.1138 1126.59 43.6821 1124.56 43.6821C1123.35 43.6821 1122.7 42.318 1122.83 40.3566C1123.02 37.2543 1124.69 34.7143 1126.75 34.7143C1127.46 34.7143 1127.83 35.48 1127.83 35.48C1128.48 36.6756 1130.51 35.6671 1130.08 34.3959C1129.89 33.8359 1129.21 32.4346 1126.85 32.4346C1122.01 32.4346 1120.51 37.3484 1120.3 40.5995C1120.27 41.1409 1120.28 41.6452 1120.32 42.1495C1119.65 42.9721 1118.83 43.6821 1118.05 43.6821C1117.29 43.6821 1116.81 42.8222 1117.09 40.8423C1117.37 38.9553 1117.55 37.3856 1117.68 36.47C1118.28 32.3404 1113.13 32.4532 1113.13 32.4532C1113.13 32.4532 1113.07 30.0433 1111.08 30.0433C1110.06 30.0433 1109.17 30.8276 1109.17 32.3219C1109.17 33.7046 1110.3 34.3773 1110.3 34.3773C1110.06 36.5257 1109.06 43.6635 1106.83 43.6635C1105.82 43.6635 1105.77 42.5794 1105.84 41.8137C1105.97 40.7482 1106.16 38.9739 1106.21 38.5068C1106.42 37.0114 1103.96 36.6942 1103.7 38.3755C1103.42 40.0952 1102.7 43.6635 1100.67 43.6635C1099.46 43.6635 1098.81 42.1309 1098.91 40.2811C1099.07 37.1055 1100.78 34.6957 1102.85 34.6957C1103.55 34.6957 1103.93 35.4614 1103.93 35.4614C1104.46 36.6384 1106.58 35.7972 1106.18 34.3773C1105.99 33.7615 1105.3 32.416 1102.94 32.416C1098.11 32.416 1096.6 37.3298 1096.4 40.5809C1096.36 41.0851 1096.38 41.5708 1096.42 42.0379C1095.73 42.9907 1094.89 43.6635 1094.11 43.6635C1093.39 43.6635 1092.85 43.2893 1092.98 41.6638C1093.03 40.8981 1093.93 35.6856 1093.87 34.7329C1093.78 33.1445 1093.05 32.4532 1091.3 32.4532C1089.46 32.4532 1088.07 33.4059 1087.47 34.0229C1087.47 34.0229 1088.35 27.4266 1088.52 26.1752C1088.68 24.8483 1086.16 24.8297 1085.99 26.1566C1085.91 26.7353 1085.24 31.9489 1084.61 36.7686C1083.24 39.9453 1080.37 44.8033 1076.13 44.8033C1068.1 44.8033 1071.8 27.2024 1079.33 27.2024C1081.1 27.2024 1080.3 30.0247 1079.13 31.7618C1078.29 32.9946 1080.41 34.4145 1081.58 32.416C1084.82 26.9224 1082.08 24.8483 1079.52 24.8483C1068.35 24.8483 1064.2 47.2318 1075.84 47.2318C1079.67 47.2318 1082.23 45.0648 1083.89 42.7479C1083.72 44.0748 1083.59 44.9706 1083.57 45.1391C1083.37 46.5218 1085.95 46.4103 1086.08 45.2518C1086.17 44.5233 1086.55 41.4209 1086.88 39.0669C1087.06 37.7214 1088.7 35.2371 1090.58 35.2371C1091.02 35.2371 1091.3 35.6856 1091.25 36.0586C1091.17 36.5071 1090.37 42.3551 1090.43 43.2336C1090.58 45.6806 1092.33 46.2418 1093.98 46.2418C1095.3 46.2418 1096.34 45.6248 1097.22 44.6348C1097.81 45.6248 1098.7 46.2418 1099.93 46.2418C1102.72 46.2418 1103.68 44.2235 1103.68 44.2235C1103.68 44.2235 1104.02 46.2232 1106.44 46.2232C1111.32 46.2232 1112.46 37.6656 1112.7 34.8072C1112.98 34.8258 1114.71 34.9188 1115 35.8913C1115.28 36.8255 1114.41 39.814 1114.34 42.8792C1114.3 44.5035 1114.89 46.2418 1117.44 46.2418C1119 46.2418 1120.21 45.5319 1121.1 44.7092C1121.7 45.662 1122.59 46.2418 1123.78 46.2418C1125.15 46.2418 1126.08 45.7933 1126.68 45.3448C1126.64 45.6062 1126.6 45.8677 1126.57 46.1291C1126.57 46.1477 1126.57 46.1674 1126.57 46.186C1126.57 46.1291 1120.12 50.8186 1120.12 55.2282C1120.12 56.9478 1120.92 58.0865 1122.94 58.0865C1126.98 58.0865 1128.24 52.6684 1128.84 48.1845C1128.87 47.9789 1128.89 47.7732 1128.91 47.5873C1129.54 47.1005 1130.14 46.6531 1130.69 46.2046C1131.53 45.5504 1132.35 44.9149 1133.28 44.2235C1133.31 44.299 1133.37 44.3734 1133.41 44.4292C1134.26 45.6248 1135.53 46.2418 1137.09 46.2418C1140.01 46.2418 1142.72 43.9807 1144.67 41.7765C1144.97 42.8594 1145.43 43.9063 1146.18 44.7092C1147.11 45.7375 1148.37 46.2604 1149.82 46.2604C1152.61 46.2604 1154.56 44.0179 1155.57 41.4209C1156.33 41.7765 1157.16 41.9822 1158.08 42.0379C1158.28 42.9535 1158.65 43.7564 1159.17 44.4292C1159.86 45.2518 1161.12 46.2418 1163.37 46.2418C1165.6 46.2418 1167.82 45.0462 1169.28 44.0179C1169.36 44.1306 1169.43 44.2235 1169.51 44.3362C1170.21 45.2135 1171.52 46.2418 1173.82 46.2418C1177.87 46.2418 1180.08 42.9163 1180.18 42.7665C1180.59 42.1681 1180.42 41.3838 1179.84 40.991Z" fill="#F2F2F2"/>
</g>
<g clip-path="url(#clip10_53_341)">
<g clip-path="url(#clip11_53_341)">
<path d="M103.887 117.278C102.441 117.047 100.994 117.22 99.5479 117.22C99.1429 117.22 99.2587 117.51 99.2587 117.683C99.2587 118.608 99.2587 119.534 99.2587 120.401C99.2587 121.327 99.3743 122.194 99.1429 123.119C100.705 123.119 102.267 123.119 103.829 123.119C103.829 123.004 103.945 123.004 104.061 123.004C105.623 122.657 106.433 121.731 106.375 120.17C106.317 118.551 105.449 117.51 103.887 117.278ZM103.714 122.078C102.73 122.31 101.689 122.194 100.705 122.194C100.358 122.194 100.358 121.963 100.358 121.731C100.358 121.153 100.358 120.633 100.358 120.054C100.358 119.534 100.358 118.955 100.358 118.435C100.358 118.204 100.358 118.03 100.705 118.03C101.689 118.088 102.73 117.914 103.714 118.146C104.697 118.377 105.218 118.955 105.218 120.054C105.218 121.211 104.755 121.905 103.714 122.078Z" fill="#F2F2F2"/>
<path d="M133.567 118.435C133.567 117.509 133.22 117.22 132.352 117.22C130.79 117.22 129.228 117.22 127.724 117.22C126.74 117.22 126.451 117.567 126.451 118.493C126.451 119.649 126.451 120.748 126.451 121.905C126.451 122.483 126.624 122.888 127.145 123.177C129.054 123.177 131.021 123.177 132.931 123.177C133.509 122.888 133.683 122.425 133.683 121.789C133.567 120.632 133.625 119.534 133.567 118.435ZM131.889 122.252C131.253 122.194 130.616 122.252 129.98 122.252C129.344 122.252 128.649 122.252 128.013 122.252C127.608 122.252 127.492 122.194 127.492 121.731C127.492 120.69 127.492 119.649 127.492 118.55C127.492 118.146 127.55 118.03 128.013 118.03C129.344 118.03 130.616 118.03 131.947 118.03C132.352 118.03 132.468 118.088 132.468 118.55C132.468 119.591 132.41 120.632 132.468 121.731C132.468 122.194 132.294 122.252 131.889 122.252Z" fill="#F2F2F2"/>
<path d="M59.0488 120.979C59.0488 119.881 58.7596 119.591 57.6603 119.591C56.561 119.591 55.4039 119.591 54.3047 119.591C53.9575 119.591 53.784 119.476 53.8418 119.129C53.8418 118.897 53.8418 118.666 53.8418 118.377C53.8418 118.088 53.8997 118.03 54.1889 118.03C55.3461 118.03 56.5032 118.03 57.6603 118.03C57.8339 118.03 58.0074 118.03 58.0074 118.261C57.9496 118.897 58.3546 118.724 58.7017 118.666C59.1645 118.608 59.1067 118.319 59.0488 117.972C58.9331 117.336 58.4703 117.162 57.9496 117.162C56.966 117.162 55.9246 117.162 54.9411 117.162C53.0318 117.162 52.8583 117.336 52.9161 119.187C52.974 120.228 53.2054 120.517 54.3047 120.517C55.2304 120.517 56.156 120.517 57.1396 120.517C58.2389 120.517 58.2389 120.517 58.2389 121.673C58.2389 122.02 58.181 122.252 57.7182 122.194C56.561 122.136 55.4039 122.194 54.2468 122.194C53.8997 122.194 53.7261 122.078 53.7261 121.731C53.784 121.384 53.6104 121.326 53.3211 121.384C53.0897 121.442 52.9161 121.5 52.6847 121.558C52.6847 121.905 52.6847 122.194 52.6847 122.541C52.6847 122.83 52.8004 123.119 53.1475 123.119H58.5281C59.0488 122.83 59.2803 122.425 59.2803 121.847C58.991 121.558 59.0488 121.269 59.0488 120.979Z" fill="#F2F2F2"/>
<path d="M149.42 120.979C149.42 119.881 149.13 119.591 148.031 119.591C146.932 119.591 145.891 119.534 144.791 119.591C144.271 119.591 144.097 119.418 144.213 118.955C144.213 118.782 144.213 118.55 144.213 118.377C144.213 118.088 144.328 118.03 144.56 118.03C145.717 118.03 146.816 118.03 147.973 118.03C148.147 118.03 148.378 117.972 148.32 118.261C148.263 119.013 148.725 118.782 149.073 118.666C149.594 118.55 149.304 118.146 149.246 117.856C149.13 117.278 148.668 117.162 148.147 117.162C147.163 117.162 146.122 117.162 145.138 117.162C143.229 117.162 143.056 117.394 143.171 119.302C143.229 120.228 143.461 120.517 144.386 120.575C145.37 120.632 146.295 120.575 147.279 120.575C148.436 120.575 148.436 120.575 148.436 121.731C148.436 122.194 148.263 122.252 147.858 122.252C146.758 122.252 145.659 122.252 144.56 122.252C144.155 122.252 143.866 122.194 143.923 121.673C143.981 121.442 143.808 121.384 143.576 121.384C142.998 121.384 142.824 121.673 142.94 122.252C142.998 122.599 143.287 122.83 143.461 123.119C145.196 123.119 146.932 123.119 148.668 123.119C149.188 122.83 149.42 122.425 149.362 121.847C149.42 121.558 149.42 121.269 149.42 120.979Z" fill="#F2F2F2"/>
<path d="M88.5554 117.162C88.1503 117.162 87.9768 117.162 87.9768 117.683C88.0347 119.013 87.9768 120.343 87.9768 121.673C87.9768 122.136 87.8611 122.251 87.3983 122.194C86.4147 122.194 85.3732 122.136 84.3897 122.194C83.8112 122.194 83.6376 122.078 83.6376 121.442C83.6955 120.169 83.6376 118.839 83.6376 117.567C83.6376 117.104 83.4062 117.046 83.059 117.104C82.7697 117.104 82.4226 116.989 82.4226 117.509C82.4226 118.897 82.4226 120.343 82.4226 121.731C82.4226 122.251 82.5962 122.714 83.059 123.061C84.7947 123.061 86.5303 123.061 88.2661 123.061C88.8447 122.772 89.0182 122.309 89.0182 121.731C89.0182 120.343 89.0182 119.013 89.0182 117.625C89.1339 117.22 88.9603 117.162 88.5554 117.162Z" fill="#F2F2F2"/>
<path d="M73.6286 117.162C71.6036 117.162 69.6365 117.162 67.6116 117.162C67.3223 117.162 67.2065 117.278 67.2065 117.567C67.2065 117.856 67.2065 118.088 67.6116 118.03C68.248 118.03 68.8265 118.088 69.4629 118.03C69.9836 117.972 70.0994 118.203 70.0415 118.666C69.9836 120.17 70.0415 121.616 70.0415 123.119C70.4465 123.119 70.7936 123.119 71.1986 123.119C71.1986 121.616 71.1986 120.17 71.1986 118.666C71.1986 118.203 71.3143 117.972 71.8351 118.03C72.4715 118.088 73.05 118.03 73.6864 118.03C73.9757 118.03 74.0915 117.914 74.0915 117.625C73.9757 117.394 74.0335 117.162 73.6286 117.162Z" fill="#F2F2F2"/>
<path d="M116.384 117.162C115.921 117.162 115.805 117.278 115.805 117.741C115.805 119.534 115.805 121.326 115.805 123.119C116.21 123.119 116.558 123.119 116.963 123.119C116.963 121.326 116.963 119.534 116.963 117.741C116.963 117.336 116.847 117.162 116.384 117.162Z" fill="#F2F2F2"/>
<path d="M149.362 113.924C149.362 113.982 149.362 114.039 149.362 114.097C149.42 113.982 149.42 113.924 149.362 113.924C149.362 113.866 149.362 113.866 149.362 113.924Z" fill="#F2F2F2"/>
<path d="M69.5784 100.044C69.4627 99.9285 69.9255 100.16 69.5784 100.044V100.044Z" fill="#F2F2F2"/>
<path d="M69.5786 113.867C69.5207 112.826 69.5786 111.727 69.5786 110.628C69.5786 109.471 69.5786 108.373 69.5786 107.216C69.5786 104.96 69.5786 102.705 69.5786 100.449C69.5786 100.391 69.6365 100.102 69.5786 99.9866C69.5207 99.9866 69.4629 99.9288 69.3472 99.9288C69.1736 99.8709 68.8265 99.9288 68.595 99.9288C68.0743 99.9288 67.4958 99.9288 66.9751 99.9288C66.8015 99.9288 66.5123 99.8709 66.3966 99.9866C66.2808 100.102 66.3966 100.623 66.3966 100.796C66.3966 101.375 66.3966 101.953 66.3966 102.531C66.3966 103.052 66.3966 103.572 66.3966 104.035C66.3966 104.382 66.5701 105.134 66.223 105.307C65.8759 105.481 65.1815 105.365 64.7766 105.365C64.198 105.365 63.6195 105.365 63.0409 105.365C61.7681 105.365 60.4952 105.365 59.2224 105.365C58.8753 105.365 55.9246 105.481 55.9246 105.192C55.9246 103.457 55.9246 101.664 55.9246 99.9288C55.8089 100.102 55.1725 99.9866 54.9989 99.9866C54.5939 99.9866 54.2468 99.9866 53.8418 99.9866C53.6683 99.9866 53.1476 99.8709 53.0318 99.9866C52.9161 100.044 52.9161 100.218 52.9161 100.334C52.8583 101.837 52.9161 103.399 52.9161 104.902C52.9161 106.406 52.9161 107.968 52.9161 109.471C52.9161 110.223 52.9161 110.917 52.9161 111.669C52.9161 112.074 52.9161 112.421 52.9161 112.826C52.9161 113.057 53.0318 113.52 52.8583 113.751C53.0318 113.635 53.3211 113.693 53.4947 113.693C53.784 113.693 54.0732 113.693 54.3625 113.693C54.8832 113.693 55.4039 113.635 55.9246 113.693C55.9246 111.958 55.9246 110.223 55.9246 108.488C55.9246 108.315 55.8668 108.083 55.9246 107.91C55.9825 107.736 55.9825 107.736 56.1561 107.736C56.561 107.679 57.0239 107.736 57.4289 107.736C58.2967 107.736 59.1646 107.736 60.0324 107.736C61.8259 107.736 63.5616 107.736 65.3552 107.736C65.5287 107.736 66.1651 107.621 66.2808 107.794C66.4544 107.968 66.2808 108.72 66.2808 108.893C66.2808 109.761 66.2808 110.628 66.2808 111.496C66.2808 111.958 66.2808 112.479 66.2808 112.941C66.2808 113.173 66.223 113.52 66.2808 113.693C66.3387 113.867 66.223 113.751 66.5123 113.809C66.9751 113.867 67.5537 113.809 68.0165 113.809C68.595 113.867 69.0579 113.867 69.5786 113.867Z" fill="#F2F2F2"/>
<path d="M129.749 113.924C129.98 113.866 129.922 114.04 129.98 113.751C130.038 113.519 129.98 113.172 129.98 112.941C129.98 112.652 129.98 112.421 129.98 112.131C129.98 112.016 129.922 111.495 129.98 111.438C129.807 111.553 129.344 111.495 129.112 111.495C128.765 111.495 128.476 111.495 128.129 111.495C127.434 111.495 126.798 111.495 126.104 111.495C124.773 111.495 123.5 111.495 122.17 111.495C121.533 111.495 120.897 111.495 120.26 111.495C119.913 111.495 119.624 111.495 119.277 111.495C119.161 111.495 118.814 111.495 118.698 111.38C118.582 111.264 118.698 110.859 118.698 110.686C118.698 110.339 118.698 109.992 118.698 109.702C118.698 109.124 118.698 108.546 118.698 107.967C118.698 107.794 118.698 107.794 118.872 107.794C120.26 107.794 121.591 107.794 122.98 107.794C123.327 107.794 123.674 107.794 124.021 107.794C124.31 107.794 124.715 107.852 124.947 107.794C125.294 107.736 125.178 107.736 125.178 107.331C125.178 106.984 125.178 106.695 125.178 106.348C125.178 106.175 125.294 105.654 125.178 105.538C125.062 105.365 124.773 105.481 124.599 105.481C123.905 105.481 123.269 105.481 122.575 105.481C121.88 105.481 121.186 105.481 120.434 105.481C119.913 105.481 119.335 105.538 118.814 105.481C118.814 105.538 118.64 105.423 118.64 105.423C118.582 105.365 118.64 105.134 118.64 105.018C118.64 104.613 118.64 104.208 118.64 103.803C118.64 103.456 118.64 103.052 118.64 102.705C118.64 102.647 118.582 102.415 118.698 102.358C118.698 102.358 118.814 102.3 118.814 102.358C121.128 102.358 123.442 102.358 125.757 102.358C126.972 102.358 128.129 102.358 129.344 102.358C129.402 102.358 129.575 102.415 129.633 102.358C129.807 102.3 129.749 102.3 129.749 102.068C129.749 101.779 129.749 101.548 129.749 101.259C129.749 101.085 129.864 100.218 129.749 100.102C129.633 100.16 129.112 100.102 128.997 100.102C128.707 100.102 128.418 100.102 128.129 100.102C127.55 100.102 126.914 100.102 126.335 100.102C125.12 100.102 123.905 100.102 122.69 100.102C122.112 100.102 115.574 100.102 115.574 100.102C115.574 104.15 115.574 108.199 115.574 112.247C115.574 112.71 115.458 113.288 115.574 113.751C115.632 114.04 115.458 113.866 115.748 113.982C115.979 114.04 116.326 113.982 116.558 113.982C117.541 113.982 118.582 113.982 119.566 113.982C121.649 113.982 123.732 113.982 125.815 113.982C126.972 113.982 128.129 113.982 129.286 113.982C129.459 113.924 129.633 113.924 129.749 113.924Z" fill="#F2F2F2"/>
<path d="M148.668 113.924C149.073 113.924 149.246 114.04 149.246 113.635C149.246 113.115 149.246 112.594 149.246 112.074C149.246 111.958 149.304 111.437 149.246 111.38C149.188 111.322 148.841 111.38 148.783 111.38C148.321 111.38 147.858 111.38 147.395 111.38C146.469 111.38 145.543 111.38 144.618 111.38C143.518 111.38 142.477 111.38 141.378 111.38C140.857 111.38 140.394 111.38 139.874 111.38C139.758 111.38 139.526 111.437 139.469 111.322C139.411 111.206 139.469 111.09 139.584 111.09C139.584 111.09 139.584 111.09 139.584 111.033L139.7 110.917C139.758 110.917 139.816 110.917 139.816 110.917C139.874 110.859 139.874 110.801 139.931 110.743C139.989 110.628 140.279 110.396 140.336 110.396C140.336 110.339 140.336 110.339 140.336 110.281L140.394 110.223C140.452 110.165 140.568 110.165 140.568 110.107C140.626 110.049 140.684 109.934 140.741 109.876C140.799 109.818 140.857 109.76 140.973 109.76C140.973 109.702 140.973 109.702 140.973 109.645L141.089 109.529H141.146C141.146 109.471 141.204 109.355 141.262 109.298L141.378 109.182L141.436 109.124C141.494 109.066 141.494 109.066 141.551 109.008C141.725 108.835 141.841 108.719 141.956 108.604L142.188 108.372C142.246 108.314 142.246 108.314 142.304 108.257C142.361 108.199 142.419 108.199 142.419 108.141L142.593 108.025C142.651 107.967 142.651 107.91 142.709 107.794L142.824 107.678H142.882C142.94 107.563 143.056 107.447 143.171 107.331L143.461 107.1V107.042L143.576 106.926H143.634C143.634 106.869 143.808 106.637 143.866 106.637L143.981 106.522C144.039 106.522 144.039 106.522 144.039 106.522V106.464C144.097 106.406 144.097 106.406 144.155 106.348L144.328 106.175C144.328 106.232 144.328 106.29 144.328 106.29C144.328 106.29 144.502 106.117 144.444 106.175C144.502 106.059 144.502 106.117 144.56 106.059C144.502 106.117 144.502 106.059 144.502 106.001L144.618 105.885C144.734 105.77 144.849 105.654 144.734 105.77C144.791 105.712 144.791 105.712 144.849 105.654C144.907 105.654 144.965 105.654 144.907 105.596L145.081 105.423C145.081 105.423 145.138 105.423 145.138 105.365L145.254 105.249C145.312 105.191 145.486 105.018 145.543 104.902L146.18 104.266L146.238 104.208L146.585 103.861L148.552 101.895L148.61 101.837C148.668 101.779 148.668 101.779 148.726 101.721L149.073 101.374C149.131 101.259 149.073 100.854 149.073 100.738C149.073 100.623 149.131 100.391 149.073 100.276C149.015 100.044 149.188 100.16 148.899 100.102C148.668 100.044 148.378 100.102 148.147 100.102C147.684 100.102 147.221 100.102 146.816 100.102L146.411 100.044L146.353 100.102C145.312 100.102 144.271 100.102 143.171 100.102C140.973 100.102 138.774 100.102 136.576 100.102C136.344 100.102 135.245 99.9864 135.129 100.102C135.072 100.218 135.129 100.68 135.129 100.854C135.129 101.143 135.129 101.432 135.129 101.779C135.129 102.126 135.014 102.358 135.419 102.415C135.997 102.473 136.576 102.415 137.154 102.415C137.733 102.415 143.808 102.358 143.808 102.473C143.808 102.531 143.924 102.473 143.866 102.647L143.634 102.82C143.634 102.82 143.576 102.878 143.576 102.936L143.403 103.109C143.403 103.109 143.403 103.109 143.345 103.109C143.345 103.109 143.345 103.167 143.287 103.225L143.056 103.456C142.998 103.456 142.998 103.514 142.94 103.456C142.94 103.456 142.94 103.456 142.998 103.514L142.766 103.746C142.708 103.746 142.651 103.746 142.651 103.746C142.651 103.746 142.593 103.861 142.593 103.919L142.477 104.035L142.361 104.15H142.304V104.208L142.072 104.44L142.014 104.497C141.956 104.497 141.899 104.613 141.899 104.671L141.841 104.729L141.725 104.844H141.667V104.902L141.609 104.96H141.551V105.018L141.378 105.191C141.32 105.249 141.262 105.249 141.204 105.249C141.204 105.249 141.204 105.307 141.146 105.365L140.973 105.538L139.7 106.811L134.262 112.247V112.478C134.204 112.71 134.262 113.057 134.262 113.346V113.924H136.576L136.634 113.867C139.7 113.867 142.708 113.867 145.775 113.867C146.758 113.924 147.742 113.924 148.668 113.924Z" fill="#F2F2F2"/>
<path d="M144.734 105.885H144.676C144.617 105.943 144.559 106.06 144.734 105.885Z" fill="#F2F2F2"/>
<path d="M87.0511 107.851C87.2247 107.851 88.0346 107.967 88.1503 107.851C88.3238 107.678 88.1503 107.042 88.1503 106.81C88.1503 106.463 88.266 105.943 88.1503 105.654C88.0925 105.538 88.0925 105.48 88.1503 105.48C88.1503 105.48 88.0925 105.48 87.9767 105.48C87.8032 105.422 87.514 105.48 87.3403 105.48C86.9354 105.48 86.5303 105.48 86.1254 105.48C85.7782 105.48 85.3154 105.596 84.9683 105.48C84.9683 106.232 85.0261 107.042 84.9683 107.794C84.9683 107.967 86.8196 107.851 87.0511 107.851Z" fill="#F2F2F2"/>
<path d="M109.615 113.289C109.499 113.173 109.441 113.115 109.325 113.057C109.268 112.999 109.21 112.826 109.152 112.768C108.978 112.768 109.094 112.71 109.036 112.652C108.978 112.652 108.863 112.595 108.863 112.479C108.805 112.363 108.4 112.248 108.458 112.074C108.342 112.074 107.763 111.496 107.763 111.38C107.763 111.38 107.243 110.917 107.243 110.859C107.185 110.859 106.953 110.686 106.953 110.57C106.78 110.628 106.664 110.339 106.606 110.281C106.49 110.166 106.259 110.05 106.259 109.876C106.201 109.876 105.97 109.645 105.97 109.587C105.796 109.529 105.681 109.356 105.565 109.298C105.507 109.24 105.449 109.067 105.391 109.009C105.276 108.951 105.16 108.893 105.044 108.778C104.986 108.72 104.928 108.662 104.871 108.604C104.871 108.546 104.755 108.488 104.755 108.373C104.639 108.373 104.408 108.083 104.466 108.026C104.581 107.794 105.738 108.026 105.97 107.968C106.028 107.968 106.143 107.91 106.201 107.852C106.375 107.794 106.606 107.852 106.78 107.852C106.896 107.852 107.127 107.852 107.243 107.794C107.474 107.736 107.648 107.505 107.937 107.505C107.937 107.389 107.995 107.389 108.11 107.389C108.11 107.216 108.168 107.332 108.226 107.274C108.226 107.216 108.516 106.927 108.516 106.927C108.516 106.753 108.631 106.753 108.631 106.58C108.689 106.464 108.747 106.406 108.805 106.291C108.863 106.175 108.805 105.828 108.805 105.712C108.805 105.423 108.863 105.192 108.863 104.903C108.863 104.44 108.863 104.035 108.863 103.572C108.863 102.994 108.863 102.358 108.805 101.78C108.805 101.606 108.689 101.49 108.631 101.317C108.573 101.201 108.4 101.028 108.516 100.912C108.342 100.854 108.4 100.854 108.284 100.796C108.226 100.739 108.053 100.565 108.11 100.507C108.053 100.507 108.168 100.623 107.995 100.507C107.821 100.507 107.937 100.449 107.821 100.392C107.763 100.392 107.59 100.334 107.532 100.276C107.416 100.218 107.3 100.218 107.185 100.218C106.78 100.102 106.259 100.102 105.796 100.102C104.35 100.102 102.846 100.102 101.399 100.102C99.895 100.102 98.3328 100.102 96.8286 100.102C96.1344 100.102 95.44 100.102 94.7458 100.102C94.5722 100.102 94.0515 99.9868 93.9358 100.102C93.8202 100.218 93.9358 100.912 93.9358 101.086C93.9358 104.093 93.9358 107.1 93.9358 110.108C93.9358 110.802 93.9358 111.496 93.9358 112.19C93.9358 112.595 93.9358 112.942 93.9358 113.346C93.9358 113.462 93.878 113.693 93.9358 113.809C93.9937 114.04 93.8202 113.925 94.1094 113.983C94.7458 114.098 95.4979 113.983 96.1344 113.983C96.3079 113.983 96.8286 114.098 96.9444 113.983C97.06 113.867 96.9444 112.884 96.9444 112.71C96.9444 111.901 96.9444 111.091 96.9444 110.281C96.9444 109.934 96.9444 109.529 96.9444 109.182C96.9444 108.951 96.8286 108.315 96.9444 108.141C97.06 107.852 97.5229 107.968 97.8122 107.968C98.2172 107.968 98.5643 107.968 98.9693 107.968C99.2007 107.968 100.763 107.794 100.647 108.257C100.705 108.257 101.052 108.662 101.11 108.72C101.283 108.835 101.515 109.067 101.573 109.24C101.573 109.182 101.689 109.298 101.689 109.356C101.689 109.182 101.92 109.587 101.862 109.529C101.92 109.587 102.036 109.645 102.093 109.703C102.267 109.876 102.325 110.108 102.498 110.223C102.556 110.281 102.556 110.339 102.556 110.339C102.614 110.339 102.672 110.281 102.73 110.339C102.788 110.397 102.73 110.455 102.73 110.513C102.73 110.57 103.019 110.686 103.019 110.802C103.135 110.686 103.251 110.975 103.251 111.033C103.308 111.091 103.366 111.091 103.424 111.149C103.482 111.206 103.54 111.322 103.54 111.322C103.598 111.38 104.234 112.016 104.234 112.016C104.292 112.016 104.523 112.421 104.523 112.421C104.639 112.421 104.581 112.479 104.639 112.537H104.755C104.813 112.595 104.813 112.652 104.813 112.652C104.871 112.71 105.044 112.884 105.044 112.942C105.16 112.942 105.276 112.942 105.218 113.115C105.333 113.115 105.623 113.462 105.681 113.52C105.738 113.578 105.796 113.636 105.854 113.693C106.086 113.925 106.028 113.925 106.433 113.925C107.706 113.925 108.978 113.925 110.251 113.925C110.135 113.578 109.788 113.52 109.615 113.289ZM104.003 105.365C103.482 105.365 102.903 105.365 102.383 105.365C101.226 105.365 100.069 105.365 98.9693 105.365C98.4486 105.365 97.87 105.365 97.3493 105.365C96.9444 105.365 96.8286 105.481 96.7708 105.018C96.7708 104.498 96.7708 103.919 96.7708 103.399C96.7708 103.11 96.7129 102.821 96.7708 102.531C96.7708 102.474 96.7708 102.416 96.7708 102.358L96.8864 102.3C96.8864 102.184 104.639 102.3 104.639 102.242H104.813C104.813 102.358 105.102 102.358 105.218 102.358C105.391 102.416 105.507 102.589 105.565 102.647C105.854 102.994 105.854 103.746 105.796 104.209C105.796 104.324 105.796 104.44 105.796 104.556C105.796 104.498 105.565 104.903 105.681 104.787C105.623 104.845 105.507 105.018 105.391 105.076C105.391 105.076 105.102 105.307 105.102 105.192C105.102 105.134 104.697 105.307 104.639 105.307C104.408 105.365 104.234 105.365 104.003 105.365Z" fill="#F2F2F2"/>
<path d="M79.9348 113.462C79.9348 110.454 79.9348 107.447 79.9348 104.44C79.9348 103.688 79.9348 102.936 79.9348 102.242C79.9348 101.837 79.9348 101.49 79.9348 101.085C79.9348 100.854 79.9928 100.507 79.9348 100.276C79.8192 99.9285 79.2406 100.102 78.9513 100.102C78.6042 100.102 78.1992 100.102 77.852 100.102C77.6785 100.102 77.1 100.16 76.9264 100.044C76.9264 104.671 76.9264 109.298 76.9264 113.924C77.3893 113.809 78.0257 113.924 78.4884 113.924C78.7199 113.924 79.0092 113.924 79.2406 113.924C79.4142 113.924 79.8192 113.867 79.9928 113.982C79.9348 113.751 79.9348 113.577 79.9348 113.462Z" fill="#F2F2F2"/>
<path d="M151.156 101.028C151.271 100.97 151.386 100.912 151.386 100.796C151.386 100.681 151.329 100.623 151.271 100.565C151.213 100.507 151.097 100.507 150.924 100.507C150.75 100.507 150.635 100.507 150.519 100.565V101.606H150.75V101.201H150.866C150.982 101.201 151.039 101.259 151.097 101.375C151.156 101.491 151.156 101.606 151.156 101.606H151.386C151.386 101.548 151.329 101.491 151.329 101.375C151.329 101.086 151.271 101.028 151.156 101.028ZM150.866 100.912H150.75V100.623C150.75 100.623 150.808 100.623 150.866 100.623C151.039 100.623 151.097 100.681 151.097 100.796C151.097 100.854 150.982 100.912 150.866 100.912Z" fill="#F2F2F2"/>
<path d="M150.924 99.9287C150.345 99.9287 149.883 100.391 149.883 100.97C149.883 101.548 150.345 102.011 150.924 102.011C151.502 102.011 151.966 101.548 151.966 100.97C151.966 100.391 151.502 99.9287 150.924 99.9287ZM150.924 101.779C150.461 101.779 150.114 101.432 150.114 100.97C150.114 100.507 150.461 100.16 150.924 100.16C151.386 100.16 151.734 100.507 151.734 100.97C151.676 101.432 151.386 101.779 150.924 101.779Z" fill="#F2F2F2"/>
</g>
</g>
<g clip-path="url(#clip12_53_341)">
<g clip-path="url(#clip13_53_341)">
<path fill-rule="evenodd" clip-rule="evenodd" d="M255.512 111.529V121.065H251.979V112.891C251.979 111.028 251.005 110.445 249.475 110.445C248.111 110.445 247.026 111.223 246.414 112.029V121.065H242.881V102.521H246.414V109.388C247.277 108.359 248.946 107.303 251.144 107.303C254.093 107.303 255.512 108.915 255.512 111.529ZM272.166 114.337C272.166 118.174 269.495 121.399 265.043 121.399C260.62 121.399 257.949 118.174 257.949 114.337C257.949 110.528 260.62 107.303 265.043 107.303C269.495 107.303 272.166 110.528 272.166 114.337ZM261.621 114.337C261.621 116.45 262.845 118.257 265.043 118.257C267.241 118.257 268.493 116.45 268.493 114.337C268.493 112.252 267.241 110.445 265.043 110.445C262.845 110.445 261.621 112.252 261.621 114.337ZM294.805 121.065V111.362C294.805 108.61 293.331 107.303 290.855 107.303C288.796 107.303 287.015 108.526 286.236 109.75C285.735 108.22 284.483 107.303 282.508 107.303C280.449 107.303 278.668 108.582 278.112 109.388V107.637H274.579V121.065H278.112V112.029C278.64 111.279 279.67 110.445 280.894 110.445C282.341 110.445 282.897 111.334 282.897 112.585V121.065H286.459V112.002C286.96 111.279 287.989 110.445 289.241 110.445C290.688 110.445 291.244 111.334 291.244 112.585V121.065H294.805ZM309.915 119.536C308.579 120.76 306.465 121.399 304.378 121.399C300.288 121.399 297.2 118.647 297.2 114.337C297.2 110.445 300.065 107.303 304.155 107.303C308.162 107.303 310.888 110.306 310.888 114.699V115.477H300.9C301.123 117.173 302.486 118.591 304.767 118.591C305.908 118.591 307.494 118.09 308.356 117.256L309.915 119.536ZM300.845 113.086H307.466C307.383 111.807 306.492 110.111 304.155 110.111C301.957 110.111 301.011 111.751 300.845 113.086ZM316.765 116.756V112.002C317.35 111.112 318.657 110.445 319.798 110.445C321.857 110.445 323.22 112.029 323.22 114.365C323.22 116.7 321.857 118.257 319.798 118.257C318.657 118.257 317.35 117.618 316.765 116.756ZM316.765 121.065V119.342C317.823 120.676 319.297 121.399 320.911 121.399C324.305 121.399 326.865 118.841 326.865 114.365C326.865 109.972 324.333 107.303 320.911 107.303C319.325 107.303 317.823 107.998 316.765 109.36V102.521H313.232V121.065H316.765ZM340.927 112.391V121.065H337.394V119.675C336.476 120.76 334.89 121.399 333.137 121.399C330.995 121.399 328.463 119.953 328.463 116.951C328.463 113.809 330.995 112.613 333.137 112.613C334.918 112.613 336.504 113.197 337.394 114.254V112.447C337.394 111.084 336.225 110.194 334.445 110.194C332.998 110.194 331.663 110.723 330.522 111.779L329.186 109.416C330.828 107.97 332.942 107.303 335.057 107.303C338.117 107.303 340.927 108.526 340.927 112.391ZM332.024 117.034C332.024 118.285 333.165 119.008 334.556 119.008C335.697 119.008 336.81 118.619 337.394 117.84V116.172C336.81 115.394 335.697 115.004 334.556 115.004C333.165 115.004 332.024 115.727 332.024 117.034ZM349.064 121.399C352.793 121.399 354.879 119.536 354.879 117.09C354.879 113.717 351.8 113.088 349.474 112.612C348.059 112.323 346.922 112.091 346.922 111.334C346.922 110.584 347.757 110 349.037 110C350.678 110 352.209 110.695 353.015 111.557L354.434 109.138C353.099 108.081 351.29 107.303 349.009 107.303C345.475 107.303 343.5 109.277 343.5 111.529C343.5 114.733 346.437 115.329 348.748 115.798C350.249 116.102 351.485 116.353 351.485 117.229C351.485 118.063 350.762 118.674 349.231 118.674C347.563 118.674 345.559 117.757 344.585 116.839L343.055 119.314C344.474 120.62 346.727 121.399 349.064 121.399ZM369.125 119.536C367.79 120.76 365.676 121.399 363.589 121.399C359.5 121.399 356.412 118.647 356.412 114.337C356.412 110.445 359.277 107.303 363.367 107.303C367.374 107.303 370.099 110.306 370.099 114.699V115.477H360.112C360.334 117.173 361.698 118.591 363.979 118.591C365.12 118.591 366.705 118.09 367.568 117.256L369.125 119.536ZM360.056 113.086H366.677C366.594 111.807 365.704 110.111 363.367 110.111C361.169 110.111 360.223 111.751 360.056 113.086Z" fill="#F2F2F2"/>
</g>
</g>
<g clip-path="url(#clip14_53_341)">
<g clip-path="url(#clip15_53_341)">
<path d="M551.32 104.083H576.238L563.78 123.642L551.32 104.083ZM554.444 105.777L563.78 120.434L573.116 105.777H554.444Z" fill="#F2F2F2"/>
<path d="M551.32 99.8054H576.238L563.78 119.365L551.32 99.8054ZM554.444 101.5L563.78 116.158L573.116 101.5H554.444Z" fill="#F2F2F2"/>
<path d="M456.494 120.817C454.767 120.817 453.205 120.445 451.807 119.703C450.457 118.975 449.332 117.904 448.55 116.605C447.76 115.282 447.366 113.796 447.366 112.151C447.366 110.504 447.761 109.029 448.55 107.722C449.327 106.41 450.464 105.336 451.831 104.622C453.23 103.864 454.792 103.484 456.518 103.484C457.867 103.484 459.1 103.711 460.22 104.163C461.319 104.586 462.3 105.257 463.081 106.124L461.478 107.648C460.178 106.309 458.559 105.638 456.618 105.638C455.336 105.638 454.175 105.921 453.138 106.486C452.119 107.035 451.275 107.847 450.697 108.834C450.121 109.819 449.833 110.925 449.833 112.151C449.833 113.377 450.121 114.49 450.697 115.491C451.28 116.467 452.124 117.272 453.138 117.815C454.175 118.38 455.334 118.662 456.618 118.662C458.542 118.662 460.162 117.984 461.478 116.629L463.081 118.153C462.291 119.026 461.302 119.706 460.195 120.139C459.077 120.591 457.843 120.817 456.494 120.817ZM476.593 114.281C476.593 114.458 476.576 114.693 476.543 114.984H465.936C466.083 116.112 466.585 117.024 467.441 117.719C468.312 118.396 469.389 118.736 470.672 118.736C472.235 118.736 473.493 118.218 474.447 117.186L475.754 118.687C475.153 119.371 474.391 119.902 473.534 120.236C472.662 120.591 471.684 120.769 470.599 120.769C469.217 120.769 467.991 120.495 466.922 119.945C465.881 119.407 465.018 118.594 464.431 117.598C463.855 116.596 463.567 115.467 463.567 114.207C463.567 112.965 463.847 111.844 464.406 110.844C464.982 109.842 465.763 109.068 466.749 108.52C467.753 107.954 468.879 107.672 470.129 107.672C471.379 107.672 472.49 107.954 473.459 108.52C474.439 109.061 475.236 109.869 475.754 110.844C476.313 111.844 476.593 112.99 476.593 114.281ZM470.129 109.633C468.995 109.633 468.04 109.972 467.266 110.65C466.511 111.328 466.067 112.216 465.936 113.313H474.323C474.191 112.232 473.739 111.353 472.966 110.674C472.21 109.98 471.264 109.633 470.129 109.633ZM481.226 109.948C481.637 109.205 482.246 108.641 483.051 108.253C483.857 107.867 484.836 107.672 485.987 107.672V109.923C485.807 109.905 485.626 109.897 485.445 109.9C484.162 109.9 483.151 110.279 482.41 111.038C481.687 111.78 481.326 112.845 481.326 114.233V120.624H478.956V107.794H481.226V109.948ZM499.678 114.281C499.678 114.458 499.661 114.693 499.628 114.984H489.021C489.169 116.112 489.671 117.024 490.526 117.719C491.397 118.396 492.474 118.736 493.757 118.736C495.32 118.736 496.578 118.218 497.532 117.186L498.839 118.687C498.239 119.371 497.476 119.902 496.619 120.236C495.748 120.591 494.769 120.769 493.684 120.769C492.301 120.769 491.077 120.495 490.008 119.945C488.966 119.407 488.103 118.594 487.516 117.598C486.94 116.596 486.652 115.467 486.652 114.207C486.652 112.965 486.932 111.844 487.491 110.844C488.067 109.842 488.848 109.068 489.834 108.52C490.838 107.954 491.964 107.672 493.215 107.672C494.465 107.672 495.576 107.954 496.545 108.52C497.524 109.061 498.321 109.869 498.839 110.844C499.398 111.844 499.678 112.99 499.678 114.281ZM493.215 109.633C492.08 109.633 491.125 109.972 490.353 110.65C489.596 111.328 489.152 112.216 489.021 113.313H497.408C497.277 112.232 496.825 111.353 496.051 110.674C495.296 109.98 494.35 109.633 493.215 109.633ZM508.975 107.672C510.24 107.672 511.376 107.947 512.378 108.495C513.367 109.03 514.18 109.827 514.723 110.795C515.298 111.78 515.585 112.917 515.585 114.207C515.585 115.498 515.297 116.645 514.723 117.646C514.18 118.614 513.367 119.411 512.378 119.945C511.374 120.495 510.24 120.769 508.975 120.769C508.004 120.769 507.116 120.583 506.309 120.212C505.512 119.848 504.823 119.289 504.311 118.59V120.624H502.042V102.661H504.41V109.731C504.921 109.064 505.602 108.538 506.384 108.205C507.174 107.851 508.036 107.672 508.975 107.672ZM508.776 118.734C509.616 118.734 510.365 118.548 511.021 118.179C511.689 117.799 512.235 117.246 512.601 116.581C512.995 115.886 513.193 115.095 513.193 114.207C513.193 113.321 512.995 112.538 512.6 111.86C512.245 111.189 511.696 110.635 511.021 110.263C510.365 109.891 509.616 109.705 508.776 109.705C507.991 109.697 507.217 109.889 506.531 110.263C505.857 110.633 505.308 111.189 504.952 111.86C504.574 112.538 504.385 113.32 504.385 114.207C504.385 115.095 504.574 115.888 504.952 116.581C505.317 117.246 505.864 117.798 506.531 118.179C507.205 118.55 507.954 118.734 508.776 118.734ZM520.203 109.948C520.613 109.205 521.222 108.641 522.028 108.253C522.834 107.867 523.813 107.672 524.963 107.672V109.923C524.783 109.905 524.602 109.897 524.421 109.9C523.138 109.9 522.127 110.279 521.387 111.038C520.663 111.78 520.301 112.845 520.301 114.233V120.624H517.932V107.794H520.203V109.948ZM531.695 107.672C533.504 107.672 534.886 108.107 535.839 108.979C536.81 109.85 537.295 111.15 537.295 112.877V120.623H535.05V118.928C534.656 119.526 534.088 119.986 533.348 120.308C532.625 120.614 531.762 120.768 530.758 120.768C529.295 120.768 528.118 120.422 527.23 119.727C526.357 119.034 525.922 118.121 525.922 116.991C525.922 115.863 526.341 114.958 527.18 114.281C528.019 113.587 529.351 113.241 531.177 113.241H534.927V112.779C534.927 111.78 534.63 111.012 534.039 110.481C533.446 109.948 532.575 109.682 531.423 109.682C530.651 109.682 529.894 109.811 529.154 110.069C528.414 110.31 527.789 110.643 527.279 111.062L526.292 109.319C526.966 108.786 527.773 108.382 528.709 108.107C529.676 107.813 530.683 107.666 531.695 107.672ZM531.153 118.977C532.057 118.977 532.838 118.783 533.496 118.396C534.149 117.999 534.651 117.404 534.928 116.702V114.91H531.275C529.269 114.91 528.265 115.573 528.265 116.895C528.265 117.541 528.521 118.049 529.03 118.419C529.541 118.792 530.248 118.977 531.153 118.977ZM540.753 102.661H543.122V120.624H540.753V102.661Z" fill="#F2F2F2"/>
</g>
</g>
<g clip-path="url(#clip16_53_341)">
<g clip-path="url(#clip17_53_341)">
<g clip-path="url(#clip18_53_341)">
<path fill-rule="evenodd" clip-rule="evenodd" d="M700.261 112.053L702.742 111.544L702.806 125.922C702.806 126.558 703.124 126.813 703.76 126.813H704.651V129.358H703.506C702.551 129.358 701.788 129.103 701.151 128.658C700.515 128.149 700.197 127.322 700.197 126.177L700.261 112.053Z" fill="#F2F2F2"/>
<path fill-rule="evenodd" clip-rule="evenodd" d="M707.62 128.615V116.455L709.847 115.998V128.615H707.62Z" fill="#F2F2F2"/>
<path d="M712.816 128.381V111.323L715.178 110.802V117.638C715.306 117.508 715.498 117.313 715.689 117.118C715.945 116.922 716.2 116.727 716.519 116.597C716.839 116.401 717.222 116.271 717.605 116.206C717.988 116.076 718.499 116.076 719.01 116.076C719.904 116.076 720.734 116.271 721.436 116.597C722.138 116.922 722.713 117.378 723.224 117.964C723.671 118.55 724.054 119.201 724.309 120.047C724.565 120.829 724.693 121.675 724.693 122.587C724.693 123.563 724.501 124.475 724.182 125.321C723.862 126.168 723.352 126.884 722.777 127.47C722.138 128.056 721.436 128.512 720.606 128.837C719.776 129.163 718.818 129.358 717.796 129.358C716.775 129.358 715.881 129.293 714.987 129.098C714.029 128.772 713.327 128.642 712.816 128.381ZM715.178 126.754C715.434 126.819 715.753 126.884 716.072 127.014C716.456 127.079 716.966 127.144 717.669 127.144C718.371 127.144 718.946 127.014 719.52 126.819C720.095 126.623 720.542 126.298 720.925 125.842C721.308 125.452 721.628 124.931 721.819 124.41C722.011 123.824 722.138 123.238 722.138 122.522C722.138 121.936 722.075 121.415 721.947 120.829C721.819 120.308 721.628 119.852 721.308 119.396C720.989 119.006 720.67 118.68 720.223 118.42C719.776 118.159 719.265 118.029 718.627 118.029C718.052 118.029 717.541 118.159 717.094 118.355C716.647 118.55 716.328 118.81 716.009 119.136C715.689 119.461 715.498 119.852 715.37 120.308C715.242 120.764 715.178 121.219 715.178 121.675V126.754Z" fill="#F2F2F2"/>
<path d="M726.177 122.548C726.177 121.64 726.302 120.797 726.615 119.954C726.927 119.176 727.302 118.462 727.865 117.878C728.365 117.295 729.053 116.841 729.74 116.517C730.49 116.192 731.303 115.998 732.178 115.998C733.241 115.998 734.116 116.192 734.866 116.646C735.616 117.035 736.241 117.619 736.679 118.268C737.179 118.981 737.491 119.759 737.741 120.602C737.991 121.51 738.054 122.418 738.054 123.326H728.553C728.553 123.91 728.678 124.364 728.928 124.882C729.178 125.336 729.428 125.79 729.803 126.115C730.178 126.439 730.553 126.698 731.053 126.958C731.49 127.152 731.991 127.282 732.553 127.282C733.553 127.282 734.428 127.087 735.053 126.763C735.679 126.374 736.179 126.05 736.491 125.726L737.804 127.217C737.679 127.347 737.491 127.606 737.179 127.801C736.929 128.06 736.554 128.32 736.116 128.514C735.679 128.773 735.178 128.968 734.553 129.098C733.928 129.292 733.303 129.357 732.553 129.357C731.615 129.357 730.74 129.227 729.99 128.903C729.24 128.579 728.553 128.125 727.99 127.541C727.427 126.958 726.99 126.244 726.677 125.401C726.302 124.493 726.177 123.521 726.177 122.548ZM728.553 121.575H735.679C735.616 120.602 735.303 119.759 734.678 119.111C734.116 118.462 733.241 118.073 732.178 118.073C731.615 118.073 731.115 118.203 730.678 118.397C730.24 118.592 729.865 118.851 729.553 119.176C729.24 119.5 728.99 119.889 728.803 120.278C728.678 120.667 728.553 121.121 728.553 121.575Z" fill="#F2F2F2"/>
<path fill-rule="evenodd" clip-rule="evenodd" d="M741.023 117.313L743.188 116.931L743.25 118.907C743.374 118.715 743.559 118.461 743.807 118.206C744.054 117.951 744.301 117.696 744.611 117.505C744.92 117.313 745.291 117.122 745.724 116.995C746.157 116.867 746.652 116.74 747.147 116.74C747.394 116.74 747.642 116.74 747.827 116.804C748.013 116.867 748.26 116.867 748.446 116.995L747.951 119.225C747.642 119.098 747.271 119.034 746.776 119.034C746.281 119.034 745.848 119.161 745.415 119.353C744.982 119.544 744.611 119.799 744.301 120.181C743.992 120.5 743.745 120.946 743.559 121.392C743.374 121.838 743.312 122.348 743.312 122.857V129.357H741.023V119.353C741.023 118.843 741.023 118.397 741.023 118.014C741.023 117.632 741.023 117.696 741.023 117.313Z" fill="#F2F2F2"/>
<path fill-rule="evenodd" clip-rule="evenodd" d="M750.673 128.615V116.455L752.899 115.998V128.615H750.673Z" fill="#F2F2F2"/>
<path fill-rule="evenodd" clip-rule="evenodd" d="M755.869 127.473L757.344 125.852C757.793 126.306 758.306 126.63 758.948 126.954C759.589 127.213 760.295 127.343 761.129 127.343C761.899 127.343 762.604 127.213 763.117 126.954C763.631 126.695 763.887 126.306 763.887 125.722C763.887 125.463 763.823 125.204 763.695 125.009C763.566 124.815 763.374 124.62 763.117 124.426C762.861 124.296 762.476 124.101 762.027 123.972C761.578 123.842 761.001 123.713 760.359 123.518C759.91 123.388 759.397 123.259 758.948 123.064C758.499 122.87 758.05 122.675 757.665 122.351C757.28 122.027 756.959 121.703 756.767 121.249C756.51 120.86 756.446 120.341 756.446 119.758C756.446 119.174 756.574 118.591 756.831 118.137C757.087 117.683 757.472 117.294 757.921 116.97C758.37 116.646 758.884 116.387 759.461 116.257C760.038 116.127 760.616 115.998 761.257 115.998C762.283 115.998 763.182 116.127 763.951 116.387C764.721 116.646 765.363 117.035 765.94 117.554L764.657 119.239C764.272 118.915 763.823 118.591 763.246 118.396C762.668 118.137 762.027 118.072 761.321 118.072C760.552 118.072 759.974 118.202 759.461 118.461C759.012 118.721 758.755 119.11 758.755 119.693C758.755 120.212 759.076 120.601 759.653 120.86C760.231 121.119 761.065 121.379 762.027 121.638C762.604 121.768 763.182 121.962 763.695 122.157C764.208 122.351 764.657 122.61 765.042 122.87C765.427 123.194 765.748 123.518 765.94 123.972C766.197 124.426 766.261 124.944 766.261 125.528C766.261 126.176 766.132 126.695 765.812 127.213C765.491 127.732 765.17 128.056 764.657 128.38C764.208 128.704 763.631 128.964 762.989 129.093C762.348 129.223 761.706 129.353 761.065 129.353C758.755 129.418 757.023 128.769 755.869 127.473Z" fill="#F2F2F2"/>
</g>
</g>
<path d="M671.131 124.68C670.809 124.357 670.809 123.834 671.131 123.511L676.83 117.813L683.112 124.096L677.414 129.794C677.091 130.117 676.568 130.117 676.245 129.794L671.131 124.68Z" fill="#333333" fill-opacity="0.8"/>
<path d="M676.815 117.828L682.513 112.13C682.836 111.807 683.359 111.807 683.682 112.13L689.38 117.828L683.097 124.111L676.815 117.828Z" fill="#F2F2F2"/>
<path d="M683.082 124.096L689.365 117.813L695.063 123.511C695.386 123.834 695.386 124.357 695.063 124.68L689.949 129.794C689.627 130.117 689.103 130.117 688.78 129.794L683.082 124.096Z" fill="#333333" fill-opacity="0.5"/>
</g>
<g clip-path="url(#clip19_53_341)">
<g clip-path="url(#clip20_53_341)">
<path d="M901.946 108.772C901.946 106.936 900.181 105.012 897.113 105.012C893.673 105.012 889.896 107.539 889.318 112.583C888.727 117.676 891.89 119.939 895.078 119.939C898.267 119.939 899.936 118.695 901.644 117.035C900.175 115.188 898.279 116.041 897.916 116.229C897.315 116.564 896.633 116.729 895.945 116.708C894.715 116.708 893.459 116.155 893.459 113.854C901.342 113.074 901.946 110.596 901.946 108.772ZM898.039 109.074C897.988 109.639 897.763 110.607 893.771 111.15C894.61 108.156 896.22 107.931 896.959 107.931C897.109 107.924 897.259 107.95 897.398 108.006C897.537 108.062 897.662 108.147 897.766 108.255C897.869 108.364 897.947 108.493 897.996 108.635C898.044 108.777 898.062 108.927 898.047 109.076L898.039 109.074ZM884.687 109.565L882.855 115.337L881.561 105.314C878.675 105.314 877.123 107.377 876.313 109.552L874.078 115.35L873.764 109.614C873.594 106.948 871.154 105.326 869.182 105.326L871.567 119.826C874.591 119.814 876.224 117.763 877.078 115.588L878.968 110.659C878.985 110.86 880.274 119.827 880.274 119.827C883.312 119.827 884.945 117.903 885.82 115.803L890.074 105.327C887.079 105.327 885.5 107.377 884.685 109.565H884.687ZM913.095 104.976C911.224 104.976 909.795 105.995 908.587 107.491V107.479L909.666 98.7644C907.18 98.7644 905.159 100.928 904.77 104.147L902.9 119.713C904.332 119.713 905.851 119.298 906.667 118.241C907.396 119.184 908.487 119.939 910.107 119.939C914.3 119.939 917.175 115.06 917.175 110.482C917.15 106.307 915.129 104.988 913.107 104.988L913.095 104.976ZM912.704 112.459C912.267 115.011 910.846 116.747 909.479 116.747C908.111 116.747 907.508 116.131 907.508 116.131C907.772 113.894 907.935 112.522 908.437 111.339C908.938 110.156 910.132 108.271 911.375 108.271C912.593 108.271 913.145 109.893 912.705 112.458L912.704 112.459ZM927.631 105.316H924.706L924.717 105.164C924.918 103.253 925.37 102.247 926.86 102.083C927.878 101.982 928.33 101.454 928.442 100.876L928.807 98.8516C922.943 98.8137 921.087 101.352 920.614 105.227L920.603 105.316H920.54C919.585 105.316 918.532 106.397 918.355 107.768L918.292 108.271H920.251L918.607 121.875L918.103 124.315C918.167 124.315 918.241 124.327 918.303 124.327C921.051 124.226 922.811 122.051 923.199 118.894L924.482 108.268H925.402C926.306 108.268 927.362 107.362 927.546 105.854L927.631 105.316ZM942.845 105.063C939.468 105.063 936.28 107.553 935.302 111.464C934.325 115.376 935.806 120.002 940.775 120.002C945.745 120.002 948.591 115.184 948.591 111.174C948.595 107.188 945.898 105.062 942.846 105.062L942.845 105.063ZM944.213 112.331C944.039 114.105 943.259 116.796 941.125 116.796C938.991 116.796 939.279 113.653 939.486 112.156C939.713 110.559 940.604 108.283 942.524 108.283C944.251 108.283 944.413 110.333 944.214 112.333L944.213 112.331ZM965.278 109.552L963.445 115.324C963.396 114.871 962.153 105.302 962.153 105.302C959.267 105.302 957.721 107.364 956.912 109.539L954.677 115.337C954.665 114.922 954.363 109.601 954.363 109.601C954.181 106.935 951.743 105.313 949.764 105.313L952.135 119.813C955.159 119.801 956.792 117.75 957.647 115.576L959.53 110.646C959.542 110.847 960.836 119.814 960.836 119.814C963.874 119.814 965.5 117.89 966.381 115.79L970.639 105.314C967.652 105.314 966.07 107.364 965.266 109.552H965.278ZM930.393 98.8493L927.932 118.729L927.428 121.182C927.49 121.182 927.566 121.193 927.628 121.193C930.275 121.155 932.159 118.83 932.512 115.899L933.929 104.493C934.359 101.009 932.289 98.847 930.393 98.847V98.8493Z" fill="#F2F2F2"/>
</g>
</g>
<g clip-path="url(#clip21_53_341)">
<g clip-path="url(#clip22_53_341)">
<path d="M1108.7 115.173H1110.01V118.244H1113.55V115.173H1114.86V122.563H1113.55V119.446H1110.01V122.563H1108.7V115.173Z" fill="#F2F2F2"/>
<path d="M1118.02 115.173H1123.52V116.334H1119.32V118.256H1123.03V119.418H1119.32V121.401H1123.58V122.563H1118.02V115.173Z" fill="#F2F2F2"/>
<path d="M1128.81 115.173H1130.01L1133.25 122.563H1131.88L1131.14 120.793H1127.65L1126.89 122.563H1125.56L1128.81 115.173ZM1130.66 119.648L1129.39 116.712L1128.12 119.648H1130.66Z" fill="#F2F2F2"/>
<path d="M1135.62 115.173H1136.92V121.38H1140.83V122.563H1135.62V115.173Z" fill="#F2F2F2"/>
<path d="M1143.81 116.375H1141.46V115.173H1147.49V116.375H1145.13V122.563H1143.81V116.375Z" fill="#F2F2F2"/>
<path d="M1150 115.173H1151.3V118.244H1154.85V115.173H1156.15V122.563H1154.85V119.446H1151.3V122.563H1150V115.173Z" fill="#F2F2F2"/>
<path opacity="0.7" fill-rule="evenodd" clip-rule="evenodd" d="M1092.96 101.057L1103.45 119.496C1103.59 119.73 1103.67 119.989 1103.71 120.257C1103.74 120.525 1103.72 120.796 1103.65 121.056C1103.57 121.316 1103.45 121.56 1103.28 121.772C1103.12 121.985 1102.91 122.163 1102.67 122.296C1102.36 122.471 1102.01 122.563 1101.65 122.562H1077.13L1089.37 101.057C1089.5 100.819 1089.68 100.61 1089.89 100.442C1090.11 100.273 1090.36 100.149 1090.62 100.076C1090.88 100.004 1091.16 99.9842 1091.43 100.019C1091.7 100.053 1091.96 100.141 1092.2 100.277C1092.52 100.465 1092.78 100.735 1092.96 101.057Z" fill="#F2F2F2"/>
<path opacity="0.4" fill-rule="evenodd" clip-rule="evenodd" d="M1079.33 101.012L1083.58 108.333L1075.38 122.563H1067.04C1066.49 122.563 1065.96 122.346 1065.58 121.961C1065.19 121.576 1064.97 121.054 1064.97 120.51C1064.97 120.156 1065.07 119.808 1065.24 119.5L1075.74 101.025C1075.92 100.709 1076.19 100.446 1076.5 100.263C1076.82 100.08 1077.17 99.9841 1077.54 99.9841C1077.9 99.9841 1078.26 100.08 1078.58 100.263C1078.89 100.446 1079.15 100.709 1079.33 101.025V101.012Z" fill="#F2F2F2"/>
<path d="M1119.72 112.217V103.595L1115.41 110.78H1114.63L1110.35 103.652V112.217H1108.7V100.393H1110.09L1115.05 108.702L1119.94 100.393H1121.33V112.217H1119.72Z" fill="#F2F2F2"/>
<path d="M1126.08 111.564C1125.14 111.062 1124.36 110.312 1123.82 109.396C1123.26 108.46 1122.98 107.391 1122.99 106.305C1122.98 105.219 1123.26 104.15 1123.82 103.213C1124.36 102.297 1125.14 101.546 1126.08 101.041C1127.08 100.525 1128.19 100.255 1129.32 100.255C1130.44 100.255 1131.55 100.525 1132.55 101.041C1133.49 101.543 1134.27 102.292 1134.81 103.205C1135.36 104.144 1135.65 105.216 1135.63 106.305C1135.65 107.393 1135.36 108.465 1134.81 109.404C1134.27 110.317 1133.49 111.064 1132.55 111.564C1131.55 112.081 1130.44 112.351 1129.32 112.351C1128.19 112.351 1127.08 112.081 1126.08 111.564ZM1131.68 110.246C1132.37 109.858 1132.94 109.29 1133.33 108.604C1133.73 107.896 1133.94 107.094 1133.93 106.28C1133.94 105.466 1133.73 104.664 1133.33 103.956C1132.94 103.27 1132.37 102.702 1131.68 102.314C1130.96 101.929 1130.15 101.738 1129.33 101.76C1128.5 101.749 1127.69 101.953 1126.96 102.351C1126.27 102.738 1125.7 103.306 1125.31 103.993C1124.91 104.701 1124.7 105.503 1124.71 106.317C1124.7 107.131 1124.91 107.933 1125.31 108.641C1125.7 109.328 1126.27 109.896 1126.96 110.283C1127.69 110.672 1128.51 110.868 1129.33 110.85C1130.15 110.857 1130.96 110.649 1131.68 110.246Z" fill="#F2F2F2"/>
<path d="M1137.29 100.393H1142.29C1143.45 100.37 1144.6 100.625 1145.64 101.136C1146.58 101.601 1147.36 102.325 1147.9 103.221C1148.45 104.154 1148.74 105.221 1148.72 106.305C1148.74 107.388 1148.45 108.455 1147.9 109.388C1147.36 110.285 1146.58 111.011 1145.64 111.478C1144.6 111.989 1143.45 112.244 1142.29 112.221H1137.29V100.393ZM1142.19 110.747C1143.07 110.766 1143.94 110.574 1144.73 110.188C1145.43 109.842 1146.02 109.3 1146.42 108.628C1146.82 107.921 1147.03 107.118 1147.01 106.305C1147.03 105.491 1146.82 104.688 1146.42 103.981C1146.02 103.309 1145.43 102.768 1144.73 102.421C1143.94 102.035 1143.07 101.843 1142.19 101.862H1138.98V110.747H1142.19Z" fill="#F2F2F2"/>
<path d="M1159.42 110.747V112.217H1150.79V100.393H1159.17V101.862H1152.49V105.492H1158.45V106.929H1152.49V110.747H1159.42Z" fill="#F2F2F2"/>
<path d="M1169.6 112.217L1167.04 108.604C1166.72 108.628 1166.47 108.641 1166.29 108.641H1163.36V112.217H1161.66V100.393H1166.29C1167.83 100.393 1169.04 100.758 1169.92 101.489C1170.36 101.857 1170.71 102.319 1170.94 102.841C1171.17 103.362 1171.27 103.929 1171.25 104.498C1171.28 105.331 1171.05 106.152 1170.59 106.847C1170.11 107.507 1169.43 107.997 1168.65 108.247L1171.47 112.217H1169.6ZM1168.7 106.489C1168.98 106.246 1169.21 105.941 1169.35 105.598C1169.49 105.256 1169.55 104.885 1169.53 104.515C1169.55 104.146 1169.49 103.776 1169.35 103.434C1169.21 103.093 1168.98 102.79 1168.7 102.548C1167.98 102.042 1167.11 101.799 1166.23 101.862H1163.34V107.2H1166.23C1167.11 107.258 1167.99 107.006 1168.7 106.489Z" fill="#F2F2F2"/>
<path d="M1183.79 100.393V112.217H1182.4L1175.27 103.398V112.217H1173.57V100.393H1174.97L1182.1 109.211V100.393H1183.79Z" fill="#F2F2F2"/>
</g>
</g>
</g>
<defs>
<clipPath id="clip0_53_341">
<rect width="1227" height="148.727" fill="white"/>
</clipPath>
<clipPath id="clip1_53_341">
<rect width="75.5256" height="32.5341" fill="white" transform="translate(64.4872 20.9148)"/>
</clipPath>
<clipPath id="clip2_53_341">
<rect width="151.051" height="32.6387" fill="white" transform="translate(231.224 20.8569)"/>
</clipPath>
<clipPath id="clip3_53_341">
<rect width="151.051" height="32.6387" fill="white" transform="translate(231.224 20.8569)"/>
</clipPath>
<clipPath id="clip4_53_341">
<rect width="90.6307" height="23.3897" fill="white" transform="translate(465.935 25.4929)"/>
</clipPath>
<clipPath id="clip5_53_341">
<rect width="90.6307" height="23.3897" fill="white" transform="translate(465.935 25.4929)"/>
</clipPath>
<clipPath id="clip6_53_341">
<rect width="81.3352" height="32.5341" fill="white" transform="translate(675.082 20.9148)"/>
</clipPath>
<clipPath id="clip7_53_341">
<rect width="81.3352" height="32.5341" fill="white" transform="translate(675.082 20.9148)"/>
</clipPath>
<clipPath id="clip8_53_341">
<rect width="118.517" height="32.5341" fill="white" transform="translate(860.991 20.9148)"/>
</clipPath>
<clipPath id="clip9_53_341">
<rect width="112.707" height="44.1534" fill="white" transform="translate(1068.4 15.1052)"/>
</clipPath>
<clipPath id="clip10_53_341">
<rect width="99.9261" height="23.2735" fill="white" transform="translate(52.287 99.9031)"/>
</clipPath>
<clipPath id="clip11_53_341">
<rect width="99.9261" height="23.2735" fill="white" transform="translate(52.287 99.9031)"/>
</clipPath>
<clipPath id="clip12_53_341">
<rect width="127.812" height="19.7296" fill="white" transform="translate(242.844 101.669)"/>
</clipPath>
<clipPath id="clip13_53_341">
<rect width="127.812" height="19.7296" fill="white" transform="translate(242.844 101.669)"/>
</clipPath>
<clipPath id="clip14_53_341">
<rect width="130.136" height="29.0483" fill="white" transform="translate(446.182 97.0215)"/>
</clipPath>
<clipPath id="clip15_53_341">
<rect width="130.136" height="29.0483" fill="white" transform="translate(446.182 97.0215)"/>
</clipPath>
<clipPath id="clip16_53_341">
<rect width="113.869" height="37.1818" fill="white" transform="translate(658.815 92.9546)"/>
</clipPath>
<clipPath id="clip17_53_341">
<rect width="67.392" height="18.5561" fill="white" transform="translate(699.797 110.802)"/>
</clipPath>
<clipPath id="clip18_53_341">
<rect width="67.392" height="18.5561" fill="white" transform="translate(699.797 110.802)"/>
</clipPath>
<clipPath id="clip19_53_341">
<rect width="102.25" height="25.5625" fill="white" transform="translate(869.125 98.7644)"/>
</clipPath>
<clipPath id="clip20_53_341">
<rect width="102.25" height="25.5625" fill="white" transform="translate(869.125 98.7644)"/>
</clipPath>
<clipPath id="clip21_53_341">
<rect width="119.679" height="23.1341" fill="white" transform="translate(1064.91 99.9844)"/>
</clipPath>
<clipPath id="clip22_53_341">
<rect width="119.679" height="23.1341" fill="white" transform="translate(1064.91 99.9844)"/>
</clipPath>
</defs>
</svg>
