<svg width="270" height="64" viewBox="0 0 270 64" fill="none" xmlns="http://www.w3.org/2000/svg">
<g clip-path="url(#clip0_80_400)">
<path d="M198.903 37.5976C197.471 35.3868 195.569 33.6208 193.19 32.303C191.999 31.6441 190.761 31.0721 189.463 30.6574C188.165 30.2427 186.814 29.9818 185.399 29.955C187.851 29.6339 190.037 28.781 192.006 27.5368C193.978 26.2926 195.533 24.6871 196.667 22.7238C197.805 20.7638 198.376 18.5496 198.376 16.0879V15.9976C198.376 12.6596 197.562 9.79659 195.927 7.40848C194.291 5.02037 191.932 3.19083 188.856 1.91651C185.776 0.63549 182.062 0 177.711 0H138.811C138.297 0 137.88 0.42143 137.88 0.936512V62.4787C137.88 62.9972 138.297 63.4153 138.811 63.4153H178.762C183.287 63.4153 187.211 62.6527 190.541 61.1275C193.868 59.6057 196.454 57.4751 198.289 54.7358C200.128 51.9965 201.045 48.7956 201.045 45.1299V45.0429C201.049 42.2936 200.334 39.8118 198.903 37.5976ZM180.344 44.8656C180.344 47.8524 178.378 50.274 175.956 50.2773H158.344C157.697 50.2773 157.173 49.7522 157.173 49.1033L157.166 38.407C157.166 37.5006 157.897 36.7648 158.798 36.7648H175.956C178.378 36.7648 180.344 39.1863 180.344 42.1732V44.8656ZM180.344 19.5932C180.344 22.3124 178.378 24.5166 175.956 24.5232H158.318C157.67 24.5232 157.146 23.9981 157.146 23.3459V13.3888C157.146 12.7399 157.67 12.2115 158.318 12.2115H175.956C178.378 12.2115 180.344 14.4156 180.344 17.1382V19.5932Z" fill="white"/>
<path d="M130.479 0H114.295C113.394 0 112.664 0.732486 112.664 1.6389V47.4076C112.664 48.314 111.933 49.0465 111.032 49.0465H89.8666C88.9656 49.0465 88.2349 48.314 88.2349 47.4076V1.6389C88.2349 0.735831 87.5041 0 86.6032 0H70.5732C69.6723 0 68.9415 0.732486 68.9415 1.6389V51.1235C68.9415 57.9132 74.4239 63.4153 81.1876 63.4153H119.864C126.628 63.4153 132.11 57.9099 132.11 51.1235V1.6389C132.11 0.732486 131.38 0 130.479 0Z" fill="white"/>
<path d="M53.2919 0H45.3504C44.4494 0 43.7187 0.732486 43.7187 1.6389V19.5932V23.473C43.7187 24.3794 42.9879 25.1119 42.087 25.1119H20.925C20.0241 25.1119 19.2933 24.3794 19.2933 23.473V1.6389C19.2933 0.732486 18.5626 0 17.6616 0H12.246C5.48235 0 0 5.50535 0 12.2951V61.7797C0 62.6861 0.730758 63.4186 1.63169 63.4186H17.6583C18.5592 63.4186 19.29 62.6861 19.29 61.7797V40.5343C19.29 39.6278 20.0208 38.8954 20.9217 38.8954H42.0803C42.9812 38.8954 43.712 39.6278 43.712 40.5343V61.7797C43.712 62.6861 44.4428 63.4186 45.3437 63.4186H50.9095C57.6731 63.4186 63.1555 57.9132 63.1555 51.1269V1.6389C63.1555 0.732486 62.4247 0 61.5238 0H53.2919Z" fill="white"/>
<path d="M270 8.03728V12.8269C270 17.2653 266.41 20.8608 261.985 20.8608H247.52C243.085 20.8608 239.498 17.2653 239.498 12.8269V0.387984C239.498 0.177268 239.669 0 239.885 0H261.982C266.41 0 270 3.59888 270 8.03728Z" fill="white"/>
<path d="M229.218 0H214.753C210.325 0 206.734 3.59888 206.734 8.03728V55.3746C206.734 59.813 210.325 63.4119 214.753 63.4119H236.852C237.066 63.4119 237.236 63.238 237.236 63.0273V8.04063C237.236 3.59888 233.646 0 229.218 0Z" fill="white"/>
<path d="M261.978 23.1285H247.513C243.085 23.1285 239.495 26.7274 239.495 31.1658V63.0306C239.495 63.2447 239.669 63.4153 239.879 63.4153H261.978C266.406 63.4153 269.997 59.8164 269.997 55.378V31.1658C270 26.7274 266.41 23.1285 261.978 23.1285Z" fill="white"/>
<path d="M265.382 19.1584V21.9579C265.382 29.5269 259.259 35.6644 251.708 35.6644H225.033C222.307 35.6644 220.098 37.8786 220.098 40.6112V48.0331C220.098 48.6819 220.625 49.2104 221.273 49.2104H246.856C247.086 49.2104 247.273 49.0231 247.273 48.7923V47.2136C247.273 46.1634 248.408 45.5078 249.312 46.0329L260.33 52.4113C261.238 52.9364 261.238 54.2475 260.33 54.7726L249.312 61.1509C248.404 61.6761 247.273 61.0205 247.273 59.9703V58.3916C247.273 58.1608 247.086 57.9735 246.856 57.9735H214.879C212.934 57.9735 211.356 56.3914 211.356 54.4415V40.6112C211.356 33.0388 217.479 26.9013 225.033 26.9013H251.708C254.434 26.9013 256.643 24.6872 256.643 21.9545V19.155C256.643 16.4224 254.434 14.2116 251.711 14.2116H221.86C218.817 14.2116 216.351 11.7399 216.351 8.68952V5.8666C216.351 5.63582 216.538 5.44852 216.768 5.44852H251.711C259.259 5.44852 265.382 11.586 265.382 19.1584Z" fill="url(#paint0_linear_80_400)"/>
</g>
<defs>
<linearGradient id="paint0_linear_80_400" x1="211.354" y1="33.3898" x2="265.38" y2="33.3898" gradientUnits="userSpaceOnUse">
<stop stop-color="#333333"/>
<stop offset="1" stop-color="#171717"/>
</linearGradient>
<clipPath id="clip0_80_400">
<rect width="270" height="63.4186" fill="white"/>
</clipPath>
</defs>
</svg>
