<svg width="50" height="50" viewBox="0 0 50 50" fill="none" xmlns="http://www.w3.org/2000/svg">
<g clip-path="url(#clip0_16_465)">
<path d="M49.9992 6.33797V10.1132C49.9992 13.6119 47.1632 16.4487 43.6637 16.4487H32.2324C28.7281 16.4487 25.8928 13.6127 25.8928 10.1132V0.306338C25.8928 0.139464 26.0274 0 26.1992 0H43.6612C47.1615 0 49.9992 2.83766 49.9992 6.33797Z" fill="#FAFCFE"/>
<path d="M17.7684 0.000732422H6.33797C2.83766 0.000732422 0 2.83839 0 6.3387V43.662C0 47.1623 2.83766 49.9999 6.33797 49.9999H23.8025C23.9709 49.9999 24.1072 49.8637 24.1072 49.6952V6.3387C24.1064 2.83839 21.2687 0.000732422 17.7684 0.000732422Z" fill="#FAFCFE"/>
<path d="M43.6612 18.2344H32.2299C28.7296 18.2344 25.892 21.072 25.892 24.5723V49.6945C25.892 49.863 26.0282 49.9992 26.1967 49.9992H43.6612C47.1615 49.9992 49.9992 47.1615 49.9992 43.6612V24.5723C49.9992 21.072 47.1615 18.2344 43.6612 18.2344Z" fill="#FAFCFE"/>
<path d="M46.3482 15.104V17.3096C46.3482 23.2784 41.5096 28.1169 35.5409 28.1169H14.46C12.3068 28.1169 10.5606 29.863 10.5606 32.0163V37.8673C10.5606 38.38 10.9766 38.7952 11.4885 38.7952H31.7076C31.889 38.7952 32.0365 38.6477 32.0365 38.4663V37.2216C32.0365 36.3945 32.9322 35.8769 33.6488 36.2905L42.3553 41.3185C43.0728 41.732 43.0728 42.7671 42.3553 43.1807L33.6488 48.2086C32.9322 48.6222 32.0365 48.1055 32.0365 47.2775V46.0328C32.0365 45.8515 31.889 45.7039 31.7076 45.7039H6.43716C4.89902 45.7039 3.65271 44.4568 3.65271 42.9195V32.0171C3.65271 26.0475 8.49204 21.209 14.4608 21.209H35.5401C37.6933 21.209 39.4394 19.4629 39.4394 17.3096V15.104C39.4394 12.9508 37.6941 11.2054 35.5409 11.2054H11.9504C9.54649 11.2054 7.59721 9.25616 7.59721 6.85221V4.62481C7.59721 4.44342 7.74474 4.2959 7.92612 4.2959H35.5409C41.5096 4.2959 46.3482 9.13443 46.3482 15.104Z" fill="url(#paint0_linear_16_465)"/>
</g>
<defs>
<linearGradient id="paint0_linear_16_465" x1="13.356" y1="-28.8882" x2="36.2865" y2="84.3314" gradientUnits="userSpaceOnUse">
<stop stop-color="#333333"/>
<stop offset="1" stop-color="#171717"/>
</linearGradient>
<clipPath id="clip0_16_465">
<rect width="49.9992" height="50" fill="white"/>
</clipPath>
</defs>
</svg>
